<svg width="1826" height="363" viewBox="0 0 1826 363" fill="none" xmlns="http://www.w3.org/2000/svg">
<rect width="1826" height="363" fill="black"/>
<line y1="54.75" x2="1826" y2="54.75" stroke="white" stroke-width="0.5"/>
<path d="M129 55H217V59C217 60.6569 215.657 62 214 62H132C130.343 62 129 60.6569 129 59V55Z" fill="white"/>
<path d="M499 55H587V59C587 60.6569 585.657 62 584 62H502C500.343 62 499 60.6569 499 59V55Z" fill="white"/>
<path d="M869 55H957V59C957 60.6569 955.657 62 954 62H872C870.343 62 869 60.6569 869 59V55Z" fill="white"/>
<path d="M1239 55H1327V59C1327 60.6569 1325.66 62 1324 62H1242C1240.34 62 1239 60.6569 1239 59V55Z" fill="white"/>
<path d="M1609 55H1697V59C1697 60.6569 1695.66 62 1694 62H1612C1610.34 62 1609 60.6569 1609 59V55Z" fill="white"/>
<path d="M499.146 85.7749H513.172V89.2783H508.155V104H504.127V89.2783H499.146V85.7749ZM511.561 97.2983C511.561 95.1336 512.155 93.4328 513.343 92.1958C514.548 90.967 516.147 90.3525 518.141 90.3525C520.053 90.3525 521.579 90.91 522.718 92.0249C523.882 93.1154 524.464 94.625 524.464 96.5537C524.464 97.0827 524.431 97.6239 524.366 98.1772H515.467V98.8975C515.467 99.6299 515.715 100.224 516.212 100.68C516.708 101.127 517.359 101.351 518.165 101.351C518.824 101.351 519.386 101.213 519.85 100.936C520.322 100.651 520.635 100.273 520.79 99.8008H524.562C524.285 101.144 523.577 102.226 522.438 103.048C521.298 103.845 519.882 104.244 518.189 104.244C516.114 104.244 514.491 103.622 513.319 102.376C512.147 101.131 511.561 99.4386 511.561 97.2983ZM515.467 95.4795V95.6748H520.667V95.4307C520.667 94.7796 520.427 94.2547 519.947 93.856C519.475 93.4491 518.857 93.2456 518.092 93.2456C517.302 93.2456 516.668 93.4531 516.188 93.8682C515.707 94.2751 515.467 94.8122 515.467 95.4795ZM525.917 100.13C525.917 98.8364 526.352 97.8192 527.223 97.0786C528.102 96.3299 529.294 95.9556 530.799 95.9556H534.339V95.1743C534.339 93.9048 533.676 93.27 532.35 93.27C531.69 93.27 531.178 93.4206 530.812 93.7217C530.453 94.0146 530.254 94.4338 530.213 94.979H526.466C526.572 93.4979 527.158 92.3586 528.224 91.561C529.298 90.7554 530.73 90.3525 532.521 90.3525C534.49 90.3525 535.914 90.8286 536.793 91.7808C537.696 92.7329 538.148 93.8885 538.148 95.2476V101.351H539.796V104H536.988C536.223 104 535.662 103.878 535.304 103.634C534.946 103.382 534.718 102.979 534.62 102.425L534.547 101.974H534.364C534.111 102.665 533.607 103.219 532.85 103.634C532.093 104.041 531.214 104.244 530.213 104.244C528.903 104.244 527.857 103.874 527.076 103.133C526.303 102.385 525.917 101.384 525.917 100.13ZM529.774 99.5444V100.045C529.774 100.932 530.372 101.375 531.568 101.375C532.423 101.375 533.098 101.139 533.595 100.667C534.091 100.187 534.339 99.5404 534.339 98.7266V98.2505H531.544C530.364 98.2505 529.774 98.6818 529.774 99.5444ZM545.655 104H541.859V90.5967H545.179L545.631 93.0747H545.887C546.628 91.2599 547.901 90.3525 549.708 90.3525C551.645 90.3525 552.927 91.2681 553.553 93.0991H553.834C554.599 91.2681 555.991 90.3525 558.009 90.3525C559.441 90.3525 560.532 90.8449 561.28 91.8296C562.029 92.8062 562.403 94.1693 562.403 95.9189V104H558.583V96.3462C558.583 94.4175 557.891 93.4531 556.507 93.4531C555.718 93.4531 555.108 93.7298 554.676 94.2832C554.245 94.8285 554.029 95.5771 554.029 96.5293V104H550.208V96.2974C550.208 94.4012 549.517 93.4531 548.133 93.4531C547.376 93.4531 546.774 93.7217 546.327 94.2588C545.879 94.7959 545.655 95.5161 545.655 96.4194V104Z" fill="#FF8080"/>
<path d="M503.58 141.4H499.96V140.04H500.52C502.38 140.04 503.64 139.08 503.7 137.58H505.32V152H503.58V141.4ZM516.668 152H514.848V137.42H521.188C524.228 137.42 525.748 139.14 525.748 142.02C525.748 144.98 524.148 146.68 521.188 146.68H516.668V152ZM516.668 139.1V145.08H521.108C522.848 145.08 523.828 144.18 523.828 142.74V141.28C523.828 139.9 522.848 139.1 521.328 139.1H516.668ZM529.644 141.56H533.264V143H529.804V152H528.064V143.1C528.064 142.08 528.584 141.56 529.644 141.56ZM533.923 146.78C533.923 145.1 534.383 143.78 535.303 142.82C536.223 141.84 537.443 141.36 538.943 141.36C540.443 141.36 541.663 141.84 542.563 142.8C543.483 143.76 543.943 145.08 543.943 146.78C543.943 150.08 542.083 152.2 538.943 152.2C537.383 152.2 536.163 151.72 535.263 150.74C534.363 149.76 533.923 148.44 533.923 146.78ZM535.703 146.02V147.64C535.703 149.62 537.103 150.76 538.943 150.76C540.803 150.76 542.183 149.58 542.183 147.64V146.02C542.183 144.1 540.843 142.82 538.943 142.82C538.003 142.82 537.223 143.12 536.603 143.72C536.003 144.3 535.703 145.08 535.703 146.02ZM550.255 152.2C547.535 152.2 545.915 150.24 545.915 146.86C545.915 143.44 547.535 141.5 550.255 141.5C552.015 141.5 553.335 142.26 553.995 143.54H554.115V137.34H555.855V152H554.295L554.115 150.18H553.995C553.275 151.52 552.035 152.2 550.255 152.2ZM550.735 150.76C552.755 150.76 554.115 149.44 554.115 147.5V146.2C554.115 144.26 552.755 142.96 550.735 142.96C548.875 142.96 547.695 144.06 547.695 145.8V147.9C547.695 149.64 548.875 150.76 550.735 150.76ZM566.334 141.56H568.074V152H566.594L566.354 150.06H566.194C565.634 151.36 564.274 152.2 562.654 152.2C560.494 152.2 559.194 150.76 559.194 148.22V141.56H560.914V147.98C560.914 149.82 561.694 150.74 563.234 150.74C565.134 150.74 566.334 149.24 566.334 147.02V141.56ZM578.58 148.44H580.3C579.96 150.76 578.2 152.2 575.66 152.2C574.12 152.2 572.9 151.72 572.02 150.74C571.14 149.76 570.7 148.46 570.7 146.8C570.7 145.1 571.16 143.76 572.08 142.8C573 141.84 574.22 141.36 575.72 141.36C578.14 141.36 579.9 142.78 580.24 144.96H578.52C578.18 143.54 577.08 142.82 575.64 142.82C573.78 142.82 572.48 144.16 572.48 146.08V147.66C572.48 149.52 573.74 150.76 575.64 150.76C577.18 150.76 578.32 149.86 578.58 148.44ZM584.989 143V150.56H587.189V152H584.789C583.769 152 583.269 151.52 583.269 150.54V143H581.369V141.56H583.269V138.1H584.989V141.56H587.169V143H584.989ZM596.492 152H594.692V137.42H597.132L601.712 147.96H601.832L606.432 137.42H608.852V152H607.072V144.1L607.232 139.82H607.112L601.772 151.74L596.452 139.82H596.312L596.492 144.12V152ZM611.735 149C611.735 146.94 613.155 145.78 615.535 145.78H618.675V144.98C618.675 143.48 617.895 142.74 616.315 142.74C614.775 142.74 613.935 143.48 613.875 144.68H612.175C612.275 142.6 613.875 141.36 616.415 141.36C617.795 141.36 618.875 141.82 619.415 142.38C619.675 142.66 619.895 142.98 620.055 143.36C620.375 144.1 620.395 144.54 620.395 145.02V150.72H621.935V152H620.155C619.195 152 618.855 151.6 618.795 150.82L618.775 150.28H618.655C618.195 151.46 616.795 152.2 615.095 152.2C612.995 152.2 611.735 150.94 611.735 149ZM613.515 148.56V149.2C613.515 150.24 614.295 150.8 615.495 150.8C617.435 150.8 618.675 149.52 618.675 147.6V147.04H615.695C614.315 147.04 613.515 147.66 613.515 148.56ZM625.859 152H624.119V141.56H625.639L625.859 143.5H625.999C626.639 142.16 627.939 141.36 629.519 141.36C631.779 141.36 633.139 143 633.139 145.58V152H631.399V145.76C631.399 143.86 630.579 142.9 628.939 142.9C627.099 142.9 625.859 144.36 625.859 146.54V152ZM635.602 149C635.602 146.94 637.022 145.78 639.402 145.78H642.542V144.98C642.542 143.48 641.762 142.74 640.182 142.74C638.642 142.74 637.802 143.48 637.742 144.68H636.042C636.142 142.6 637.742 141.36 640.282 141.36C641.662 141.36 642.742 141.82 643.282 142.38C643.542 142.66 643.762 142.98 643.922 143.36C644.242 144.1 644.262 144.54 644.262 145.02V150.72H645.802V152H644.022C643.062 152 642.722 151.6 642.662 150.82L642.642 150.28H642.522C642.062 151.46 640.662 152.2 638.962 152.2C636.862 152.2 635.602 150.94 635.602 149ZM637.382 148.56V149.2C637.382 150.24 638.162 150.8 639.362 150.8C641.302 150.8 642.542 149.52 642.542 147.6V147.04H639.562C638.182 147.04 637.382 147.66 637.382 148.56ZM650.526 149.96H653.286C655.286 149.96 656.466 150.96 656.466 152.58C656.466 154.58 654.586 155.62 651.446 155.62C648.426 155.62 646.966 154.66 646.966 153.12C646.966 152.06 647.506 151.36 648.566 151.02V150.88C647.946 150.66 647.546 150.1 647.546 149.46C647.546 148.66 648.106 147.98 648.926 147.74V147.62C647.906 147 647.406 146.06 647.406 144.82C647.406 143.8 647.766 142.96 648.486 142.32C649.226 141.68 650.166 141.36 651.306 141.36C652.026 141.36 652.646 141.48 653.186 141.7V141.36C653.186 140.52 653.666 140.1 654.626 140.1H656.326V141.52H654.346V142.44C654.986 143.08 655.306 143.9 655.306 144.88C655.306 145.9 654.946 146.72 654.226 147.34C653.526 147.96 652.606 148.28 651.486 148.28C650.946 148.28 650.466 148.22 650.046 148.1C649.466 148.2 649.126 148.6 649.126 149.06C649.126 149.66 649.586 149.96 650.526 149.96ZM649.126 144.48V145.2C649.126 146.3 650.006 147.04 651.366 147.04C652.706 147.04 653.606 146.3 653.606 145.2V144.48C653.606 143.38 652.706 142.62 651.366 142.62C650.026 142.62 649.126 143.36 649.126 144.48ZM651.546 154.32C653.686 154.32 654.746 153.76 654.746 152.66C654.746 151.84 654.206 151.42 653.146 151.42H650.306C649.166 151.42 648.586 151.88 648.586 152.78C648.586 153.8 649.566 154.32 651.546 154.32ZM662.456 141.36C665.316 141.36 667.096 143.16 667.096 146.06C667.096 146.46 667.076 146.82 667.036 147.14H659.336V147.74C659.336 149.58 660.596 150.8 662.516 150.8C663.976 150.8 665.096 150.04 665.436 148.86H667.156C666.936 149.88 666.416 150.68 665.556 151.3C664.696 151.9 663.676 152.2 662.476 152.2C659.436 152.2 657.556 150.1 657.556 146.74C657.556 143.38 659.436 141.36 662.456 141.36ZM659.336 145.58V145.86H665.376V145.46C665.376 143.84 664.196 142.76 662.456 142.76C660.616 142.76 659.336 143.9 659.336 145.58ZM671.363 141.56H674.983V143H671.523V152H669.783V143.1C669.783 142.08 670.303 141.56 671.363 141.56ZM504.9 178.42H509.62V180H500.26V178.72L505.98 172.7C506.96 171.64 507.46 170.78 507.46 170.1V169.26C507.46 168.56 507.18 168.02 506.62 167.6C506.06 167.18 505.4 166.98 504.62 166.98C502.84 166.98 501.7 168.1 501.7 169.78V170.12H499.98C499.96 168.66 500.36 167.52 501.22 166.68C502.08 165.82 503.24 165.4 504.68 165.4C506.08 165.4 507.2 165.78 508.06 166.56C508.92 167.32 509.34 168.34 509.34 169.6C509.34 170.56 509.14 171.36 508.6 172.14C508.34 172.52 508.12 172.8 507.98 172.98C507.84 173.14 507.62 173.4 507.28 173.76L502.76 178.52C503.58 178.46 504.3 178.42 504.9 178.42ZM519.383 180H517.563V165.42H523.903C526.943 165.42 528.463 167.14 528.463 170.02C528.463 172.98 526.863 174.68 523.903 174.68H519.383V180ZM519.383 167.1V173.08H523.823C525.563 173.08 526.543 172.18 526.543 170.74V169.28C526.543 167.9 525.563 167.1 524.043 167.1H519.383ZM532.359 169.56H535.979V171H532.519V180H530.779V171.1C530.779 170.08 531.299 169.56 532.359 169.56ZM536.638 174.78C536.638 173.1 537.098 171.78 538.018 170.82C538.938 169.84 540.158 169.36 541.658 169.36C543.158 169.36 544.378 169.84 545.278 170.8C546.198 171.76 546.658 173.08 546.658 174.78C546.658 178.08 544.798 180.2 541.658 180.2C540.098 180.2 538.878 179.72 537.978 178.74C537.078 177.76 536.638 176.44 536.638 174.78ZM538.418 174.02V175.64C538.418 177.62 539.818 178.76 541.658 178.76C543.518 178.76 544.898 177.58 544.898 175.64V174.02C544.898 172.1 543.558 170.82 541.658 170.82C540.718 170.82 539.938 171.12 539.318 171.72C538.718 172.3 538.418 173.08 538.418 174.02ZM552.97 180.2C550.25 180.2 548.63 178.24 548.63 174.86C548.63 171.44 550.25 169.5 552.97 169.5C554.73 169.5 556.05 170.26 556.71 171.54H556.83V165.34H558.57V180H557.01L556.83 178.18H556.71C555.99 179.52 554.75 180.2 552.97 180.2ZM553.45 178.76C555.47 178.76 556.83 177.44 556.83 175.5V174.2C556.83 172.26 555.47 170.96 553.45 170.96C551.59 170.96 550.41 172.06 550.41 173.8V175.9C550.41 177.64 551.59 178.76 553.45 178.76ZM569.049 169.56H570.789V180H569.309L569.069 178.06H568.909C568.349 179.36 566.989 180.2 565.369 180.2C563.209 180.2 561.909 178.76 561.909 176.22V169.56H563.629V175.98C563.629 177.82 564.409 178.74 565.949 178.74C567.849 178.74 569.049 177.24 569.049 175.02V169.56ZM581.295 176.44H583.015C582.675 178.76 580.915 180.2 578.375 180.2C576.835 180.2 575.615 179.72 574.735 178.74C573.855 177.76 573.415 176.46 573.415 174.8C573.415 173.1 573.875 171.76 574.795 170.8C575.715 169.84 576.935 169.36 578.435 169.36C580.855 169.36 582.615 170.78 582.955 172.96H581.235C580.895 171.54 579.795 170.82 578.355 170.82C576.495 170.82 575.195 172.16 575.195 174.08V175.66C575.195 177.52 576.455 178.76 578.355 178.76C579.895 178.76 581.035 177.86 581.295 176.44ZM587.704 171V178.56H589.904V180H587.504C586.484 180 585.984 179.52 585.984 178.54V171H584.084V169.56H585.984V166.1H587.704V169.56H589.884V171H587.704ZM603.307 180H597.407V165.42H603.307C607.647 165.42 609.427 167.92 609.427 172.72C609.427 177.54 607.627 180 603.307 180ZM599.227 167.08V178.34H603.287C606.167 178.34 607.507 177.02 607.507 173.92V171.52C607.507 168.38 606.107 167.08 603.287 167.08H599.227ZM616.343 169.36C619.203 169.36 620.983 171.16 620.983 174.06C620.983 174.46 620.963 174.82 620.923 175.14H613.223V175.74C613.223 177.58 614.483 178.8 616.403 178.8C617.863 178.8 618.983 178.04 619.323 176.86H621.043C620.823 177.88 620.303 178.68 619.443 179.3C618.583 179.9 617.563 180.2 616.363 180.2C613.323 180.2 611.443 178.1 611.443 174.74C611.443 171.38 613.323 169.36 616.343 169.36ZM613.223 173.58V173.86H619.263V173.46C619.263 171.84 618.083 170.76 616.343 170.76C614.503 170.76 613.223 171.9 613.223 173.58ZM622.77 176.84H624.49C624.49 178.06 625.49 178.84 627.03 178.84C628.49 178.84 629.37 178.2 629.37 177.1C629.37 176.32 628.91 175.84 627.99 175.66L625.75 175.24C623.89 174.9 622.97 173.98 622.97 172.48C622.97 170.54 624.51 169.36 626.91 169.36C629.39 169.36 630.89 170.62 630.91 172.54H629.19C629.15 171.32 628.39 170.7 626.91 170.7C625.49 170.7 624.71 171.32 624.71 172.3C624.71 172.86 624.95 173.26 625.37 173.48C625.79 173.66 625.97 173.72 626.39 173.8L628.45 174.18C630.27 174.5 631.19 175.44 631.19 177C631.19 179 629.57 180.2 627.03 180.2C624.39 180.2 622.77 178.86 622.77 176.84ZM635.468 167.62H633.748V165.34H635.468V167.62ZM635.468 180H633.748V169.56H635.468V180ZM641.483 177.96H644.243C646.243 177.96 647.423 178.96 647.423 180.58C647.423 182.58 645.543 183.62 642.403 183.62C639.383 183.62 637.923 182.66 637.923 181.12C637.923 180.06 638.463 179.36 639.523 179.02V178.88C638.903 178.66 638.503 178.1 638.503 177.46C638.503 176.66 639.063 175.98 639.883 175.74V175.62C638.863 175 638.363 174.06 638.363 172.82C638.363 171.8 638.723 170.96 639.443 170.32C640.183 169.68 641.123 169.36 642.263 169.36C642.983 169.36 643.603 169.48 644.143 169.7V169.36C644.143 168.52 644.623 168.1 645.583 168.1H647.283V169.52H645.303V170.44C645.943 171.08 646.263 171.9 646.263 172.88C646.263 173.9 645.903 174.72 645.183 175.34C644.483 175.96 643.563 176.28 642.443 176.28C641.903 176.28 641.423 176.22 641.003 176.1C640.423 176.2 640.083 176.6 640.083 177.06C640.083 177.66 640.543 177.96 641.483 177.96ZM640.083 172.48V173.2C640.083 174.3 640.963 175.04 642.323 175.04C643.663 175.04 644.563 174.3 644.563 173.2V172.48C644.563 171.38 643.663 170.62 642.323 170.62C640.983 170.62 640.083 171.36 640.083 172.48ZM642.503 182.32C644.643 182.32 645.703 181.76 645.703 180.66C645.703 179.84 645.163 179.42 644.103 179.42H641.263C640.123 179.42 639.543 179.88 639.543 180.78C639.543 181.8 640.523 182.32 642.503 182.32ZM651.308 180H649.568V169.56H651.088L651.308 171.5H651.448C652.088 170.16 653.388 169.36 654.968 169.36C657.228 169.36 658.588 171 658.588 173.58V180H656.848V173.76C656.848 171.86 656.028 170.9 654.388 170.9C652.548 170.9 651.308 172.36 651.308 174.54V180ZM665.971 169.36C668.831 169.36 670.611 171.16 670.611 174.06C670.611 174.46 670.591 174.82 670.551 175.14H662.851V175.74C662.851 177.58 664.111 178.8 666.031 178.8C667.491 178.8 668.611 178.04 668.951 176.86H670.671C670.451 177.88 669.931 178.68 669.071 179.3C668.211 179.9 667.191 180.2 665.991 180.2C662.951 180.2 661.071 178.1 661.071 174.74C661.071 171.38 662.951 169.36 665.971 169.36ZM662.851 173.58V173.86H668.891V173.46C668.891 171.84 667.711 170.76 665.971 170.76C664.131 170.76 662.851 171.9 662.851 173.58ZM674.879 169.56H678.499V171H675.039V180H673.299V171.1C673.299 170.08 673.819 169.56 674.879 169.56ZM679.293 176.84H681.013C681.013 178.06 682.013 178.84 683.553 178.84C685.013 178.84 685.893 178.2 685.893 177.1C685.893 176.32 685.433 175.84 684.513 175.66L682.273 175.24C680.413 174.9 679.493 173.98 679.493 172.48C679.493 170.54 681.033 169.36 683.433 169.36C685.913 169.36 687.413 170.62 687.433 172.54H685.713C685.673 171.32 684.913 170.7 683.433 170.7C682.013 170.7 681.233 171.32 681.233 172.3C681.233 172.86 681.473 173.26 681.893 173.48C682.313 173.66 682.493 173.72 682.913 173.8L684.973 174.18C686.793 174.5 687.713 175.44 687.713 177C687.713 179 686.093 180.2 683.553 180.2C680.913 180.2 679.293 178.86 679.293 176.84ZM504.88 208.2C503.46 208.2 502.32 207.8 501.46 207.02C500.6 206.24 500.18 205.2 500.18 203.9V203.58H502V203.82C502 205.6 503.02 206.66 504.84 206.66C506.58 206.66 507.76 205.72 507.76 204.34V203.6C507.76 202.1 506.6 201.3 504.76 201.3H503.74V199.82H504.74C506.48 199.82 507.52 198.92 507.52 197.54V197.12C507.52 195.78 506.46 194.96 504.96 194.96C503.26 194.96 502.18 196.08 502.18 197.76V197.96H500.46V197.72C500.46 196.44 500.88 195.4 501.7 194.6C502.52 193.8 503.62 193.4 505 193.4C506.3 193.4 507.34 193.76 508.14 194.46C508.94 195.16 509.34 196.06 509.34 197.2C509.34 198.7 508.64 199.8 507.24 200.46V200.58C508.84 201.14 509.6 202.48 509.6 204.06C509.6 205.3 509.16 206.3 508.3 207.06C507.44 207.82 506.3 208.2 504.88 208.2ZM516.483 203.5H518.363C518.383 205.6 519.903 206.72 522.243 206.72C524.423 206.72 525.803 205.7 525.803 204.02C525.803 203.14 525.483 202.52 524.863 202.2C524.243 201.86 524.043 201.8 523.483 201.66L520.923 201.08L519.983 200.86C519.763 200.8 519.423 200.66 518.963 200.46C518.523 200.24 518.163 200.02 517.903 199.78C517.403 199.3 516.883 198.38 516.883 197.26C516.883 196 517.343 195.02 518.283 194.3C519.223 193.58 520.443 193.22 521.983 193.22C523.563 193.22 524.823 193.6 525.783 194.34C526.743 195.08 527.243 196.12 527.263 197.44H525.403C525.303 195.68 524.003 194.7 521.983 194.7C519.983 194.7 518.783 195.64 518.783 197.08C518.783 197.86 519.123 198.44 519.743 198.78C520.383 199.1 520.743 199.2 521.383 199.34L524.123 199.94C526.523 200.46 527.723 201.76 527.723 203.84C527.723 205.22 527.223 206.28 526.203 207.06C525.203 207.82 523.863 208.2 522.183 208.2C520.343 208.2 518.923 207.76 517.943 206.88C516.963 205.98 516.483 204.86 516.483 203.5ZM529.802 202.78C529.802 201.1 530.262 199.78 531.182 198.82C532.102 197.84 533.322 197.36 534.822 197.36C536.322 197.36 537.542 197.84 538.442 198.8C539.362 199.76 539.822 201.08 539.822 202.78C539.822 206.08 537.962 208.2 534.822 208.2C533.262 208.2 532.042 207.72 531.142 206.74C530.242 205.76 529.802 204.44 529.802 202.78ZM531.582 202.02V203.64C531.582 205.62 532.982 206.76 534.822 206.76C536.682 206.76 538.062 205.58 538.062 203.64V202.02C538.062 200.1 536.722 198.82 534.822 198.82C533.882 198.82 533.102 199.12 532.482 199.72C531.882 200.3 531.582 201.08 531.582 202.02ZM551.419 199V206.56H553.639V208H551.239C550.219 208 549.719 207.52 549.719 206.54V199H544.759V208H543.039V199H540.999V197.56H543.039V194.78C543.039 193.82 543.599 193.34 544.699 193.34H547.459V194.76H544.759V197.56H549.719V194.1H551.419V197.56H553.619V199H551.419ZM565.869 203.16L567.309 197.56H569.129L566.209 208H563.949L562.609 202.64L561.929 199.68H561.809L561.169 202.64L559.889 208H557.589L554.649 197.56H556.529L557.989 203.1L558.669 206.28H558.809L560.849 197.56H562.949L565.089 206.24H565.189L565.869 203.16ZM570.153 205C570.153 202.94 571.573 201.78 573.953 201.78H577.093V200.98C577.093 199.48 576.313 198.74 574.733 198.74C573.193 198.74 572.353 199.48 572.293 200.68H570.593C570.693 198.6 572.293 197.36 574.833 197.36C576.213 197.36 577.293 197.82 577.833 198.38C578.093 198.66 578.313 198.98 578.473 199.36C578.793 200.1 578.813 200.54 578.813 201.02V206.72H580.353V208H578.573C577.613 208 577.273 207.6 577.213 206.82L577.193 206.28H577.073C576.613 207.46 575.213 208.2 573.513 208.2C571.413 208.2 570.153 206.94 570.153 205ZM571.933 204.56V205.2C571.933 206.24 572.713 206.8 573.913 206.8C575.853 206.8 577.093 205.52 577.093 203.6V203.04H574.113C572.733 203.04 571.933 203.66 571.933 204.56ZM584.117 197.56H587.737V199H584.277V208H582.537V199.1C582.537 198.08 583.057 197.56 584.117 197.56ZM593.296 197.36C596.156 197.36 597.936 199.16 597.936 202.06C597.936 202.46 597.916 202.82 597.876 203.14H590.176V203.74C590.176 205.58 591.436 206.8 593.356 206.8C594.816 206.8 595.936 206.04 596.276 204.86H597.996C597.776 205.88 597.256 206.68 596.396 207.3C595.536 207.9 594.516 208.2 593.316 208.2C590.276 208.2 588.396 206.1 588.396 202.74C588.396 199.38 590.276 197.36 593.296 197.36ZM590.176 201.58V201.86H596.216V201.46C596.216 199.84 595.036 198.76 593.296 198.76C591.456 198.76 590.176 199.9 590.176 201.58ZM615.271 208H605.571V193.42H615.271V195.08H607.391V199.7H614.291V201.28H607.391V206.34H615.271V208ZM619.609 208H617.869V197.56H619.389L619.609 199.5H619.749C620.389 198.16 621.689 197.36 623.269 197.36C625.529 197.36 626.889 199 626.889 201.58V208H625.149V201.76C625.149 199.86 624.329 198.9 622.689 198.9C620.849 198.9 619.609 200.36 619.609 202.54V208ZM632.772 205.96H635.532C637.532 205.96 638.712 206.96 638.712 208.58C638.712 210.58 636.832 211.62 633.692 211.62C630.672 211.62 629.212 210.66 629.212 209.12C629.212 208.06 629.752 207.36 630.812 207.02V206.88C630.192 206.66 629.792 206.1 629.792 205.46C629.792 204.66 630.352 203.98 631.172 203.74V203.62C630.152 203 629.652 202.06 629.652 200.82C629.652 199.8 630.012 198.96 630.732 198.32C631.472 197.68 632.412 197.36 633.552 197.36C634.272 197.36 634.892 197.48 635.432 197.7V197.36C635.432 196.52 635.912 196.1 636.872 196.1H638.572V197.52H636.592V198.44C637.232 199.08 637.552 199.9 637.552 200.88C637.552 201.9 637.192 202.72 636.472 203.34C635.772 203.96 634.852 204.28 633.732 204.28C633.192 204.28 632.712 204.22 632.292 204.1C631.712 204.2 631.372 204.6 631.372 205.06C631.372 205.66 631.832 205.96 632.772 205.96ZM631.372 200.48V201.2C631.372 202.3 632.252 203.04 633.612 203.04C634.952 203.04 635.852 202.3 635.852 201.2V200.48C635.852 199.38 634.952 198.62 633.612 198.62C632.272 198.62 631.372 199.36 631.372 200.48ZM633.792 210.32C635.932 210.32 636.992 209.76 636.992 208.66C636.992 207.84 636.452 207.42 635.392 207.42H632.552C631.412 207.42 630.832 207.88 630.832 208.78C630.832 209.8 631.812 210.32 633.792 210.32ZM642.577 195.62H640.857V193.34H642.577V195.62ZM642.577 208H640.857V197.56H642.577V208ZM647.793 208H646.053V197.56H647.573L647.793 199.5H647.933C648.573 198.16 649.873 197.36 651.453 197.36C653.713 197.36 655.073 199 655.073 201.58V208H653.333V201.76C653.333 199.86 652.513 198.9 650.873 198.9C649.033 198.9 647.793 200.36 647.793 202.54V208ZM662.456 197.36C665.316 197.36 667.096 199.16 667.096 202.06C667.096 202.46 667.076 202.82 667.036 203.14H659.336V203.74C659.336 205.58 660.596 206.8 662.516 206.8C663.976 206.8 665.096 206.04 665.436 204.86H667.156C666.936 205.88 666.416 206.68 665.556 207.3C664.696 207.9 663.676 208.2 662.476 208.2C659.436 208.2 657.556 206.1 657.556 202.74C657.556 199.38 659.436 197.36 662.456 197.36ZM659.336 201.58V201.86H665.376V201.46C665.376 199.84 664.196 198.76 662.456 198.76C660.616 198.76 659.336 199.9 659.336 201.58ZM674.018 197.36C676.878 197.36 678.658 199.16 678.658 202.06C678.658 202.46 678.638 202.82 678.598 203.14H670.898V203.74C670.898 205.58 672.158 206.8 674.078 206.8C675.538 206.8 676.658 206.04 676.998 204.86H678.718C678.498 205.88 677.978 206.68 677.118 207.3C676.258 207.9 675.238 208.2 674.038 208.2C670.998 208.2 669.118 206.1 669.118 202.74C669.118 199.38 670.998 197.36 674.018 197.36ZM670.898 201.58V201.86H676.938V201.46C676.938 199.84 675.758 198.76 674.018 198.76C672.178 198.76 670.898 199.9 670.898 201.58ZM682.925 197.56H686.545V199H683.085V208H681.345V199.1C681.345 198.08 681.865 197.56 682.925 197.56ZM687.34 204.84H689.06C689.06 206.06 690.06 206.84 691.6 206.84C693.06 206.84 693.94 206.2 693.94 205.1C693.94 204.32 693.48 203.84 692.56 203.66L690.32 203.24C688.46 202.9 687.54 201.98 687.54 200.48C687.54 198.54 689.08 197.36 691.48 197.36C693.96 197.36 695.46 198.62 695.48 200.54H693.76C693.72 199.32 692.96 198.7 691.48 198.7C690.06 198.7 689.28 199.32 689.28 200.3C689.28 200.86 689.52 201.26 689.94 201.48C690.36 201.66 690.54 201.72 690.96 201.8L693.02 202.18C694.84 202.5 695.76 203.44 695.76 205C695.76 207 694.14 208.2 691.6 208.2C688.96 208.2 687.34 206.86 687.34 204.84Z" fill="white"/>
<path d="M878.729 104H870.929V85.7749H878.729C884.206 85.7749 886.944 88.8185 886.944 94.9058C886.944 100.969 884.206 104 878.729 104ZM874.969 89.2539V100.521H878.619C880.108 100.521 881.162 100.204 881.781 99.5688C882.407 98.9259 882.721 97.8883 882.721 96.4561V93.3311C882.721 91.8499 882.391 90.8001 881.732 90.1816C881.081 89.5632 880.043 89.2539 878.619 89.2539H874.969ZM888.641 97.2983C888.641 95.1336 889.235 93.4328 890.423 92.1958C891.628 90.967 893.227 90.3525 895.221 90.3525C897.133 90.3525 898.659 90.91 899.798 92.0249C900.962 93.1154 901.544 94.625 901.544 96.5537C901.544 97.0827 901.511 97.6239 901.446 98.1772H892.547V98.8975C892.547 99.6299 892.796 100.224 893.292 100.68C893.788 101.127 894.439 101.351 895.245 101.351C895.904 101.351 896.466 101.213 896.93 100.936C897.402 100.651 897.715 100.273 897.87 99.8008H901.642C901.365 101.144 900.657 102.226 899.518 103.048C898.378 103.845 896.962 104.244 895.27 104.244C893.194 104.244 891.571 103.622 890.399 102.376C889.227 101.131 888.641 99.4386 888.641 97.2983ZM892.547 95.4795V95.6748H897.748V95.4307C897.748 94.7796 897.507 94.2547 897.027 93.856C896.555 93.4491 895.937 93.2456 895.172 93.2456C894.382 93.2456 893.748 93.4531 893.268 93.8682C892.787 94.2751 892.547 94.8122 892.547 95.4795ZM907.721 104H903.924V85.3965H907.721V104ZM914.63 89.1196H910.833V85.3965H914.63V89.1196ZM914.63 104H910.833V90.5967H914.63V104ZM920.562 104L916.046 90.5967H920.147L921.673 96.1753L922.845 100.704H922.992L924.164 96.1997L925.689 90.5967H929.815L925.287 104H920.562ZM930.194 97.2983C930.194 95.1336 930.788 93.4328 931.976 92.1958C933.181 90.967 934.78 90.3525 936.773 90.3525C938.686 90.3525 940.212 90.91 941.351 92.0249C942.515 93.1154 943.097 94.625 943.097 96.5537C943.097 97.0827 943.064 97.6239 942.999 98.1772H934.1V98.8975C934.1 99.6299 934.348 100.224 934.845 100.68C935.341 101.127 935.992 101.351 936.798 101.351C937.457 101.351 938.019 101.213 938.482 100.936C938.954 100.651 939.268 100.273 939.422 99.8008H943.194C942.918 101.144 942.21 102.226 941.07 103.048C939.931 103.845 938.515 104.244 936.822 104.244C934.747 104.244 933.124 103.622 931.952 102.376C930.78 101.131 930.194 99.4386 930.194 97.2983ZM934.1 95.4795V95.6748H939.3V95.4307C939.3 94.7796 939.06 94.2547 938.58 93.856C938.108 93.4491 937.49 93.2456 936.725 93.2456C935.935 93.2456 935.3 93.4531 934.82 93.8682C934.34 94.2751 934.1 94.8122 934.1 95.4795ZM948.7 90.5967H953.253V93.6729H949.273V104H945.477V93.8193C945.477 93.3636 945.51 92.9811 945.575 92.6719C945.648 92.3545 945.782 92.029 945.978 91.6953C946.401 90.9629 947.308 90.5967 948.7 90.5967ZM953.631 100.13C953.631 98.8364 954.067 97.8192 954.938 97.0786C955.816 96.3299 957.009 95.9556 958.514 95.9556H962.054V95.1743C962.054 93.9048 961.391 93.27 960.064 93.27C959.405 93.27 958.893 93.4206 958.526 93.7217C958.168 94.0146 957.969 94.4338 957.928 94.979H954.181C954.286 93.4979 954.872 92.3586 955.938 91.561C957.013 90.7554 958.445 90.3525 960.235 90.3525C962.205 90.3525 963.629 90.8286 964.508 91.7808C965.411 92.7329 965.863 93.8885 965.863 95.2476V101.351H967.511V104H964.703C963.938 104 963.377 103.878 963.019 103.634C962.66 103.382 962.433 102.979 962.335 102.425L962.262 101.974H962.079C961.826 102.665 961.322 103.219 960.565 103.634C959.808 104.041 958.929 104.244 957.928 104.244C956.618 104.244 955.572 103.874 954.791 103.133C954.018 102.385 953.631 101.384 953.631 100.13ZM957.489 99.5444V100.045C957.489 100.932 958.087 101.375 959.283 101.375C960.138 101.375 960.813 101.139 961.31 100.667C961.806 100.187 962.054 99.5404 962.054 98.7266V98.2505H959.259C958.079 98.2505 957.489 98.6818 957.489 99.5444ZM972.894 104H969.574V85.3965H973.37V93.0503H973.602C973.919 92.2284 974.465 91.5732 975.238 91.085C976.011 90.5967 976.914 90.3525 977.948 90.3525C979.689 90.3525 981.044 90.967 982.013 92.1958C982.989 93.4165 983.478 95.1255 983.478 97.3228C983.478 99.5037 982.997 101.205 982.037 102.425C981.077 103.638 979.738 104.244 978.021 104.244C977.02 104.244 976.129 104.012 975.348 103.548C974.566 103.084 973.985 102.433 973.602 101.595H973.37L972.894 104ZM973.37 96.749V97.8965C973.37 98.8893 973.667 99.6868 974.261 100.289C974.855 100.883 975.653 101.18 976.654 101.18C977.606 101.18 978.334 100.932 978.839 100.436C979.343 99.9391 979.596 99.2596 979.596 98.397V96.2485C979.596 95.3452 979.331 94.6535 978.802 94.1733C978.281 93.6932 977.557 93.4531 976.629 93.4531C975.637 93.4531 974.843 93.7542 974.249 94.3564C973.663 94.9505 973.37 95.748 973.37 96.749ZM989.557 104H985.76V85.3965H989.557V104ZM991.766 97.2983C991.766 95.1336 992.36 93.4328 993.548 92.1958C994.753 90.967 996.352 90.3525 998.346 90.3525C1000.26 90.3525 1001.78 90.91 1002.92 92.0249C1004.09 93.1154 1004.67 94.625 1004.67 96.5537C1004.67 97.0827 1004.64 97.6239 1004.57 98.1772H995.672V98.8975C995.672 99.6299 995.921 100.224 996.417 100.68C996.913 101.127 997.564 101.351 998.37 101.351C999.029 101.351 999.591 101.213 1000.05 100.936C1000.53 100.651 1000.84 100.273 1000.99 99.8008H1004.77C1004.49 101.144 1003.78 102.226 1002.64 103.048C1001.5 103.845 1000.09 104.244 998.395 104.244C996.319 104.244 994.696 103.622 993.524 102.376C992.352 101.131 991.766 99.4386 991.766 97.2983ZM995.672 95.4795V95.6748H1000.87V95.4307C1000.87 94.7796 1000.63 94.2547 1000.15 93.856C999.68 93.4491 999.062 93.2456 998.297 93.2456C997.507 93.2456 996.873 93.4531 996.393 93.8682C995.912 94.2751 995.672 94.8122 995.672 95.4795ZM1006.22 99.8008H1010C1010 100.362 1010.19 100.794 1010.58 101.095C1010.97 101.396 1011.51 101.546 1012.2 101.546C1012.83 101.546 1013.31 101.428 1013.64 101.192C1013.98 100.956 1014.15 100.627 1014.15 100.204C1014.11 99.7642 1013.97 99.459 1013.73 99.2881C1013.49 99.1172 1013.17 99.0033 1012.75 98.9463L1010.37 98.5557C1007.74 98.0755 1006.43 96.7816 1006.43 94.6738C1006.43 93.3229 1006.92 92.265 1007.92 91.5C1008.92 90.735 1010.28 90.3525 1011.99 90.3525C1013.72 90.3525 1015.08 90.735 1016.08 91.5C1017.08 92.2568 1017.6 93.2822 1017.65 94.5762H1013.87C1013.85 93.5589 1013.21 93.0503 1011.97 93.0503C1011.42 93.0503 1011 93.1602 1010.7 93.3799C1010.4 93.5996 1010.25 93.9129 1010.25 94.3198C1010.25 94.6453 1010.36 94.9058 1010.58 95.1011C1010.72 95.2231 1010.86 95.3167 1011 95.3818C1011.15 95.4469 1011.27 95.4917 1011.37 95.5161C1011.48 95.5324 1011.68 95.5609 1011.97 95.6016L1014.28 95.98C1016.77 96.3543 1018.02 97.6361 1018.02 99.8252C1018.02 101.209 1017.5 102.291 1016.45 103.072C1015.41 103.854 1013.98 104.244 1012.18 104.244C1010.33 104.244 1008.87 103.841 1007.81 103.036C1006.75 102.23 1006.22 101.152 1006.22 99.8008Z" fill="#FF8080"/>
<path d="M872.84 152H871.02V137.42H880.56V139.08H872.84V144.66H879.76V146.24H872.84V152ZM884.687 139.62H882.967V137.34H884.687V139.62ZM884.687 152H882.967V141.56H884.687V152ZM890.702 149.96H893.462C895.462 149.96 896.642 150.96 896.642 152.58C896.642 154.58 894.762 155.62 891.622 155.62C888.602 155.62 887.142 154.66 887.142 153.12C887.142 152.06 887.682 151.36 888.742 151.02V150.88C888.122 150.66 887.722 150.1 887.722 149.46C887.722 148.66 888.282 147.98 889.102 147.74V147.62C888.082 147 887.582 146.06 887.582 144.82C887.582 143.8 887.942 142.96 888.662 142.32C889.402 141.68 890.342 141.36 891.482 141.36C892.202 141.36 892.822 141.48 893.362 141.7V141.36C893.362 140.52 893.842 140.1 894.802 140.1H896.502V141.52H894.522V142.44C895.162 143.08 895.482 143.9 895.482 144.88C895.482 145.9 895.122 146.72 894.402 147.34C893.702 147.96 892.782 148.28 891.662 148.28C891.122 148.28 890.642 148.22 890.222 148.1C889.642 148.2 889.302 148.6 889.302 149.06C889.302 149.66 889.762 149.96 890.702 149.96ZM889.302 144.48V145.2C889.302 146.3 890.182 147.04 891.542 147.04C892.882 147.04 893.782 146.3 893.782 145.2V144.48C893.782 143.38 892.882 142.62 891.542 142.62C890.202 142.62 889.302 143.36 889.302 144.48ZM891.722 154.32C893.862 154.32 894.922 153.76 894.922 152.66C894.922 151.84 894.382 151.42 893.322 151.42H890.482C889.342 151.42 888.762 151.88 888.762 152.78C888.762 153.8 889.742 154.32 891.722 154.32ZM900.527 152H898.787V141.56H900.287L900.507 143.5H900.667C901.287 142.08 902.347 141.36 903.887 141.36C905.427 141.36 906.547 142.28 906.947 143.64H907.107C907.727 142.12 908.947 141.36 910.527 141.36C912.707 141.36 914.007 142.86 914.007 145.48V152H912.267V145.7C912.267 143.78 911.507 142.82 909.987 142.82C908.247 142.82 907.267 144.24 907.267 146.46V152H905.547V145.74C905.547 143.8 904.787 142.82 903.287 142.82C901.607 142.82 900.527 144.28 900.527 146.44V152ZM916.442 149C916.442 146.94 917.862 145.78 920.242 145.78H923.382V144.98C923.382 143.48 922.602 142.74 921.022 142.74C919.482 142.74 918.642 143.48 918.582 144.68H916.882C916.982 142.6 918.582 141.36 921.122 141.36C922.502 141.36 923.582 141.82 924.122 142.38C924.382 142.66 924.602 142.98 924.762 143.36C925.082 144.1 925.102 144.54 925.102 145.02V150.72H926.642V152H924.862C923.902 152 923.562 151.6 923.502 150.82L923.482 150.28H923.362C922.902 151.46 921.502 152.2 919.802 152.2C917.702 152.2 916.442 150.94 916.442 149ZM918.222 148.56V149.2C918.222 150.24 919.002 150.8 920.202 150.8C922.142 150.8 923.382 149.52 923.382 147.6V147.04H920.402C919.022 147.04 918.222 147.66 918.222 148.56ZM935.594 152H933.774V137.42H940.114C943.154 137.42 944.674 139.14 944.674 142.02C944.674 144.98 943.074 146.68 940.114 146.68H935.594V152ZM935.594 139.1V145.08H940.034C941.774 145.08 942.754 144.18 942.754 142.74V141.28C942.754 139.9 941.774 139.1 940.254 139.1H935.594ZM948.57 141.56H952.19V143H948.73V152H946.99V143.1C946.99 142.08 947.51 141.56 948.57 141.56ZM952.849 146.78C952.849 145.1 953.309 143.78 954.229 142.82C955.149 141.84 956.369 141.36 957.869 141.36C959.369 141.36 960.589 141.84 961.489 142.8C962.409 143.76 962.869 145.08 962.869 146.78C962.869 150.08 961.009 152.2 957.869 152.2C956.309 152.2 955.089 151.72 954.189 150.74C953.289 149.76 952.849 148.44 952.849 146.78ZM954.629 146.02V147.64C954.629 149.62 956.029 150.76 957.869 150.76C959.729 150.76 961.109 149.58 961.109 147.64V146.02C961.109 144.1 959.769 142.82 957.869 142.82C956.929 142.82 956.149 143.12 955.529 143.72C954.929 144.3 954.629 145.08 954.629 146.02ZM967.646 143V150.56H969.846V152H967.446C966.426 152 965.926 151.52 965.926 150.54V143H964.026V141.56H965.926V138.1H967.646V141.56H969.826V143H967.646ZM971.423 146.78C971.423 145.1 971.883 143.78 972.803 142.82C973.723 141.84 974.943 141.36 976.443 141.36C977.943 141.36 979.163 141.84 980.063 142.8C980.983 143.76 981.443 145.08 981.443 146.78C981.443 150.08 979.583 152.2 976.443 152.2C974.883 152.2 973.663 151.72 972.763 150.74C971.863 149.76 971.423 148.44 971.423 146.78ZM973.203 146.02V147.64C973.203 149.62 974.603 150.76 976.443 150.76C978.303 150.76 979.683 149.58 979.683 147.64V146.02C979.683 144.1 978.343 142.82 976.443 142.82C975.503 142.82 974.723 143.12 974.103 143.72C973.503 144.3 973.203 145.08 973.203 146.02ZM986.22 143V150.56H988.42V152H986.02C985 152 984.5 151.52 984.5 150.54V143H982.6V141.56H984.5V138.1H986.22V141.56H988.4V143H986.22ZM993.554 150.76L989.214 141.56H991.114L992.634 144.98L994.334 148.98H994.454L997.714 141.56H999.614L995.274 150.78V153.8C995.274 154.82 994.774 155.34 993.754 155.34H991.094V153.92H993.554V150.76ZM1003.07 155.34H1001.33V141.56H1002.89L1003.07 143.4H1003.19C1003.89 142.1 1005.23 141.36 1006.93 141.36C1009.65 141.36 1011.27 143.32 1011.27 146.7C1011.27 150.12 1009.65 152.06 1006.93 152.06C1005.17 152.06 1003.85 151.3 1003.19 150.02H1003.07V155.34ZM1006.45 150.6C1008.31 150.6 1009.49 149.5 1009.49 147.76V145.66C1009.49 143.92 1008.31 142.8 1006.45 142.8C1004.43 142.8 1003.07 144.12 1003.07 146.06V147.36C1003.07 149.3 1004.43 150.6 1006.45 150.6ZM1018.12 141.36C1020.98 141.36 1022.76 143.16 1022.76 146.06C1022.76 146.46 1022.74 146.82 1022.7 147.14H1015V147.74C1015 149.58 1016.26 150.8 1018.18 150.8C1019.64 150.8 1020.76 150.04 1021.1 148.86H1022.82C1022.6 149.88 1022.08 150.68 1021.22 151.3C1020.36 151.9 1019.34 152.2 1018.14 152.2C1015.1 152.2 1013.22 150.1 1013.22 146.74C1013.22 143.38 1015.1 141.36 1018.12 141.36ZM1015 145.58V145.86H1021.04V145.46C1021.04 143.84 1019.86 142.76 1018.12 142.76C1016.28 142.76 1015 143.9 1015 145.58ZM869.96 175.5H871.84C871.86 177.6 873.38 178.72 875.72 178.72C877.9 178.72 879.28 177.7 879.28 176.02C879.28 175.14 878.96 174.52 878.34 174.2C877.72 173.86 877.52 173.8 876.96 173.66L874.4 173.08L873.46 172.86C873.24 172.8 872.9 172.66 872.44 172.46C872 172.24 871.64 172.02 871.38 171.78C870.88 171.3 870.36 170.38 870.36 169.26C870.36 168 870.82 167.02 871.76 166.3C872.7 165.58 873.92 165.22 875.46 165.22C877.04 165.22 878.3 165.6 879.26 166.34C880.22 167.08 880.72 168.12 880.74 169.44H878.88C878.78 167.68 877.48 166.7 875.46 166.7C873.46 166.7 872.26 167.64 872.26 169.08C872.26 169.86 872.6 170.44 873.22 170.78C873.86 171.1 874.22 171.2 874.86 171.34L877.6 171.94C880 172.46 881.2 173.76 881.2 175.84C881.2 177.22 880.7 178.28 879.68 179.06C878.68 179.82 877.34 180.2 875.66 180.2C873.82 180.2 872.4 179.76 871.42 178.88C870.44 177.98 869.96 176.86 869.96 175.5ZM886.278 171V178.56H888.478V180H886.078C885.058 180 884.558 179.52 884.558 178.54V171H882.658V169.56H884.558V166.1H886.278V169.56H888.458V171H886.278ZM893.613 178.76L889.273 169.56H891.173L892.693 172.98L894.393 176.98H894.513L897.773 169.56H899.673L895.333 178.78V181.8C895.333 182.82 894.833 183.34 893.813 183.34H891.153V181.92H893.613V178.76ZM903.105 180H901.385V165.34H903.105V180ZM910.464 169.36C913.324 169.36 915.104 171.16 915.104 174.06C915.104 174.46 915.084 174.82 915.044 175.14H907.344V175.74C907.344 177.58 908.604 178.8 910.524 178.8C911.984 178.8 913.104 178.04 913.444 176.86H915.164C914.944 177.88 914.424 178.68 913.564 179.3C912.704 179.9 911.684 180.2 910.484 180.2C907.444 180.2 905.564 178.1 905.564 174.74C905.564 171.38 907.444 169.36 910.464 169.36ZM907.344 173.58V173.86H913.384V173.46C913.384 171.84 912.204 170.76 910.464 170.76C908.624 170.76 907.344 171.9 907.344 173.58ZM921.619 172.84C921.619 170.42 922.239 168.56 923.499 167.24C924.759 165.9 926.399 165.24 928.459 165.24C930.059 165.24 931.419 165.66 932.559 166.48C933.699 167.3 934.379 168.36 934.639 169.7H932.739C932.359 168 930.679 166.88 928.499 166.88C927.039 166.88 925.839 167.32 924.919 168.2C923.999 169.08 923.539 170.24 923.539 171.68V173.96C923.539 175.34 923.979 176.46 924.839 177.32C925.719 178.18 926.859 178.62 928.279 178.62C929.659 178.62 930.799 178.18 931.659 177.32C932.539 176.44 932.979 175.28 932.999 173.84H927.799V172.28H935.059V180H933.559L933.379 177.46H933.239C932.199 179.28 930.319 180.2 928.019 180.2C926.019 180.2 924.459 179.54 923.319 178.22C922.179 176.9 921.619 175.1 921.619 172.84ZM945.435 169.56H947.175V180H945.695L945.455 178.06H945.295C944.735 179.36 943.375 180.2 941.755 180.2C939.595 180.2 938.295 178.76 938.295 176.22V169.56H940.015V175.98C940.015 177.82 940.795 178.74 942.335 178.74C944.235 178.74 945.435 177.24 945.435 175.02V169.56ZM952.382 167.62H950.662V165.34H952.382V167.62ZM952.382 180H950.662V169.56H952.382V180ZM959.337 180.2C956.617 180.2 954.997 178.24 954.997 174.86C954.997 171.44 956.617 169.5 959.337 169.5C961.097 169.5 962.417 170.26 963.077 171.54H963.197V165.34H964.937V180H963.377L963.197 178.18H963.077C962.357 179.52 961.117 180.2 959.337 180.2ZM959.817 178.76C961.837 178.76 963.197 177.44 963.197 175.5V174.2C963.197 172.26 961.837 170.96 959.817 170.96C957.957 170.96 956.777 172.06 956.777 173.8V175.9C956.777 177.64 957.957 178.76 959.817 178.76ZM972.456 169.36C975.316 169.36 977.096 171.16 977.096 174.06C977.096 174.46 977.076 174.82 977.036 175.14H969.336V175.74C969.336 177.58 970.596 178.8 972.516 178.8C973.976 178.8 975.096 178.04 975.436 176.86H977.156C976.936 177.88 976.416 178.68 975.556 179.3C974.696 179.9 973.676 180.2 972.476 180.2C969.436 180.2 967.556 178.1 967.556 174.74C967.556 171.38 969.436 169.36 972.456 169.36ZM969.336 173.58V173.86H975.376V173.46C975.376 171.84 974.196 170.76 972.456 170.76C970.616 170.76 969.336 171.9 969.336 173.58ZM879.72 208H871.02V193.42H872.84V206.34H879.72V208ZM880.993 202.78C880.993 201.1 881.453 199.78 882.373 198.82C883.293 197.84 884.513 197.36 886.013 197.36C887.513 197.36 888.733 197.84 889.633 198.8C890.553 199.76 891.013 201.08 891.013 202.78C891.013 206.08 889.153 208.2 886.013 208.2C884.453 208.2 883.233 207.72 882.333 206.74C881.433 205.76 880.993 204.44 880.993 202.78ZM882.773 202.02V203.64C882.773 205.62 884.173 206.76 886.013 206.76C887.873 206.76 889.253 205.58 889.253 203.64V202.02C889.253 200.1 887.913 198.82 886.013 198.82C885.073 198.82 884.293 199.12 883.673 199.72C883.073 200.3 882.773 201.08 882.773 202.02ZM896.19 205.96H898.95C900.95 205.96 902.13 206.96 902.13 208.58C902.13 210.58 900.25 211.62 897.11 211.62C894.09 211.62 892.63 210.66 892.63 209.12C892.63 208.06 893.17 207.36 894.23 207.02V206.88C893.61 206.66 893.21 206.1 893.21 205.46C893.21 204.66 893.77 203.98 894.59 203.74V203.62C893.57 203 893.07 202.06 893.07 200.82C893.07 199.8 893.43 198.96 894.15 198.32C894.89 197.68 895.83 197.36 896.97 197.36C897.69 197.36 898.31 197.48 898.85 197.7V197.36C898.85 196.52 899.33 196.1 900.29 196.1H901.99V197.52H900.01V198.44C900.65 199.08 900.97 199.9 900.97 200.88C900.97 201.9 900.61 202.72 899.89 203.34C899.19 203.96 898.27 204.28 897.15 204.28C896.61 204.28 896.13 204.22 895.71 204.1C895.13 204.2 894.79 204.6 894.79 205.06C894.79 205.66 895.25 205.96 896.19 205.96ZM894.79 200.48V201.2C894.79 202.3 895.67 203.04 897.03 203.04C898.37 203.04 899.27 202.3 899.27 201.2V200.48C899.27 199.38 898.37 198.62 897.03 198.62C895.69 198.62 894.79 199.36 894.79 200.48ZM897.21 210.32C899.35 210.32 900.41 209.76 900.41 208.66C900.41 207.84 899.87 207.42 898.81 207.42H895.97C894.83 207.42 894.25 207.88 894.25 208.78C894.25 209.8 895.23 210.32 897.21 210.32ZM903.22 202.78C903.22 201.1 903.68 199.78 904.6 198.82C905.52 197.84 906.74 197.36 908.24 197.36C909.74 197.36 910.96 197.84 911.86 198.8C912.78 199.76 913.24 201.08 913.24 202.78C913.24 206.08 911.38 208.2 908.24 208.2C906.68 208.2 905.46 207.72 904.56 206.74C903.66 205.76 903.22 204.44 903.22 202.78ZM905 202.02V203.64C905 205.62 906.4 206.76 908.24 206.76C910.1 206.76 911.48 205.58 911.48 203.64V202.02C911.48 200.1 910.14 198.82 908.24 198.82C907.3 198.82 906.52 199.12 905.9 199.72C905.3 200.3 905 201.08 905 202.02Z" fill="white"/>
<path d="M1239.74 98.2749H1243.92C1243.93 99.1538 1244.25 99.8374 1244.9 100.326C1245.55 100.806 1246.42 101.046 1247.52 101.046C1248.47 101.046 1249.22 100.855 1249.75 100.472C1250.3 100.082 1250.57 99.5404 1250.57 98.8486C1250.57 98.1162 1250.27 97.6076 1249.67 97.3228C1249.4 97.1844 1249.19 97.0949 1249.05 97.0542C1248.9 97.0054 1248.65 96.9443 1248.3 96.8711L1245.47 96.2729L1244.63 96.1021L1243.7 95.7969C1243.33 95.6748 1242.98 95.5324 1242.65 95.3696C1241.78 94.8407 1241.19 94.3442 1240.88 93.8804C1240.38 93.0991 1240.12 92.1958 1240.12 91.1704C1240.12 89.4858 1240.77 88.1227 1242.05 87.0811C1243.31 86.0638 1245.01 85.5552 1247.15 85.5552C1249.27 85.5552 1250.98 86.0435 1252.27 87.02C1253.58 88.0129 1254.25 89.3231 1254.27 90.9507H1250.1C1250.05 90.2508 1249.75 89.7015 1249.19 89.3027C1248.64 88.904 1247.92 88.7046 1247.04 88.7046C1246.2 88.7046 1245.54 88.8755 1245.07 89.2173C1244.6 89.5509 1244.37 90.0107 1244.37 90.5967C1244.37 90.8652 1244.43 91.1134 1244.54 91.3413C1244.66 91.561 1244.81 91.7319 1244.97 91.854C1245.08 91.9435 1245.3 92.0575 1245.65 92.1958L1246.28 92.3789L1246.92 92.501L1249.93 93.1235C1253.22 93.7664 1254.87 95.508 1254.87 98.3481C1254.87 100.22 1254.19 101.673 1252.83 102.706C1251.47 103.731 1249.65 104.244 1247.37 104.244C1245.03 104.244 1243.17 103.695 1241.8 102.596C1240.43 101.481 1239.74 100.041 1239.74 98.2749ZM1270.85 104H1266.49L1262.95 98.519L1261.22 100.326V104H1257.37V85.3965H1261.22V95.5771L1265.87 90.5967H1270.57L1265.55 95.8213L1270.85 104ZM1275.96 89.1196H1272.17V85.3965H1275.96V89.1196ZM1275.96 104H1272.17V90.5967H1275.96V104ZM1282.87 104H1279.08V85.3965H1282.87V104ZM1289.78 104H1285.98V85.3965H1289.78V104ZM1292.06 99.8008H1295.85C1295.85 100.362 1296.04 100.794 1296.42 101.095C1296.81 101.396 1297.35 101.546 1298.05 101.546C1298.67 101.546 1299.15 101.428 1299.49 101.192C1299.83 100.956 1300 100.627 1300 100.204C1299.96 99.7642 1299.82 99.459 1299.57 99.2881C1299.34 99.1172 1299.01 99.0033 1298.59 98.9463L1296.21 98.5557C1293.59 98.0755 1292.27 96.7816 1292.27 94.6738C1292.27 93.3229 1292.77 92.265 1293.76 91.5C1294.76 90.735 1296.12 90.3525 1297.84 90.3525C1299.56 90.3525 1300.93 90.735 1301.93 91.5C1302.93 92.2568 1303.45 93.2822 1303.49 94.5762H1299.72C1299.69 93.5589 1299.06 93.0503 1297.81 93.0503C1297.27 93.0503 1296.85 93.1602 1296.54 93.3799C1296.24 93.5996 1296.09 93.9129 1296.09 94.3198C1296.09 94.6453 1296.2 94.9058 1296.42 95.1011C1296.56 95.2231 1296.7 95.3167 1296.85 95.3818C1297 95.4469 1297.12 95.4917 1297.22 95.5161C1297.32 95.5324 1297.52 95.5609 1297.81 95.6016L1300.12 95.98C1302.62 96.3543 1303.87 97.6361 1303.87 99.8252C1303.87 101.209 1303.34 102.291 1302.29 103.072C1301.25 103.854 1299.83 104.244 1298.02 104.244C1296.17 104.244 1294.72 103.841 1293.65 103.036C1292.59 102.23 1292.06 101.152 1292.06 99.8008Z" fill="#FF8080"/>
<path d="M1246.52 152.2C1242.36 152.2 1239.9 149.44 1239.9 144.72C1239.9 140 1242.36 137.22 1246.68 137.22C1248.46 137.22 1249.92 137.68 1251.04 138.6C1252.18 139.52 1252.84 140.76 1253.02 142.3H1251.14C1250.74 140.22 1249.14 138.88 1246.64 138.88C1245.18 138.88 1244 139.3 1243.12 140.16C1242.26 141 1241.82 142.14 1241.82 143.6V145.96C1241.82 147.3 1242.26 148.42 1243.14 149.28C1244.02 150.14 1245.16 150.56 1246.58 150.56C1248.92 150.56 1250.66 149.22 1251.14 147.12H1253.02C1252.76 148.68 1252.06 149.92 1250.9 150.84C1249.74 151.74 1248.28 152.2 1246.52 152.2ZM1254.9 146.78C1254.9 145.1 1255.36 143.78 1256.28 142.82C1257.2 141.84 1258.42 141.36 1259.92 141.36C1261.42 141.36 1262.64 141.84 1263.54 142.8C1264.46 143.76 1264.92 145.08 1264.92 146.78C1264.92 150.08 1263.06 152.2 1259.92 152.2C1258.36 152.2 1257.14 151.72 1256.24 150.74C1255.34 149.76 1254.9 148.44 1254.9 146.78ZM1256.68 146.02V147.64C1256.68 149.62 1258.08 150.76 1259.92 150.76C1261.78 150.76 1263.16 149.58 1263.16 147.64V146.02C1263.16 144.1 1261.82 142.82 1259.92 142.82C1258.98 142.82 1258.2 143.12 1257.58 143.72C1256.98 144.3 1256.68 145.08 1256.68 146.02ZM1269.3 152H1267.56V141.56H1269.06L1269.28 143.5H1269.44C1270.06 142.08 1271.12 141.36 1272.66 141.36C1274.2 141.36 1275.32 142.28 1275.72 143.64H1275.88C1276.5 142.12 1277.72 141.36 1279.3 141.36C1281.48 141.36 1282.78 142.86 1282.78 145.48V152H1281.04V145.7C1281.04 143.78 1280.28 142.82 1278.76 142.82C1277.02 142.82 1276.04 144.24 1276.04 146.46V152H1274.32V145.74C1274.32 143.8 1273.56 142.82 1272.06 142.82C1270.38 142.82 1269.3 144.28 1269.3 146.44V152ZM1287.83 155.34H1286.09V141.56H1287.65L1287.83 143.4H1287.95C1288.65 142.1 1289.99 141.36 1291.69 141.36C1294.41 141.36 1296.03 143.32 1296.03 146.7C1296.03 150.12 1294.41 152.06 1291.69 152.06C1289.93 152.06 1288.61 151.3 1287.95 150.02H1287.83V155.34ZM1291.21 150.6C1293.07 150.6 1294.25 149.5 1294.25 147.76V145.66C1294.25 143.92 1293.07 142.8 1291.21 142.8C1289.19 142.8 1287.83 144.12 1287.83 146.06V147.36C1287.83 149.3 1289.19 150.6 1291.21 150.6ZM1302.89 141.36C1305.75 141.36 1307.53 143.16 1307.53 146.06C1307.53 146.46 1307.51 146.82 1307.47 147.14H1299.77V147.74C1299.77 149.58 1301.03 150.8 1302.95 150.8C1304.41 150.8 1305.53 150.04 1305.87 148.86H1307.59C1307.37 149.88 1306.85 150.68 1305.99 151.3C1305.13 151.9 1304.11 152.2 1302.91 152.2C1299.87 152.2 1297.99 150.1 1297.99 146.74C1297.99 143.38 1299.87 141.36 1302.89 141.36ZM1299.77 145.58V145.86H1305.81V145.46C1305.81 143.84 1304.63 142.76 1302.89 142.76C1301.05 142.76 1299.77 143.9 1299.77 145.58ZM1316.99 139.8V137.52H1318.71V139.8H1316.99ZM1312.35 141.56H1318.71V152H1316.99V143H1312.35V150.56H1314.51V152H1312.23C1311.11 152 1310.67 151.48 1310.65 150.46V143H1308.73V141.56H1310.65V138.1H1312.35V141.56ZM1328.97 139.8V137.52H1330.69V139.8H1328.97ZM1324.33 141.56H1330.69V152H1328.97V143H1324.33V150.56H1326.49V152H1324.21C1323.09 152 1322.65 151.48 1322.63 150.46V143H1320.71V141.56H1322.63V138.1H1324.33V141.56ZM1336.22 152L1332.42 141.56H1334.32L1336.16 147.12L1337.18 150.22H1337.3L1338.26 147.12L1340.1 141.56H1342L1338.28 152H1336.22ZM1347.73 141.36C1350.59 141.36 1352.37 143.16 1352.37 146.06C1352.37 146.46 1352.35 146.82 1352.31 147.14H1344.61V147.74C1344.61 149.58 1345.87 150.8 1347.79 150.8C1349.25 150.8 1350.37 150.04 1350.71 148.86H1352.43C1352.21 149.88 1351.69 150.68 1350.83 151.3C1349.97 151.9 1348.95 152.2 1347.75 152.2C1344.71 152.2 1342.83 150.1 1342.83 146.74C1342.83 143.38 1344.71 141.36 1347.73 141.36ZM1344.61 145.58V145.86H1350.65V145.46C1350.65 143.84 1349.47 142.76 1347.73 142.76C1345.89 142.76 1344.61 143.9 1344.61 145.58ZM1371.18 152H1369.22L1367.94 148.56H1361.24L1359.96 152H1358.06L1363.56 137.42H1365.64L1371.18 152ZM1362.72 144.56L1361.8 147.06H1367.38L1366.46 144.56L1364.66 139.26H1364.56L1362.72 144.56ZM1374.77 152H1373.03V141.56H1374.55L1374.77 143.5H1374.91C1375.55 142.16 1376.85 141.36 1378.43 141.36C1380.69 141.36 1382.05 143 1382.05 145.58V152H1380.31V145.76C1380.31 143.86 1379.49 142.9 1377.85 142.9C1376.01 142.9 1374.77 144.36 1374.77 146.54V152ZM1384.51 149C1384.51 146.94 1385.93 145.78 1388.31 145.78H1391.45V144.98C1391.45 143.48 1390.67 142.74 1389.09 142.74C1387.55 142.74 1386.71 143.48 1386.65 144.68H1384.95C1385.05 142.6 1386.65 141.36 1389.19 141.36C1390.57 141.36 1391.65 141.82 1392.19 142.38C1392.45 142.66 1392.67 142.98 1392.83 143.36C1393.15 144.1 1393.17 144.54 1393.17 145.02V150.72H1394.71V152H1392.93C1391.97 152 1391.63 151.6 1391.57 150.82L1391.55 150.28H1391.43C1390.97 151.46 1389.57 152.2 1387.87 152.2C1385.77 152.2 1384.51 150.94 1384.51 149ZM1386.29 148.56V149.2C1386.29 150.24 1387.07 150.8 1388.27 150.8C1390.21 150.8 1391.45 149.52 1391.45 147.6V147.04H1388.47C1387.09 147.04 1386.29 147.66 1386.29 148.56ZM1398.61 152H1396.89V137.34H1398.61V152ZM1404.67 150.76L1400.33 141.56H1402.23L1403.75 144.98L1405.45 148.98H1405.57L1408.83 141.56H1410.73L1406.39 150.78V153.8C1406.39 154.82 1405.89 155.34 1404.87 155.34H1402.21V153.92H1404.67V150.76ZM1411.3 148.84H1413.02C1413.02 150.06 1414.02 150.84 1415.56 150.84C1417.02 150.84 1417.9 150.2 1417.9 149.1C1417.9 148.32 1417.44 147.84 1416.52 147.66L1414.28 147.24C1412.42 146.9 1411.5 145.98 1411.5 144.48C1411.5 142.54 1413.04 141.36 1415.44 141.36C1417.92 141.36 1419.42 142.62 1419.44 144.54H1417.72C1417.68 143.32 1416.92 142.7 1415.44 142.7C1414.02 142.7 1413.24 143.32 1413.24 144.3C1413.24 144.86 1413.48 145.26 1413.9 145.48C1414.32 145.66 1414.5 145.72 1414.92 145.8L1416.98 146.18C1418.8 146.5 1419.72 147.44 1419.72 149C1419.72 151 1418.1 152.2 1415.56 152.2C1412.92 152.2 1411.3 150.86 1411.3 148.84ZM1424 139.62H1422.28V137.34H1424V139.62ZM1424 152H1422.28V141.56H1424V152ZM1426.58 148.84H1428.3C1428.3 150.06 1429.3 150.84 1430.84 150.84C1432.3 150.84 1433.18 150.2 1433.18 149.1C1433.18 148.32 1432.72 147.84 1431.8 147.66L1429.56 147.24C1427.7 146.9 1426.78 145.98 1426.78 144.48C1426.78 142.54 1428.32 141.36 1430.72 141.36C1433.2 141.36 1434.7 142.62 1434.72 144.54H1433C1432.96 143.32 1432.2 142.7 1430.72 142.7C1429.3 142.7 1428.52 143.32 1428.52 144.3C1428.52 144.86 1428.76 145.26 1429.18 145.48C1429.6 145.66 1429.78 145.72 1430.2 145.8L1432.26 146.18C1434.08 146.5 1435 147.44 1435 149C1435 151 1433.38 152.2 1430.84 152.2C1428.2 152.2 1426.58 150.86 1426.58 148.84ZM1240.9 174.6V165.42H1242.7V174.44C1242.7 177 1244.26 178.52 1246.74 178.52C1249.22 178.52 1250.8 177 1250.8 174.44V165.42H1252.58V174.6C1252.58 176.3 1252.06 177.66 1251.02 178.68C1249.98 179.7 1248.56 180.2 1246.74 180.2C1244.9 180.2 1243.46 179.7 1242.44 178.68C1241.42 177.66 1240.9 176.3 1240.9 174.6ZM1256.26 180H1254.18L1258.82 172.62L1254.34 165.42H1256.42L1258.32 168.48L1260.08 171.52H1260.2L1262.12 168.34L1263.9 165.42H1265.98L1261.4 172.7L1265.98 180H1263.88L1262.14 177.26L1260.16 173.96H1260.04L1257.92 177.42L1256.26 180ZM1274.73 180H1272.91V165.42H1279.89C1282.71 165.42 1284.13 167.02 1284.13 169.76C1284.13 171.46 1283.31 172.76 1282.03 173.24V173.36H1282.81C1283.83 173.36 1284.17 173.86 1284.17 174.82V180H1282.35V174.38H1274.73V180ZM1274.73 167.04V172.8H1279.55C1281.23 172.8 1282.21 171.92 1282.21 170.56V169.26C1282.21 167.8 1281.21 167.04 1279.55 167.04H1274.73ZM1291.34 169.36C1294.2 169.36 1295.98 171.16 1295.98 174.06C1295.98 174.46 1295.96 174.82 1295.92 175.14H1288.22V175.74C1288.22 177.58 1289.48 178.8 1291.4 178.8C1292.86 178.8 1293.98 178.04 1294.32 176.86H1296.04C1295.82 177.88 1295.3 178.68 1294.44 179.3C1293.58 179.9 1292.56 180.2 1291.36 180.2C1288.32 180.2 1286.44 178.1 1286.44 174.74C1286.44 171.38 1288.32 169.36 1291.34 169.36ZM1288.22 173.58V173.86H1294.26V173.46C1294.26 171.84 1293.08 170.76 1291.34 170.76C1289.5 170.76 1288.22 171.9 1288.22 173.58ZM1297.77 176.84H1299.49C1299.49 178.06 1300.49 178.84 1302.03 178.84C1303.49 178.84 1304.37 178.2 1304.37 177.1C1304.37 176.32 1303.91 175.84 1302.99 175.66L1300.75 175.24C1298.89 174.9 1297.97 173.98 1297.97 172.48C1297.97 170.54 1299.51 169.36 1301.91 169.36C1304.39 169.36 1305.89 170.62 1305.91 172.54H1304.19C1304.15 171.32 1303.39 170.7 1301.91 170.7C1300.49 170.7 1299.71 171.32 1299.71 172.3C1299.71 172.86 1299.95 173.26 1300.37 173.48C1300.79 173.66 1300.97 173.72 1301.39 173.8L1303.45 174.18C1305.27 174.5 1306.19 175.44 1306.19 177C1306.19 179 1304.57 180.2 1302.03 180.2C1299.39 180.2 1297.77 178.86 1297.77 176.84ZM1312.94 169.36C1315.8 169.36 1317.58 171.16 1317.58 174.06C1317.58 174.46 1317.56 174.82 1317.52 175.14H1309.82V175.74C1309.82 177.58 1311.08 178.8 1313 178.8C1314.46 178.8 1315.58 178.04 1315.92 176.86H1317.64C1317.42 177.88 1316.9 178.68 1316.04 179.3C1315.18 179.9 1314.16 180.2 1312.96 180.2C1309.92 180.2 1308.04 178.1 1308.04 174.74C1308.04 171.38 1309.92 169.36 1312.94 169.36ZM1309.82 173.58V173.86H1315.86V173.46C1315.86 171.84 1314.68 170.76 1312.94 170.76C1311.1 170.76 1309.82 171.9 1309.82 173.58ZM1319.39 177C1319.39 174.94 1320.81 173.78 1323.19 173.78H1326.33V172.98C1326.33 171.48 1325.55 170.74 1323.97 170.74C1322.43 170.74 1321.59 171.48 1321.53 172.68H1319.83C1319.93 170.6 1321.53 169.36 1324.07 169.36C1325.45 169.36 1326.53 169.82 1327.07 170.38C1327.33 170.66 1327.55 170.98 1327.71 171.36C1328.03 172.1 1328.05 172.54 1328.05 173.02V178.72H1329.59V180H1327.81C1326.85 180 1326.51 179.6 1326.45 178.82L1326.43 178.28H1326.31C1325.85 179.46 1324.45 180.2 1322.75 180.2C1320.65 180.2 1319.39 178.94 1319.39 177ZM1321.17 176.56V177.2C1321.17 178.24 1321.95 178.8 1323.15 178.8C1325.09 178.8 1326.33 177.52 1326.33 175.6V175.04H1323.35C1321.97 175.04 1321.17 175.66 1321.17 176.56ZM1333.36 169.56H1336.98V171H1333.52V180H1331.78V171.1C1331.78 170.08 1332.3 169.56 1333.36 169.56ZM1345.51 176.44H1347.23C1346.89 178.76 1345.13 180.2 1342.59 180.2C1341.05 180.2 1339.83 179.72 1338.95 178.74C1338.07 177.76 1337.63 176.46 1337.63 174.8C1337.63 173.1 1338.09 171.76 1339.01 170.8C1339.93 169.84 1341.15 169.36 1342.65 169.36C1345.07 169.36 1346.83 170.78 1347.17 172.96H1345.45C1345.11 171.54 1344.01 170.82 1342.57 170.82C1340.71 170.82 1339.41 172.16 1339.41 174.08V175.66C1339.41 177.52 1340.67 178.76 1342.57 178.76C1344.11 178.76 1345.25 177.86 1345.51 176.44ZM1351.52 180H1349.78V165.34H1351.52V171.46H1351.64C1352.28 170.16 1353.62 169.36 1355.16 169.36C1357.42 169.36 1358.78 170.98 1358.78 173.56V180H1357.06V173.74C1357.06 171.8 1356.24 170.82 1354.58 170.82C1352.74 170.82 1351.52 172.26 1351.52 174.48V180ZM1239.96 203.5H1241.84C1241.86 205.6 1243.38 206.72 1245.72 206.72C1247.9 206.72 1249.28 205.7 1249.28 204.02C1249.28 203.14 1248.96 202.52 1248.34 202.2C1247.72 201.86 1247.52 201.8 1246.96 201.66L1244.4 201.08L1243.46 200.86C1243.24 200.8 1242.9 200.66 1242.44 200.46C1242 200.24 1241.64 200.02 1241.38 199.78C1240.88 199.3 1240.36 198.38 1240.36 197.26C1240.36 196 1240.82 195.02 1241.76 194.3C1242.7 193.58 1243.92 193.22 1245.46 193.22C1247.04 193.22 1248.3 193.6 1249.26 194.34C1250.22 195.08 1250.72 196.12 1250.74 197.44H1248.88C1248.78 195.68 1247.48 194.7 1245.46 194.7C1243.46 194.7 1242.26 195.64 1242.26 197.08C1242.26 197.86 1242.6 198.44 1243.22 198.78C1243.86 199.1 1244.22 199.2 1244.86 199.34L1247.6 199.94C1250 200.46 1251.2 201.76 1251.2 203.84C1251.2 205.22 1250.7 206.28 1249.68 207.06C1248.68 207.82 1247.34 208.2 1245.66 208.2C1243.82 208.2 1242.4 207.76 1241.42 206.88C1240.44 205.98 1239.96 204.86 1239.96 203.5ZM1263.12 208H1261.14L1257.7 202.84L1255.88 204.68V208H1254.14V193.34H1255.88V202.52L1260.7 197.56H1262.92L1258.9 201.64L1263.12 208ZM1268.84 197.36C1271.7 197.36 1273.48 199.16 1273.48 202.06C1273.48 202.46 1273.46 202.82 1273.42 203.14H1265.72V203.74C1265.72 205.58 1266.98 206.8 1268.9 206.8C1270.36 206.8 1271.48 206.04 1271.82 204.86H1273.54C1273.32 205.88 1272.8 206.68 1271.94 207.3C1271.08 207.9 1270.06 208.2 1268.86 208.2C1265.82 208.2 1263.94 206.1 1263.94 202.74C1263.94 199.38 1265.82 197.36 1268.84 197.36ZM1265.72 201.58V201.86H1271.76V201.46C1271.76 199.84 1270.58 198.76 1268.84 198.76C1267 198.76 1265.72 199.9 1265.72 201.58ZM1278.31 199V206.56H1280.51V208H1278.11C1277.09 208 1276.59 207.52 1276.59 206.54V199H1274.69V197.56H1276.59V194.1H1278.31V197.56H1280.49V199H1278.31ZM1289.97 204.44H1291.69C1291.35 206.76 1289.59 208.2 1287.05 208.2C1285.51 208.2 1284.29 207.72 1283.41 206.74C1282.53 205.76 1282.09 204.46 1282.09 202.8C1282.09 201.1 1282.55 199.76 1283.47 198.8C1284.39 197.84 1285.61 197.36 1287.11 197.36C1289.53 197.36 1291.29 198.78 1291.63 200.96H1289.91C1289.57 199.54 1288.47 198.82 1287.03 198.82C1285.17 198.82 1283.87 200.16 1283.87 202.08V203.66C1283.87 205.52 1285.13 206.76 1287.03 206.76C1288.57 206.76 1289.71 205.86 1289.97 204.44ZM1295.98 208H1294.24V193.34H1295.98V199.46H1296.1C1296.74 198.16 1298.08 197.36 1299.62 197.36C1301.88 197.36 1303.24 198.98 1303.24 201.56V208H1301.52V201.74C1301.52 199.8 1300.7 198.82 1299.04 198.82C1297.2 198.82 1295.98 200.26 1295.98 202.48V208ZM1310.62 197.36C1313.48 197.36 1315.26 199.16 1315.26 202.06C1315.26 202.46 1315.24 202.82 1315.2 203.14H1307.5V203.74C1307.5 205.58 1308.76 206.8 1310.68 206.8C1312.14 206.8 1313.26 206.04 1313.6 204.86H1315.32C1315.1 205.88 1314.58 206.68 1313.72 207.3C1312.86 207.9 1311.84 208.2 1310.64 208.2C1307.6 208.2 1305.72 206.1 1305.72 202.74C1305.72 199.38 1307.6 197.36 1310.62 197.36ZM1307.5 201.58V201.86H1313.54V201.46C1313.54 199.84 1312.36 198.76 1310.62 198.76C1308.78 198.76 1307.5 199.9 1307.5 201.58ZM1317.05 204.84H1318.77C1318.77 206.06 1319.77 206.84 1321.31 206.84C1322.77 206.84 1323.65 206.2 1323.65 205.1C1323.65 204.32 1323.19 203.84 1322.27 203.66L1320.03 203.24C1318.17 202.9 1317.25 201.98 1317.25 200.48C1317.25 198.54 1318.79 197.36 1321.19 197.36C1323.67 197.36 1325.17 198.62 1325.19 200.54H1323.47C1323.43 199.32 1322.67 198.7 1321.19 198.7C1319.77 198.7 1318.99 199.32 1318.99 200.3C1318.99 200.86 1319.23 201.26 1319.65 201.48C1320.07 201.66 1320.25 201.72 1320.67 201.8L1322.73 202.18C1324.55 202.5 1325.47 203.44 1325.47 205C1325.47 207 1323.85 208.2 1321.31 208.2C1318.67 208.2 1317.05 206.86 1317.05 204.84ZM1242.2 236L1239.24 221.42H1241.16L1242.86 230.1L1243.52 234H1243.66L1247.04 221.42H1249.5L1252.9 234H1253.02L1253.68 230.12L1255.36 221.42H1257.3L1254.32 236H1251.8L1248.32 223.4H1248.22L1244.74 236H1242.2ZM1261 223.62H1259.28V221.34H1261V223.62ZM1261 236H1259.28V225.56H1261V236ZM1266.05 225.56H1269.67V227H1266.21V236H1264.47V227.1C1264.47 226.08 1264.99 225.56 1266.05 225.56ZM1275.23 225.36C1278.09 225.36 1279.87 227.16 1279.87 230.06C1279.87 230.46 1279.85 230.82 1279.81 231.14H1272.11V231.74C1272.11 233.58 1273.37 234.8 1275.29 234.8C1276.75 234.8 1277.87 234.04 1278.21 232.86H1279.93C1279.71 233.88 1279.19 234.68 1278.33 235.3C1277.47 235.9 1276.45 236.2 1275.25 236.2C1272.21 236.2 1270.33 234.1 1270.33 230.74C1270.33 227.38 1272.21 225.36 1275.23 225.36ZM1272.11 229.58V229.86H1278.15V229.46C1278.15 227.84 1276.97 226.76 1275.23 226.76C1273.39 226.76 1272.11 227.9 1272.11 229.58ZM1287.56 222.76H1284.86V225.56H1287.12V227H1284.86V236H1283.14V227H1281.1V225.56H1283.14V222.78C1283.14 221.82 1283.7 221.34 1284.8 221.34H1287.56V222.76ZM1291.07 225.56H1294.69V227H1291.23V236H1289.49V227.1C1289.49 226.08 1290.01 225.56 1291.07 225.56ZM1295.29 233C1295.29 230.94 1296.71 229.78 1299.09 229.78H1302.23V228.98C1302.23 227.48 1301.45 226.74 1299.87 226.74C1298.33 226.74 1297.49 227.48 1297.43 228.68H1295.73C1295.83 226.6 1297.43 225.36 1299.97 225.36C1301.35 225.36 1302.43 225.82 1302.97 226.38C1303.23 226.66 1303.45 226.98 1303.61 227.36C1303.93 228.1 1303.95 228.54 1303.95 229.02V234.72H1305.49V236H1303.71C1302.75 236 1302.41 235.6 1302.35 234.82L1302.33 234.28H1302.21C1301.75 235.46 1300.35 236.2 1298.65 236.2C1296.55 236.2 1295.29 234.94 1295.29 233ZM1297.07 232.56V233.2C1297.07 234.24 1297.85 234.8 1299.05 234.8C1300.99 234.8 1302.23 233.52 1302.23 231.6V231.04H1299.25C1297.87 231.04 1297.07 231.66 1297.07 232.56ZM1309.41 236H1307.67V225.56H1309.17L1309.39 227.5H1309.55C1310.17 226.08 1311.23 225.36 1312.77 225.36C1314.31 225.36 1315.43 226.28 1315.83 227.64H1315.99C1316.61 226.12 1317.83 225.36 1319.41 225.36C1321.59 225.36 1322.89 226.86 1322.89 229.48V236H1321.15V229.7C1321.15 227.78 1320.39 226.82 1318.87 226.82C1317.13 226.82 1316.15 228.24 1316.15 230.46V236H1314.43V229.74C1314.43 227.8 1313.67 226.82 1312.17 226.82C1310.49 226.82 1309.41 228.28 1309.41 230.44V236ZM1327.93 223.62H1326.21V221.34H1327.93V223.62ZM1327.93 236H1326.21V225.56H1327.93V236ZM1333.14 236H1331.4V225.56H1332.92L1333.14 227.5H1333.28C1333.92 226.16 1335.22 225.36 1336.8 225.36C1339.06 225.36 1340.42 227 1340.42 229.58V236H1338.68V229.76C1338.68 227.86 1337.86 226.9 1336.22 226.9C1334.38 226.9 1333.14 228.36 1333.14 230.54V236ZM1346.31 233.96H1349.07C1351.07 233.96 1352.25 234.96 1352.25 236.58C1352.25 238.58 1350.37 239.62 1347.23 239.62C1344.21 239.62 1342.75 238.66 1342.75 237.12C1342.75 236.06 1343.29 235.36 1344.35 235.02V234.88C1343.73 234.66 1343.33 234.1 1343.33 233.46C1343.33 232.66 1343.89 231.98 1344.71 231.74V231.62C1343.69 231 1343.19 230.06 1343.19 228.82C1343.19 227.8 1343.55 226.96 1344.27 226.32C1345.01 225.68 1345.95 225.36 1347.09 225.36C1347.81 225.36 1348.43 225.48 1348.97 225.7V225.36C1348.97 224.52 1349.45 224.1 1350.41 224.1H1352.11V225.52H1350.13V226.44C1350.77 227.08 1351.09 227.9 1351.09 228.88C1351.09 229.9 1350.73 230.72 1350.01 231.34C1349.31 231.96 1348.39 232.28 1347.27 232.28C1346.73 232.28 1346.25 232.22 1345.83 232.1C1345.25 232.2 1344.91 232.6 1344.91 233.06C1344.91 233.66 1345.37 233.96 1346.31 233.96ZM1344.91 228.48V229.2C1344.91 230.3 1345.79 231.04 1347.15 231.04C1348.49 231.04 1349.39 230.3 1349.39 229.2V228.48C1349.39 227.38 1348.49 226.62 1347.15 226.62C1345.81 226.62 1344.91 227.36 1344.91 228.48ZM1347.33 238.32C1349.47 238.32 1350.53 237.76 1350.53 236.66C1350.53 235.84 1349.99 235.42 1348.93 235.42H1346.09C1344.95 235.42 1344.37 235.88 1344.37 236.78C1344.37 237.8 1345.35 238.32 1347.33 238.32ZM1242.84 264H1241.02V249.42H1247.36C1250.4 249.42 1251.92 251.14 1251.92 254.02C1251.92 256.98 1250.32 258.68 1247.36 258.68H1242.84V264ZM1242.84 251.1V257.08H1247.28C1249.02 257.08 1250 256.18 1250 254.74V253.28C1250 251.9 1249.02 251.1 1247.5 251.1H1242.84ZM1255.82 253.56H1259.44V255H1255.98V264H1254.24V255.1C1254.24 254.08 1254.76 253.56 1255.82 253.56ZM1260.09 258.78C1260.09 257.1 1260.55 255.78 1261.47 254.82C1262.39 253.84 1263.61 253.36 1265.11 253.36C1266.61 253.36 1267.83 253.84 1268.73 254.8C1269.65 255.76 1270.11 257.08 1270.11 258.78C1270.11 262.08 1268.25 264.2 1265.11 264.2C1263.55 264.2 1262.33 263.72 1261.43 262.74C1260.53 261.76 1260.09 260.44 1260.09 258.78ZM1261.87 258.02V259.64C1261.87 261.62 1263.27 262.76 1265.11 262.76C1266.97 262.76 1268.35 261.58 1268.35 259.64V258.02C1268.35 256.1 1267.01 254.82 1265.11 254.82C1264.17 254.82 1263.39 255.12 1262.77 255.72C1262.17 256.3 1261.87 257.08 1261.87 258.02ZM1274.89 255V262.56H1277.09V264H1274.69C1273.67 264 1273.17 263.52 1273.17 262.54V255H1271.27V253.56H1273.17V250.1H1274.89V253.56H1277.07V255H1274.89ZM1278.67 258.78C1278.67 257.1 1279.13 255.78 1280.05 254.82C1280.97 253.84 1282.19 253.36 1283.69 253.36C1285.19 253.36 1286.41 253.84 1287.31 254.8C1288.23 255.76 1288.69 257.08 1288.69 258.78C1288.69 262.08 1286.83 264.2 1283.69 264.2C1282.13 264.2 1280.91 263.72 1280.01 262.74C1279.11 261.76 1278.67 260.44 1278.67 258.78ZM1280.45 258.02V259.64C1280.45 261.62 1281.85 262.76 1283.69 262.76C1285.55 262.76 1286.93 261.58 1286.93 259.64V258.02C1286.93 256.1 1285.59 254.82 1283.69 254.82C1282.75 254.82 1281.97 255.12 1281.35 255.72C1280.75 256.3 1280.45 257.08 1280.45 258.02ZM1293.47 255V262.56H1295.67V264H1293.27C1292.25 264 1291.75 263.52 1291.75 262.54V255H1289.85V253.56H1291.75V250.1H1293.47V253.56H1295.65V255H1293.47ZM1300.8 262.76L1296.46 253.56H1298.36L1299.88 256.98L1301.58 260.98H1301.7L1304.96 253.56H1306.86L1302.52 262.78V265.8C1302.52 266.82 1302.02 267.34 1301 267.34H1298.34V265.92H1300.8V262.76ZM1310.31 267.34H1308.57V253.56H1310.13L1310.31 255.4H1310.43C1311.13 254.1 1312.47 253.36 1314.17 253.36C1316.89 253.36 1318.51 255.32 1318.51 258.7C1318.51 262.12 1316.89 264.06 1314.17 264.06C1312.41 264.06 1311.09 263.3 1310.43 262.02H1310.31V267.34ZM1313.69 262.6C1315.55 262.6 1316.73 261.5 1316.73 259.76V257.66C1316.73 255.92 1315.55 254.8 1313.69 254.8C1311.67 254.8 1310.31 256.12 1310.31 258.06V259.36C1310.31 261.3 1311.67 262.6 1313.69 262.6ZM1322.85 251.62H1321.13V249.34H1322.85V251.62ZM1322.85 264H1321.13V253.56H1322.85V264ZM1328.07 264H1326.33V253.56H1327.85L1328.07 255.5H1328.21C1328.85 254.16 1330.15 253.36 1331.73 253.36C1333.99 253.36 1335.35 255 1335.35 257.58V264H1333.61V257.76C1333.61 255.86 1332.79 254.9 1331.15 254.9C1329.31 254.9 1328.07 256.36 1328.07 258.54V264ZM1341.23 261.96H1343.99C1345.99 261.96 1347.17 262.96 1347.17 264.58C1347.17 266.58 1345.29 267.62 1342.15 267.62C1339.13 267.62 1337.67 266.66 1337.67 265.12C1337.67 264.06 1338.21 263.36 1339.27 263.02V262.88C1338.65 262.66 1338.25 262.1 1338.25 261.46C1338.25 260.66 1338.81 259.98 1339.63 259.74V259.62C1338.61 259 1338.11 258.06 1338.11 256.82C1338.11 255.8 1338.47 254.96 1339.19 254.32C1339.93 253.68 1340.87 253.36 1342.01 253.36C1342.73 253.36 1343.35 253.48 1343.89 253.7V253.36C1343.89 252.52 1344.37 252.1 1345.33 252.1H1347.03V253.52H1345.05V254.44C1345.69 255.08 1346.01 255.9 1346.01 256.88C1346.01 257.9 1345.65 258.72 1344.93 259.34C1344.23 259.96 1343.31 260.28 1342.19 260.28C1341.65 260.28 1341.17 260.22 1340.75 260.1C1340.17 260.2 1339.83 260.6 1339.83 261.06C1339.83 261.66 1340.29 261.96 1341.23 261.96ZM1339.83 256.48V257.2C1339.83 258.3 1340.71 259.04 1342.07 259.04C1343.41 259.04 1344.31 258.3 1344.31 257.2V256.48C1344.31 255.38 1343.41 254.62 1342.07 254.62C1340.73 254.62 1339.83 255.36 1339.83 256.48ZM1342.25 266.32C1344.39 266.32 1345.45 265.76 1345.45 264.66C1345.45 263.84 1344.91 263.42 1343.85 263.42H1341.01C1339.87 263.42 1339.29 263.88 1339.29 264.78C1339.29 265.8 1340.27 266.32 1342.25 266.32ZM1240.9 286.6V277.42H1242.7V286.44C1242.7 289 1244.26 290.52 1246.74 290.52C1249.22 290.52 1250.8 289 1250.8 286.44V277.42H1252.58V286.6C1252.58 288.3 1252.06 289.66 1251.02 290.68C1249.98 291.7 1248.56 292.2 1246.74 292.2C1244.9 292.2 1243.46 291.7 1242.44 290.68C1241.42 289.66 1240.9 288.3 1240.9 286.6ZM1255.35 288.84H1257.07C1257.07 290.06 1258.07 290.84 1259.61 290.84C1261.07 290.84 1261.95 290.2 1261.95 289.1C1261.95 288.32 1261.49 287.84 1260.57 287.66L1258.33 287.24C1256.47 286.9 1255.55 285.98 1255.55 284.48C1255.55 282.54 1257.09 281.36 1259.49 281.36C1261.97 281.36 1263.47 282.62 1263.49 284.54H1261.77C1261.73 283.32 1260.97 282.7 1259.49 282.7C1258.07 282.7 1257.29 283.32 1257.29 284.3C1257.29 284.86 1257.53 285.26 1257.95 285.48C1258.37 285.66 1258.55 285.72 1258.97 285.8L1261.03 286.18C1262.85 286.5 1263.77 287.44 1263.77 289C1263.77 291 1262.15 292.2 1259.61 292.2C1256.97 292.2 1255.35 290.86 1255.35 288.84ZM1270.52 281.36C1273.38 281.36 1275.16 283.16 1275.16 286.06C1275.16 286.46 1275.14 286.82 1275.1 287.14H1267.4V287.74C1267.4 289.58 1268.66 290.8 1270.58 290.8C1272.04 290.8 1273.16 290.04 1273.5 288.86H1275.22C1275 289.88 1274.48 290.68 1273.62 291.3C1272.76 291.9 1271.74 292.2 1270.54 292.2C1267.5 292.2 1265.62 290.1 1265.62 286.74C1265.62 283.38 1267.5 281.36 1270.52 281.36ZM1267.4 285.58V285.86H1273.44V285.46C1273.44 283.84 1272.26 282.76 1270.52 282.76C1268.68 282.76 1267.4 283.9 1267.4 285.58ZM1279.43 281.56H1283.05V283H1279.59V292H1277.85V283.1C1277.85 282.08 1278.37 281.56 1279.43 281.56ZM1288.08 277.42H1298.96V279.06H1294.44V292H1292.64V279.06H1288.08V277.42ZM1302.87 281.36C1305.73 281.36 1307.51 283.16 1307.51 286.06C1307.51 286.46 1307.49 286.82 1307.45 287.14H1299.75V287.74C1299.75 289.58 1301.01 290.8 1302.93 290.8C1304.39 290.8 1305.51 290.04 1305.85 288.86H1307.57C1307.35 289.88 1306.83 290.68 1305.97 291.3C1305.11 291.9 1304.09 292.2 1302.89 292.2C1299.85 292.2 1297.97 290.1 1297.97 286.74C1297.97 283.38 1299.85 281.36 1302.87 281.36ZM1299.75 285.58V285.86H1305.79V285.46C1305.79 283.84 1304.61 282.76 1302.87 282.76C1301.03 282.76 1299.75 283.9 1299.75 285.58ZM1309.29 288.84H1311.01C1311.01 290.06 1312.01 290.84 1313.55 290.84C1315.01 290.84 1315.89 290.2 1315.89 289.1C1315.89 288.32 1315.43 287.84 1314.51 287.66L1312.27 287.24C1310.41 286.9 1309.49 285.98 1309.49 284.48C1309.49 282.54 1311.03 281.36 1313.43 281.36C1315.91 281.36 1317.41 282.62 1317.43 284.54H1315.71C1315.67 283.32 1314.91 282.7 1313.43 282.7C1312.01 282.7 1311.23 283.32 1311.23 284.3C1311.23 284.86 1311.47 285.26 1311.89 285.48C1312.31 285.66 1312.49 285.72 1312.91 285.8L1314.97 286.18C1316.79 286.5 1317.71 287.44 1317.71 289C1317.71 291 1316.09 292.2 1313.55 292.2C1310.91 292.2 1309.29 290.86 1309.29 288.84ZM1327.05 279.8V277.52H1328.77V279.8H1327.05ZM1322.41 281.56H1328.77V292H1327.05V283H1322.41V290.56H1324.57V292H1322.29C1321.17 292 1320.73 291.48 1320.71 290.46V283H1318.79V281.56H1320.71V278.1H1322.41V281.56ZM1333.98 292H1332.24V281.56H1333.76L1333.98 283.5H1334.12C1334.76 282.16 1336.06 281.36 1337.64 281.36C1339.9 281.36 1341.26 283 1341.26 285.58V292H1339.52V285.76C1339.52 283.86 1338.7 282.9 1337.06 282.9C1335.22 282.9 1333.98 284.36 1333.98 286.54V292ZM1347.15 289.96H1349.91C1351.91 289.96 1353.09 290.96 1353.09 292.58C1353.09 294.58 1351.21 295.62 1348.07 295.62C1345.05 295.62 1343.59 294.66 1343.59 293.12C1343.59 292.06 1344.13 291.36 1345.19 291.02V290.88C1344.57 290.66 1344.17 290.1 1344.17 289.46C1344.17 288.66 1344.73 287.98 1345.55 287.74V287.62C1344.53 287 1344.03 286.06 1344.03 284.82C1344.03 283.8 1344.39 282.96 1345.11 282.32C1345.85 281.68 1346.79 281.36 1347.93 281.36C1348.65 281.36 1349.27 281.48 1349.81 281.7V281.36C1349.81 280.52 1350.29 280.1 1351.25 280.1H1352.95V281.52H1350.97V282.44C1351.61 283.08 1351.93 283.9 1351.93 284.88C1351.93 285.9 1351.57 286.72 1350.85 287.34C1350.15 287.96 1349.23 288.28 1348.11 288.28C1347.57 288.28 1347.09 288.22 1346.67 288.1C1346.09 288.2 1345.75 288.6 1345.75 289.06C1345.75 289.66 1346.21 289.96 1347.15 289.96ZM1345.75 284.48V285.2C1345.75 286.3 1346.63 287.04 1347.99 287.04C1349.33 287.04 1350.23 286.3 1350.23 285.2V284.48C1350.23 283.38 1349.33 282.62 1347.99 282.62C1346.65 282.62 1345.75 283.36 1345.75 284.48ZM1348.17 294.32C1350.31 294.32 1351.37 293.76 1351.37 292.66C1351.37 291.84 1350.83 291.42 1349.77 291.42H1346.93C1345.79 291.42 1345.21 291.88 1345.21 292.78C1345.21 293.8 1346.19 294.32 1348.17 294.32Z" fill="white"/>
<path d="M1609.15 85.7749H1623.17V89.2783H1618.16V104H1614.13V89.2783H1609.15V85.7749ZM1628.7 89.1196H1624.91V85.3965H1628.7V89.1196ZM1628.7 104H1624.91V90.5967H1628.7V104ZM1635.61 104H1631.81V90.5967H1635.14L1635.59 93.0747H1635.84C1636.58 91.2599 1637.86 90.3525 1639.66 90.3525C1641.6 90.3525 1642.88 91.2681 1643.51 93.0991H1643.79C1644.56 91.2681 1645.95 90.3525 1647.96 90.3525C1649.4 90.3525 1650.49 90.8449 1651.24 91.8296C1651.99 92.8062 1652.36 94.1693 1652.36 95.9189V104H1648.54V96.3462C1648.54 94.4175 1647.85 93.4531 1646.46 93.4531C1645.67 93.4531 1645.06 93.7298 1644.63 94.2832C1644.2 94.8285 1643.99 95.5771 1643.99 96.5293V104H1640.16V96.2974C1640.16 94.4012 1639.47 93.4531 1638.09 93.4531C1637.33 93.4531 1636.73 93.7217 1636.28 94.2588C1635.84 94.7959 1635.61 95.5161 1635.61 96.4194V104ZM1654.5 97.2983C1654.5 95.1336 1655.09 93.4328 1656.28 92.1958C1657.48 90.967 1659.08 90.3525 1661.08 90.3525C1662.99 90.3525 1664.51 90.91 1665.65 92.0249C1666.82 93.1154 1667.4 94.625 1667.4 96.5537C1667.4 97.0827 1667.37 97.6239 1667.3 98.1772H1658.4V98.8975C1658.4 99.6299 1658.65 100.224 1659.15 100.68C1659.64 101.127 1660.29 101.351 1661.1 101.351C1661.76 101.351 1662.32 101.213 1662.78 100.936C1663.26 100.651 1663.57 100.273 1663.72 99.8008H1667.5C1667.22 101.144 1666.51 102.226 1665.37 103.048C1664.23 103.845 1662.82 104.244 1661.12 104.244C1659.05 104.244 1657.43 103.622 1656.25 102.376C1655.08 101.131 1654.5 99.4386 1654.5 97.2983ZM1658.4 95.4795V95.6748H1663.6V95.4307C1663.6 94.7796 1663.36 94.2547 1662.88 93.856C1662.41 93.4491 1661.79 93.2456 1661.03 93.2456C1660.24 93.2456 1659.6 93.4531 1659.12 93.8682C1658.64 94.2751 1658.4 94.8122 1658.4 95.4795ZM1673.58 104H1669.78V85.3965H1673.58V104ZM1680.48 89.1196H1676.69V85.3965H1680.48V89.1196ZM1680.48 104H1676.69V90.5967H1680.48V104ZM1687.39 104H1683.6V90.5967H1686.94L1687.39 93.0747H1687.63C1688.47 91.2599 1689.94 90.3525 1692.02 90.3525C1693.51 90.3525 1694.65 90.849 1695.44 91.8418C1696.23 92.8346 1696.62 94.214 1696.62 95.98V104H1692.8V96.3706C1692.8 94.4582 1691.98 93.502 1690.35 93.502C1689.44 93.502 1688.72 93.8112 1688.19 94.4297C1687.66 95.0482 1687.39 95.8783 1687.39 96.9199V104ZM1698.73 97.2983C1698.73 95.1336 1699.33 93.4328 1700.52 92.1958C1701.72 90.967 1703.32 90.3525 1705.31 90.3525C1707.23 90.3525 1708.75 90.91 1709.89 92.0249C1711.05 93.1154 1711.64 94.625 1711.64 96.5537C1711.64 97.0827 1711.6 97.6239 1711.54 98.1772H1702.64V98.8975C1702.64 99.6299 1702.89 100.224 1703.38 100.68C1703.88 101.127 1704.53 101.351 1705.34 101.351C1706 101.351 1706.56 101.213 1707.02 100.936C1707.49 100.651 1707.81 100.273 1707.96 99.8008H1711.73C1711.46 101.144 1710.75 102.226 1709.61 103.048C1708.47 103.845 1707.06 104.244 1705.36 104.244C1703.29 104.244 1701.66 103.622 1700.49 102.376C1699.32 101.131 1698.73 99.4386 1698.73 97.2983ZM1702.64 95.4795V95.6748H1707.84V95.4307C1707.84 94.7796 1707.6 94.2547 1707.12 93.856C1706.65 93.4491 1706.03 93.2456 1705.26 93.2456C1704.48 93.2456 1703.84 93.4531 1703.36 93.8682C1702.88 94.2751 1702.64 94.8122 1702.64 95.4795Z" fill="#FF8080"/>
<path d="M1613.58 141.4H1609.96V140.04H1610.52C1612.38 140.04 1613.64 139.08 1613.7 137.58H1615.32V152H1613.58V141.4ZM1624.44 137.4C1627.78 137.4 1629.4 139.82 1629.4 144.8C1629.4 149.78 1627.78 152.2 1624.44 152.2C1621.12 152.2 1619.46 149.74 1619.46 144.8C1619.46 139.86 1621.12 137.4 1624.44 137.4ZM1621.4 142.64V146.96C1621.4 149.36 1622.56 150.64 1624.42 150.64C1626.26 150.64 1627.46 149.38 1627.46 146.96V142.64C1627.46 140.22 1626.26 138.96 1624.42 138.96C1622.56 138.96 1621.4 140.24 1621.4 142.64ZM1646.79 147.16L1648.23 141.56H1650.05L1647.13 152H1644.87L1643.53 146.64L1642.85 143.68H1642.73L1642.09 146.64L1640.81 152H1638.51L1635.57 141.56H1637.45L1638.91 147.1L1639.59 150.28H1639.73L1641.77 141.56H1643.87L1646.01 150.24H1646.11L1646.79 147.16ZM1655.99 141.36C1658.85 141.36 1660.63 143.16 1660.63 146.06C1660.63 146.46 1660.61 146.82 1660.57 147.14H1652.87V147.74C1652.87 149.58 1654.13 150.8 1656.05 150.8C1657.51 150.8 1658.63 150.04 1658.97 148.86H1660.69C1660.47 149.88 1659.95 150.68 1659.09 151.3C1658.23 151.9 1657.21 152.2 1656.01 152.2C1652.97 152.2 1651.09 150.1 1651.09 146.74C1651.09 143.38 1652.97 141.36 1655.99 141.36ZM1652.87 145.58V145.86H1658.91V145.46C1658.91 143.84 1657.73 142.76 1655.99 142.76C1654.15 142.76 1652.87 143.9 1652.87 145.58ZM1667.55 141.36C1670.41 141.36 1672.19 143.16 1672.19 146.06C1672.19 146.46 1672.17 146.82 1672.13 147.14H1664.43V147.74C1664.43 149.58 1665.69 150.8 1667.61 150.8C1669.07 150.8 1670.19 150.04 1670.53 148.86H1672.25C1672.03 149.88 1671.51 150.68 1670.65 151.3C1669.79 151.9 1668.77 152.2 1667.57 152.2C1664.53 152.2 1662.65 150.1 1662.65 146.74C1662.65 143.38 1664.53 141.36 1667.55 141.36ZM1664.43 145.58V145.86H1670.47V145.46C1670.47 143.84 1669.29 142.76 1667.55 142.76C1665.71 142.76 1664.43 143.9 1664.43 145.58ZM1683.86 152H1681.88L1678.44 146.84L1676.62 148.68V152H1674.88V137.34H1676.62V146.52L1681.44 141.56H1683.66L1679.64 145.64L1683.86 152ZM1684.59 148.84H1686.31C1686.31 150.06 1687.31 150.84 1688.85 150.84C1690.31 150.84 1691.19 150.2 1691.19 149.1C1691.19 148.32 1690.73 147.84 1689.81 147.66L1687.57 147.24C1685.71 146.9 1684.79 145.98 1684.79 144.48C1684.79 142.54 1686.33 141.36 1688.73 141.36C1691.21 141.36 1692.71 142.62 1692.73 144.54H1691.01C1690.97 143.32 1690.21 142.7 1688.73 142.7C1687.31 142.7 1686.53 143.32 1686.53 144.3C1686.53 144.86 1686.77 145.26 1687.19 145.48C1687.61 145.66 1687.79 145.72 1688.21 145.8L1690.27 146.18C1692.09 146.5 1693.01 147.44 1693.01 149C1693.01 151 1691.39 152.2 1688.85 152.2C1686.21 152.2 1684.59 150.86 1684.59 148.84Z" fill="white"/>
<path d="M138.497 104.244C135.779 104.244 133.663 103.414 132.149 101.754C130.619 100.077 129.854 97.8029 129.854 94.9302C129.854 92.0005 130.636 89.7056 132.198 88.0454C133.761 86.3853 135.93 85.5552 138.705 85.5552C141.065 85.5552 142.989 86.1615 144.479 87.374C145.992 88.5866 146.834 90.2101 147.005 92.2446H142.794C142.599 91.2599 142.135 90.4868 141.402 89.9253C140.67 89.3556 139.718 89.0708 138.546 89.0708C137.203 89.0708 136.129 89.4655 135.323 90.2549C134.526 91.0361 134.127 92.1022 134.127 93.4531V96.4805C134.127 97.75 134.522 98.7754 135.311 99.5566C136.109 100.338 137.179 100.729 138.521 100.729C139.62 100.729 140.552 100.444 141.317 99.874C142.09 99.2962 142.582 98.5068 142.794 97.5059H147.005C146.786 99.5485 145.89 101.188 144.32 102.425C142.806 103.638 140.865 104.244 138.497 104.244ZM148.568 97.2983C148.568 95.1662 149.17 93.4735 150.375 92.2202C151.571 90.9751 153.202 90.3525 155.27 90.3525C157.296 90.3525 158.924 90.967 160.152 92.1958C161.381 93.4246 161.996 95.1255 161.996 97.2983C161.996 99.4142 161.397 101.107 160.201 102.376C159.005 103.622 157.361 104.244 155.27 104.244C153.251 104.244 151.628 103.63 150.399 102.401C149.178 101.156 148.568 99.4549 148.568 97.2983ZM152.45 96.2729V98.3726C152.45 99.2515 152.702 99.9351 153.207 100.423C153.719 100.912 154.407 101.156 155.27 101.156C156.165 101.156 156.865 100.916 157.369 100.436C157.874 99.9473 158.126 99.2596 158.126 98.3726V96.2729C158.126 95.3778 157.87 94.686 157.357 94.1978C156.852 93.7013 156.157 93.4531 155.27 93.4531C154.382 93.4531 153.691 93.7013 153.194 94.1978C152.698 94.6942 152.45 95.3859 152.45 96.2729ZM168.062 104H164.266V90.5967H167.611L168.062 93.0747H168.294C169.141 91.2599 170.606 90.3525 172.689 90.3525C174.178 90.3525 175.318 90.849 176.107 91.8418C176.896 92.8346 177.291 94.214 177.291 95.98V104H173.47V96.3706C173.47 94.4582 172.652 93.502 171.017 93.502C170.105 93.502 169.385 93.8112 168.856 94.4297C168.327 95.0482 168.062 95.8783 168.062 96.9199V104ZM187.557 93.6729H184.908V100.997H187.557V104H184.115C182.113 104 181.112 103.015 181.112 101.046V93.6729H178.731V90.5967H181.112V86.3975H184.908V90.5967H187.557V93.6729ZM188.851 97.2983C188.851 95.1336 189.445 93.4328 190.633 92.1958C191.838 90.967 193.437 90.3525 195.431 90.3525C197.343 90.3525 198.869 90.91 200.008 92.0249C201.172 93.1154 201.754 94.625 201.754 96.5537C201.754 97.0827 201.721 97.6239 201.656 98.1772H192.757V98.8975C192.757 99.6299 193.006 100.224 193.502 100.68C193.998 101.127 194.649 101.351 195.455 101.351C196.114 101.351 196.676 101.213 197.14 100.936C197.612 100.651 197.925 100.273 198.08 99.8008H201.852C201.575 101.144 200.867 102.226 199.728 103.048C198.588 103.845 197.172 104.244 195.479 104.244C193.404 104.244 191.781 103.622 190.609 102.376C189.437 101.131 188.851 99.4386 188.851 97.2983ZM192.757 95.4795V95.6748H197.958V95.4307C197.958 94.7796 197.717 94.2547 197.237 93.856C196.765 93.4491 196.147 93.2456 195.382 93.2456C194.592 93.2456 193.958 93.4531 193.478 93.8682C192.997 94.2751 192.757 94.8122 192.757 95.4795ZM206.075 104H202.071L206.075 97.3228L201.998 90.5967H206.026L208.602 95.1011H208.797L211.275 90.5967H215.267L211.324 97.2251L215.426 104H211.373L208.797 99.4712H208.602L206.075 104ZM224.422 93.6729H221.773V100.997H224.422V104H220.98C218.978 104 217.977 103.015 217.977 101.046V93.6729H215.597V90.5967H217.977V86.3975H221.773V90.5967H224.422V93.6729Z" fill="#FF8080"/>
<path d="M132.84 152H131.02V137.42H137.36C140.4 137.42 141.92 139.14 141.92 142.02C141.92 144.98 140.32 146.68 137.36 146.68H132.84V152ZM132.84 139.1V145.08H137.28C139.02 145.08 140 144.18 140 142.74V141.28C140 139.9 139.02 139.1 137.5 139.1H132.84ZM145.816 141.56H149.436V143H145.976V152H144.236V143.1C144.236 142.08 144.756 141.56 145.816 141.56ZM150.095 146.78C150.095 145.1 150.555 143.78 151.475 142.82C152.395 141.84 153.615 141.36 155.115 141.36C156.615 141.36 157.835 141.84 158.735 142.8C159.655 143.76 160.115 145.08 160.115 146.78C160.115 150.08 158.255 152.2 155.115 152.2C153.555 152.2 152.335 151.72 151.435 150.74C150.535 149.76 150.095 148.44 150.095 146.78ZM151.875 146.02V147.64C151.875 149.62 153.275 150.76 155.115 150.76C156.975 150.76 158.355 149.58 158.355 147.64V146.02C158.355 144.1 157.015 142.82 155.115 142.82C154.175 142.82 153.395 143.12 152.775 143.72C152.175 144.3 151.875 145.08 151.875 146.02ZM166.427 152.2C163.707 152.2 162.087 150.24 162.087 146.86C162.087 143.44 163.707 141.5 166.427 141.5C168.187 141.5 169.507 142.26 170.167 143.54H170.287V137.34H172.027V152H170.467L170.287 150.18H170.167C169.447 151.52 168.207 152.2 166.427 152.2ZM166.907 150.76C168.927 150.76 170.287 149.44 170.287 147.5V146.2C170.287 144.26 168.927 142.96 166.907 142.96C165.047 142.96 163.867 144.06 163.867 145.8V147.9C163.867 149.64 165.047 150.76 166.907 150.76ZM182.506 141.56H184.246V152H182.766L182.526 150.06H182.366C181.806 151.36 180.446 152.2 178.826 152.2C176.666 152.2 175.366 150.76 175.366 148.22V141.56H177.086V147.98C177.086 149.82 177.866 150.74 179.406 150.74C181.306 150.74 182.506 149.24 182.506 147.02V141.56ZM194.752 148.44H196.472C196.132 150.76 194.372 152.2 191.832 152.2C190.292 152.2 189.072 151.72 188.192 150.74C187.312 149.76 186.872 148.46 186.872 146.8C186.872 145.1 187.332 143.76 188.252 142.8C189.172 141.84 190.392 141.36 191.892 141.36C194.312 141.36 196.072 142.78 196.412 144.96H194.692C194.352 143.54 193.252 142.82 191.812 142.82C189.952 142.82 188.652 144.16 188.652 146.08V147.66C188.652 149.52 189.912 150.76 191.812 150.76C193.352 150.76 194.492 149.86 194.752 148.44ZM201.161 143V150.56H203.361V152H200.961C199.941 152 199.441 151.52 199.441 150.54V143H197.541V141.56H199.441V138.1H201.161V141.56H203.341V143H201.161ZM216.764 152H210.864V137.42H216.764C221.104 137.42 222.884 139.92 222.884 144.72C222.884 149.54 221.084 152 216.764 152ZM212.684 139.08V150.34H216.744C219.624 150.34 220.964 149.02 220.964 145.92V143.52C220.964 140.38 219.564 139.08 216.744 139.08H212.684ZM229.8 141.36C232.66 141.36 234.44 143.16 234.44 146.06C234.44 146.46 234.42 146.82 234.38 147.14H226.68V147.74C226.68 149.58 227.94 150.8 229.86 150.8C231.32 150.8 232.44 150.04 232.78 148.86H234.5C234.28 149.88 233.76 150.68 232.9 151.3C232.04 151.9 231.02 152.2 229.82 152.2C226.78 152.2 224.9 150.1 224.9 146.74C224.9 143.38 226.78 141.36 229.8 141.36ZM226.68 145.58V145.86H232.72V145.46C232.72 143.84 231.54 142.76 229.8 142.76C227.96 142.76 226.68 143.9 226.68 145.58ZM236.227 148.84H237.947C237.947 150.06 238.947 150.84 240.487 150.84C241.947 150.84 242.827 150.2 242.827 149.1C242.827 148.32 242.367 147.84 241.447 147.66L239.207 147.24C237.347 146.9 236.427 145.98 236.427 144.48C236.427 142.54 237.967 141.36 240.367 141.36C242.847 141.36 244.347 142.62 244.367 144.54H242.647C242.607 143.32 241.847 142.7 240.367 142.7C238.947 142.7 238.167 143.32 238.167 144.3C238.167 144.86 238.407 145.26 238.827 145.48C239.247 145.66 239.427 145.72 239.847 145.8L241.907 146.18C243.727 146.5 244.647 147.44 244.647 149C244.647 151 243.027 152.2 240.487 152.2C237.847 152.2 236.227 150.86 236.227 148.84ZM248.925 139.62H247.205V137.34H248.925V139.62ZM248.925 152H247.205V141.56H248.925V152ZM254.94 149.96H257.7C259.7 149.96 260.88 150.96 260.88 152.58C260.88 154.58 259 155.62 255.86 155.62C252.84 155.62 251.38 154.66 251.38 153.12C251.38 152.06 251.92 151.36 252.98 151.02V150.88C252.36 150.66 251.96 150.1 251.96 149.46C251.96 148.66 252.52 147.98 253.34 147.74V147.62C252.32 147 251.82 146.06 251.82 144.82C251.82 143.8 252.18 142.96 252.9 142.32C253.64 141.68 254.58 141.36 255.72 141.36C256.44 141.36 257.06 141.48 257.6 141.7V141.36C257.6 140.52 258.08 140.1 259.04 140.1H260.74V141.52H258.76V142.44C259.4 143.08 259.72 143.9 259.72 144.88C259.72 145.9 259.36 146.72 258.64 147.34C257.94 147.96 257.02 148.28 255.9 148.28C255.36 148.28 254.88 148.22 254.46 148.1C253.88 148.2 253.54 148.6 253.54 149.06C253.54 149.66 254 149.96 254.94 149.96ZM253.54 144.48V145.2C253.54 146.3 254.42 147.04 255.78 147.04C257.12 147.04 258.02 146.3 258.02 145.2V144.48C258.02 143.38 257.12 142.62 255.78 142.62C254.44 142.62 253.54 143.36 253.54 144.48ZM255.96 154.32C258.1 154.32 259.16 153.76 259.16 152.66C259.16 151.84 258.62 151.42 257.56 151.42H254.72C253.58 151.42 253 151.88 253 152.78C253 153.8 253.98 154.32 255.96 154.32ZM264.765 152H263.025V141.56H264.545L264.765 143.5H264.905C265.545 142.16 266.845 141.36 268.425 141.36C270.685 141.36 272.045 143 272.045 145.58V152H270.305V145.76C270.305 143.86 269.485 142.9 267.845 142.9C266.005 142.9 264.765 144.36 264.765 146.54V152ZM279.428 141.36C282.288 141.36 284.068 143.16 284.068 146.06C284.068 146.46 284.048 146.82 284.008 147.14H276.308V147.74C276.308 149.58 277.568 150.8 279.488 150.8C280.948 150.8 282.068 150.04 282.408 148.86H284.128C283.908 149.88 283.388 150.68 282.528 151.3C281.668 151.9 280.648 152.2 279.448 152.2C276.408 152.2 274.528 150.1 274.528 146.74C274.528 143.38 276.408 141.36 279.428 141.36ZM276.308 145.58V145.86H282.348V145.46C282.348 143.84 281.168 142.76 279.428 142.76C277.588 142.76 276.308 143.9 276.308 145.58ZM288.336 141.56H291.956V143H288.496V152H286.756V143.1C286.756 142.08 287.276 141.56 288.336 141.56ZM144.7 180.96H131.68V167.7H144.7V177.5H141.2C140.32 177.5 139.82 177.04 139.76 176.38V176.22H139.64C139.32 176.92 138.52 177.38 137.46 177.38C135.78 177.38 134.86 176.18 134.86 174.24C134.86 172.22 135.82 171.14 137.58 171.14C138.66 171.14 139.38 171.54 139.76 172.32H139.82V171.26H140.96V176.22H143.28V169.1H133.16V179.56H144.7V180.96ZM137.9 176.14C138.84 176.14 139.38 175.56 139.38 174.66V173.86C139.38 172.96 138.8 172.38 137.86 172.38C136.92 172.38 136.38 172.94 136.38 173.84V174.66C136.38 175.6 136.94 176.14 137.9 176.14ZM159.986 180H154.086V165.42H159.986C164.326 165.42 166.106 167.92 166.106 172.72C166.106 177.54 164.306 180 159.986 180ZM155.906 167.08V178.34H159.966C162.846 178.34 164.186 177.02 164.186 173.92V171.52C164.186 168.38 162.786 167.08 159.966 167.08H155.906ZM179.856 180H177.896L176.616 176.56H169.916L168.636 180H166.736L172.236 165.42H174.316L179.856 180ZM171.396 172.56L170.476 175.06H176.056L175.136 172.56L173.336 167.26H173.236L171.396 172.56ZM190.286 180H181.586V165.42H183.406V178.34H190.286V180ZM194.832 165.42V180H193.012V165.42H194.832ZM212.24 180H203.54V165.42H205.36V178.34H212.24V180ZM214.001 177C214.001 174.94 215.421 173.78 217.801 173.78H220.941V172.98C220.941 171.48 220.161 170.74 218.581 170.74C217.041 170.74 216.201 171.48 216.141 172.68H214.441C214.541 170.6 216.141 169.36 218.681 169.36C220.061 169.36 221.141 169.82 221.681 170.38C221.941 170.66 222.161 170.98 222.321 171.36C222.641 172.1 222.661 172.54 222.661 173.02V178.72H224.201V180H222.421C221.461 180 221.121 179.6 221.061 178.82L221.041 178.28H220.921C220.461 179.46 219.061 180.2 217.361 180.2C215.261 180.2 214.001 178.94 214.001 177ZM215.781 176.56V177.2C215.781 178.24 216.561 178.8 217.761 178.8C219.701 178.8 220.941 177.52 220.941 175.6V175.04H217.961C216.581 175.04 215.781 175.66 215.781 176.56ZM227.965 180H226.385V165.34H228.125V171.56H228.245C228.805 170.22 230.225 169.36 231.885 169.36C234.785 169.36 236.305 171.4 236.305 174.82C236.305 178.26 234.685 180.2 231.785 180.2C230.245 180.2 228.865 179.44 228.245 178.18H228.125L227.965 180ZM228.125 174.14V175.5C228.125 176.44 228.445 177.22 229.065 177.84C229.705 178.46 230.525 178.76 231.505 178.76C233.365 178.76 234.545 177.64 234.545 175.9V173.74C234.545 171.96 233.365 170.82 231.505 170.82C230.525 170.82 229.705 171.14 229.065 171.76C228.445 172.38 228.125 173.16 228.125 174.14Z" fill="white"/>
</svg>
