<svg width="1120" height="395" viewBox="0 0 1120 395" fill="none" xmlns="http://www.w3.org/2000/svg">
<path d="M567.922 175.76C580.894 175.76 591.41 165.244 591.41 152.272C591.41 139.299 580.894 128.783 567.922 128.783C554.95 128.783 544.434 139.299 544.434 152.272C544.434 165.244 554.95 175.76 567.922 175.76Z" fill="#00ED64" stroke="#313131" stroke-width="2.15913" stroke-miterlimit="10" stroke-linecap="round" stroke-linejoin="round"/>
<path d="M584.184 168.533L605.865 190.215" stroke="#313131" stroke-width="2.15913" stroke-miterlimit="10"/>
<path d="M490.227 144.955H494.202M494.202 144.955C499.983 144.955 504.862 140.267 504.862 134.316V115.382C504.862 106.907 511.728 99.875 520.4 99.875M494.202 144.955C499.983 144.955 504.862 149.643 504.862 155.594V174.708C504.862 183.183 511.728 190.215 520.4 190.215M580.567 144.955H576.592M576.592 144.955C570.81 144.955 565.932 149.643 565.932 155.594V174.708C565.932 183.183 559.066 190.215 550.393 190.215M576.592 144.955C570.81 144.955 565.932 140.267 565.932 134.316V115.382C565.932 106.907 559.066 99.875 550.393 99.875" stroke="#313131" stroke-width="2.15913" stroke-miterlimit="10"/>
<path d="M200.248 188.161H194.035M194.035 188.161C184.715 188.161 177.466 195.376 177.466 204.652V258.249C177.466 271.648 166.592 282.47 153.13 282.47H58.895C45.4328 282.47 34.5595 271.648 34.5595 258.249V204.652C34.5595 195.376 27.3106 188.161 17.9907 188.161M194.035 188.161C184.715 188.161 177.466 180.947 177.466 171.67V141.78C177.466 128.381 166.592 117.559 153.13 117.559H58.895C45.4328 117.559 34.5595 128.381 34.5595 141.78V171.67C34.5595 180.947 27.3106 188.161 17.9907 188.161M17.9907 188.161H11.7773M58.895 126.491C58.895 126.491 100.317 138.4 153.13 126.491" stroke="#313131" stroke-width="2.94485" stroke-miterlimit="10"/>
<path d="M70.6758 200.403C70.6758 219.839 86.578 235.741 106.014 235.741C125.45 235.741 141.352 219.839 141.352 200.403C141.352 180.967 125.45 165.064 106.014 165.064C86.578 165.064 70.6758 180.967 70.6758 200.403Z" fill="#00ED64" stroke="#313131" stroke-width="2.94485" stroke-miterlimit="10"/>
<path d="M91.2891 200.402H92.4618M92.4618 200.402C94.1557 200.402 95.4588 201.698 95.4588 203.112V208.177C95.4588 210.415 97.4133 212.182 99.8891 212.182M92.4618 200.402C94.1557 200.402 95.4593 199.107 95.4593 197.693V192.628C95.4593 190.39 97.4138 188.623 99.8896 188.623M120.738 200.402H119.565M119.565 200.402C117.871 200.402 116.568 201.698 116.568 203.112V208.177C116.568 210.415 114.613 212.182 112.138 212.182M119.565 200.402C117.871 200.402 116.568 199.107 116.568 197.693V192.628C116.568 190.39 114.613 188.623 112.138 188.623" stroke="#001E2B" stroke-width="2.94485" stroke-miterlimit="10"/>
<path d="M52.5372 361H44.2772V340.588H52.5372C58.6132 340.588 61.1052 344.088 61.1052 350.808C61.1052 357.556 58.5852 361 52.5372 361ZM46.8252 342.912V358.676H52.5092C56.5412 358.676 58.4172 356.828 58.4172 352.488V349.128C58.4172 344.732 56.4572 342.912 52.5092 342.912H46.8252ZM63.5712 356.8C63.5712 353.916 65.5592 352.292 68.8912 352.292H73.2872V351.172C73.2872 349.072 72.1952 348.036 69.9832 348.036C67.8272 348.036 66.6512 349.072 66.5672 350.752H64.1872C64.3272 347.84 66.5672 346.104 70.1232 346.104C72.0552 346.104 73.5672 346.748 74.3232 347.532C74.6872 347.924 74.9952 348.372 75.2192 348.904C75.6672 349.94 75.6952 350.556 75.6952 351.228V359.208H77.8512V361H75.3592C74.0152 361 73.5392 360.44 73.4552 359.348L73.4272 358.592H73.2592C72.6152 360.244 70.6552 361.28 68.2752 361.28C65.3352 361.28 63.5712 359.516 63.5712 356.8ZM66.0632 356.184V357.08C66.0632 358.536 67.1552 359.32 68.8352 359.32C71.5512 359.32 73.2872 357.528 73.2872 354.84V354.056H69.1152C67.1832 354.056 66.0632 354.924 66.0632 356.184ZM83.7406 348.4V358.984H86.8206V361H83.4606C82.0326 361 81.3326 360.328 81.3326 358.956V348.4H78.6726V346.384H81.3326V341.54H83.7406V346.384H86.7926V348.4H83.7406ZM89.1649 356.8C89.1649 353.916 91.1529 352.292 94.4849 352.292H98.8809V351.172C98.8809 349.072 97.7889 348.036 95.5769 348.036C93.4209 348.036 92.2449 349.072 92.1609 350.752H89.7809C89.9209 347.84 92.1609 346.104 95.7169 346.104C97.6489 346.104 99.1609 346.748 99.9169 347.532C100.281 347.924 100.589 348.372 100.813 348.904C101.261 349.94 101.289 350.556 101.289 351.228V359.208H103.445V361H100.953C99.6089 361 99.1329 360.44 99.0489 359.348L99.0209 358.592H98.8529C98.2089 360.244 96.2489 361.28 93.8689 361.28C90.9289 361.28 89.1649 359.516 89.1649 356.8ZM91.6569 356.184V357.08C91.6569 358.536 92.7489 359.32 94.4289 359.32C97.1449 359.32 98.8809 357.528 98.8809 354.84V354.056H94.7089C92.7769 354.056 91.6569 354.924 91.6569 356.184ZM108.714 361H106.502V340.476H108.938V349.184H109.106C109.89 347.308 111.878 346.104 114.202 346.104C118.262 346.104 120.39 348.96 120.39 353.748C120.39 358.564 118.122 361.28 114.062 361.28C111.906 361.28 109.974 360.216 109.106 358.452H108.938L108.714 361ZM108.938 352.796V354.7C108.938 356.016 109.386 357.108 110.254 357.976C111.15 358.844 112.298 359.264 113.67 359.264C116.274 359.264 117.926 357.696 117.926 355.26V352.236C117.926 349.744 116.274 348.148 113.67 348.148C112.298 348.148 111.15 348.596 110.254 349.464C109.386 350.332 108.938 351.424 108.938 352.796ZM122.852 356.8C122.852 353.916 124.84 352.292 128.172 352.292H132.568V351.172C132.568 349.072 131.476 348.036 129.264 348.036C127.108 348.036 125.932 349.072 125.848 350.752H123.468C123.608 347.84 125.848 346.104 129.404 346.104C131.336 346.104 132.848 346.748 133.604 347.532C133.968 347.924 134.276 348.372 134.5 348.904C134.948 349.94 134.976 350.556 134.976 351.228V359.208H137.132V361H134.64C133.296 361 132.82 360.44 132.736 359.348L132.708 358.592H132.54C131.896 360.244 129.936 361.28 127.556 361.28C124.616 361.28 122.852 359.516 122.852 356.8ZM125.344 356.184V357.08C125.344 358.536 126.436 359.32 128.116 359.32C130.832 359.32 132.568 357.528 132.568 354.84V354.056H128.396C126.464 354.056 125.344 354.924 125.344 356.184ZM138.93 356.576H141.338C141.338 358.284 142.738 359.376 144.894 359.376C146.938 359.376 148.17 358.48 148.17 356.94C148.17 355.848 147.526 355.176 146.238 354.924L143.102 354.336C140.498 353.86 139.21 352.572 139.21 350.472C139.21 347.756 141.366 346.104 144.726 346.104C148.198 346.104 150.298 347.868 150.326 350.556H147.918C147.862 348.848 146.798 347.98 144.726 347.98C142.738 347.98 141.646 348.848 141.646 350.22C141.646 351.004 141.982 351.564 142.57 351.872C143.158 352.124 143.41 352.208 143.998 352.32L146.882 352.852C149.43 353.3 150.718 354.616 150.718 356.8C150.718 359.6 148.45 361.28 144.894 361.28C141.198 361.28 138.93 359.404 138.93 356.576ZM160.174 346.104C164.178 346.104 166.67 348.624 166.67 352.684C166.67 353.244 166.642 353.748 166.586 354.196H155.806V355.036C155.806 357.612 157.57 359.32 160.258 359.32C162.302 359.32 163.87 358.256 164.346 356.604H166.754C166.446 358.032 165.718 359.152 164.514 360.02C163.31 360.86 161.882 361.28 160.202 361.28C155.946 361.28 153.314 358.34 153.314 353.636C153.314 348.932 155.946 346.104 160.174 346.104ZM155.806 352.012V352.404H164.262V351.844C164.262 349.576 162.61 348.064 160.174 348.064C157.598 348.064 155.806 349.66 155.806 352.012Z" fill="#313131"/>
<path d="M1024.21 135.79H1101.75C1105.03 135.79 1107.72 138.479 1107.72 141.766V261.288C1107.72 264.575 1105.03 267.264 1101.75 267.264H922.801C919.52 267.264 916.836 264.575 916.836 261.288V141.766C916.836 138.479 919.52 135.79 922.801 135.79H940.696M991.697 266.964L984.24 291.167C983.346 294.454 985.135 296.845 988.416 296.845H1036.14C1039.42 296.845 1041.21 294.156 1040.31 291.167L1032.86 266.964" stroke="#313131" stroke-width="2.98249" stroke-miterlimit="10"/>
<path d="M1101.75 267.02H922.503C919.222 267.02 916.836 264.336 916.836 261.353V249.125H1107.72V261.353C1107.42 264.336 1104.73 267.02 1101.75 267.02Z" fill="#00ED64" stroke="#313131" stroke-width="2.98249" stroke-miterlimit="10"/>
<path d="M940.696 135.79H922.503C919.222 135.79 916.836 138.474 916.836 141.457V153.685H940.696V135.79Z" fill="#00ED64" stroke="#313131" stroke-width="2.98249" stroke-miterlimit="10"/>
<path d="M1101.75 135.79H1024.21V153.685H1107.72V141.755C1107.42 138.474 1104.73 135.79 1101.75 135.79Z" fill="#00ED64" stroke="#313131" stroke-width="2.98249" stroke-miterlimit="10"/>
<path d="M967.538 129.825H997.363M1021.22 237.195H943.678C941.888 237.195 940.695 236.002 940.695 234.213V120.878C940.695 119.089 941.888 117.896 943.678 117.896H1021.22C1023.01 117.896 1024.21 119.089 1024.21 120.878V234.213C1024.21 236.002 1023.01 237.195 1021.22 237.195Z" stroke="#313131" stroke-width="2.98249" stroke-miterlimit="10" stroke-linejoin="round"/>
<path d="M1048.07 174.563H1065.96M1074.91 237.195H1039.12C1037.33 237.195 1036.14 236.002 1036.14 234.213V168.598C1036.14 166.808 1037.33 165.615 1039.12 165.615H1074.91C1076.7 165.615 1077.89 166.808 1077.89 168.598V234.213C1077.89 236.002 1076.4 237.195 1074.91 237.195Z" stroke="#313131" stroke-width="2.98249" stroke-miterlimit="10" stroke-linejoin="round"/>
<path d="M936.834 365.488H934.09L932.298 360.672H922.918L921.126 365.488H918.466L926.166 345.076H929.078L936.834 365.488ZM924.99 355.072L923.702 358.572H931.514L930.226 355.072L927.706 347.652H927.566L924.99 355.072ZM941.847 370.164H939.411V350.872H941.595L941.847 353.448H942.015C942.995 351.628 944.871 350.592 947.251 350.592C951.059 350.592 953.327 353.336 953.327 358.068C953.327 362.856 951.059 365.572 947.251 365.572C944.787 365.572 942.939 364.508 942.015 362.716H941.847V370.164ZM946.579 363.528C949.183 363.528 950.835 361.988 950.835 359.552V356.612C950.835 354.176 949.183 352.608 946.579 352.608C943.751 352.608 941.847 354.456 941.847 357.172V358.992C941.847 361.708 943.751 363.528 946.579 363.528ZM959.429 370.164H956.993V350.872H959.177L959.429 353.448H959.597C960.577 351.628 962.453 350.592 964.833 350.592C968.641 350.592 970.909 353.336 970.909 358.068C970.909 362.856 968.641 365.572 964.833 365.572C962.369 365.572 960.521 364.508 959.597 362.716H959.429V370.164ZM964.161 363.528C966.765 363.528 968.417 361.988 968.417 359.552V356.612C968.417 354.176 966.765 352.608 964.161 352.608C961.333 352.608 959.429 354.456 959.429 357.172V358.992C959.429 361.708 961.333 363.528 964.161 363.528ZM976.983 365.488H974.575V344.964H976.983V365.488ZM984.256 348.156H981.848V344.964H984.256V348.156ZM984.256 365.488H981.848V350.872H984.256V365.488ZM998.95 360.504H1001.36C1000.88 363.752 998.418 365.768 994.862 365.768C992.706 365.768 990.998 365.096 989.766 363.724C988.534 362.352 987.918 360.532 987.918 358.208C987.918 355.828 988.562 353.952 989.85 352.608C991.138 351.264 992.846 350.592 994.946 350.592C998.334 350.592 1000.8 352.58 1001.27 355.632H998.866C998.39 353.644 996.85 352.636 994.834 352.636C992.23 352.636 990.41 354.512 990.41 357.2V359.412C990.41 362.016 992.174 363.752 994.834 363.752C996.99 363.752 998.586 362.492 998.95 360.504ZM1003.69 361.288C1003.69 358.404 1005.68 356.78 1009.01 356.78H1013.41V355.66C1013.41 353.56 1012.32 352.524 1010.11 352.524C1007.95 352.524 1006.77 353.56 1006.69 355.24H1004.31C1004.45 352.328 1006.69 350.592 1010.25 350.592C1012.18 350.592 1013.69 351.236 1014.45 352.02C1014.81 352.412 1015.12 352.86 1015.34 353.392C1015.79 354.428 1015.82 355.044 1015.82 355.716V363.696H1017.97V365.488H1015.48C1014.14 365.488 1013.66 364.928 1013.58 363.836L1013.55 363.08H1013.38C1012.74 364.732 1010.78 365.768 1008.4 365.768C1005.46 365.768 1003.69 364.004 1003.69 361.288ZM1006.19 360.672V361.568C1006.19 363.024 1007.28 363.808 1008.96 363.808C1011.67 363.808 1013.41 362.016 1013.41 359.328V358.544H1009.24C1007.31 358.544 1006.19 359.412 1006.19 360.672ZM1023.86 352.888V363.472H1026.94V365.488H1023.58C1022.16 365.488 1021.46 364.816 1021.46 363.444V352.888H1018.8V350.872H1021.46V346.028H1023.86V350.872H1026.92V352.888H1023.86ZM1032.93 348.156H1030.52V344.964H1032.93V348.156ZM1032.93 365.488H1030.52V350.872H1032.93V365.488ZM1036.59 358.18C1036.59 355.828 1037.23 353.98 1038.52 352.636C1039.81 351.264 1041.52 350.592 1043.62 350.592C1045.72 350.592 1047.43 351.264 1048.69 352.608C1049.97 353.952 1050.62 355.8 1050.62 358.18C1050.62 362.8 1048.01 365.768 1043.62 365.768C1041.43 365.768 1039.73 365.096 1038.47 363.724C1037.21 362.352 1036.59 360.504 1036.59 358.18ZM1039.08 357.116V359.384C1039.08 362.156 1041.04 363.752 1043.62 363.752C1046.22 363.752 1048.15 362.1 1048.15 359.384V357.116C1048.15 354.428 1046.28 352.636 1043.62 352.636C1042.3 352.636 1041.21 353.056 1040.34 353.896C1039.5 354.708 1039.08 355.8 1039.08 357.116ZM1056.75 365.488H1054.31V350.872H1056.44L1056.75 353.588H1056.94C1057.84 351.712 1059.66 350.592 1061.87 350.592C1065.03 350.592 1066.94 352.888 1066.94 356.5V365.488H1064.5V356.752C1064.5 354.092 1063.35 352.748 1061.06 352.748C1058.48 352.748 1056.75 354.792 1056.75 357.844V365.488ZM1078.38 357.928V345.076H1080.9V357.704C1080.9 361.288 1083.08 363.416 1086.55 363.416C1090.02 363.416 1092.24 361.288 1092.24 357.704V345.076H1094.73V357.928C1094.73 360.308 1094 362.212 1092.54 363.64C1091.09 365.068 1089.1 365.768 1086.55 365.768C1083.98 365.768 1081.96 365.068 1080.53 363.64C1079.1 362.212 1078.38 360.308 1078.38 357.928ZM1102.8 345.076V365.488H1100.26V345.076H1102.8Z" fill="#313131"/>
<path d="M515.735 12.808C515.735 19.052 512.655 22.832 507.195 23.252V26.472H511.059V28.376H506.943C505.235 28.376 504.759 27.536 504.759 26.22V23.196C499.579 22.636 496.639 18.884 496.639 12.808C496.639 9.504 497.479 6.928 499.159 5.108C500.839 3.26 503.191 2.336 506.187 2.336C509.183 2.336 511.535 3.26 513.215 5.108C514.895 6.928 515.735 9.504 515.735 12.808ZM499.327 11.352V14.208C499.327 18.464 502.015 20.984 506.187 20.984C510.527 20.984 513.047 18.352 513.047 14.208V11.352C513.047 9.252 512.431 7.6 511.171 6.424C509.939 5.22 508.287 4.632 506.187 4.632C501.847 4.632 499.327 7.236 499.327 11.352ZM529.244 8.384H531.68V23H529.608L529.272 20.284H529.048C528.264 22.104 526.36 23.28 524.092 23.28C521.068 23.28 519.248 21.264 519.248 17.708V8.384H521.656V17.372C521.656 19.948 522.748 21.236 524.904 21.236C527.564 21.236 529.244 19.136 529.244 16.028V8.384ZM542.217 8.104C546.221 8.104 548.713 10.624 548.713 14.684C548.713 15.244 548.685 15.748 548.629 16.196H537.849V17.036C537.849 19.612 539.613 21.32 542.301 21.32C544.345 21.32 545.913 20.256 546.389 18.604H548.797C548.489 20.032 547.761 21.152 546.557 22.02C545.353 22.86 543.925 23.28 542.245 23.28C537.989 23.28 535.357 20.34 535.357 15.636C535.357 10.932 537.989 8.104 542.217 8.104ZM537.849 14.012V14.404H546.305V13.844C546.305 11.576 544.653 10.064 542.217 10.064C539.641 10.064 537.849 11.66 537.849 14.012ZM554.687 8.384H559.755V10.4H554.911V23H552.475V10.54C552.475 9.112 553.203 8.384 554.687 8.384ZM566.177 21.264L560.101 8.384H562.761L564.889 13.172L567.269 18.772H567.437L572.001 8.384H574.661L568.585 21.292V25.52C568.585 26.948 567.885 27.676 566.457 27.676H562.733V25.688H566.177V21.264Z" fill="#313131"/>
<path d="M452.001 64.3H448.481V44.38H452.001V45.48H449.701V63.22H452.001V64.3ZM453.389 57C453.389 54.94 454.809 53.78 457.189 53.78H460.329V52.98C460.329 51.48 459.549 50.74 457.969 50.74C456.429 50.74 455.589 51.48 455.529 52.68H453.829C453.929 50.6 455.529 49.36 458.069 49.36C459.449 49.36 460.529 49.82 461.069 50.38C461.329 50.66 461.549 50.98 461.709 51.36C462.029 52.1 462.049 52.54 462.049 53.02V58.72H463.589V60H461.809C460.849 60 460.509 59.6 460.449 58.82L460.429 58.28H460.309C459.849 59.46 458.449 60.2 456.749 60.2C454.649 60.2 453.389 58.94 453.389 57ZM455.169 56.56V57.2C455.169 58.24 455.949 58.8 457.149 58.8C459.089 58.8 460.329 57.52 460.329 55.6V55.04H457.349C455.969 55.04 455.169 55.66 455.169 56.56ZM472.021 49.56H475.641V51H472.181V60H470.441V51.1C470.441 50.08 470.961 49.56 472.021 49.56ZM481.2 49.36C484.06 49.36 485.84 51.16 485.84 54.06C485.84 54.46 485.82 54.82 485.78 55.14H478.08V55.74C478.08 57.58 479.34 58.8 481.26 58.8C482.72 58.8 483.84 58.04 484.18 56.86H485.9C485.68 57.88 485.16 58.68 484.3 59.3C483.44 59.9 482.42 60.2 481.22 60.2C478.18 60.2 476.3 58.1 476.3 54.74C476.3 51.38 478.18 49.36 481.2 49.36ZM478.08 53.58V53.86H484.12V53.46C484.12 51.84 482.94 50.76 481.2 50.76C479.36 50.76 478.08 51.9 478.08 53.58ZM496.222 49.56H497.802V63.34H496.062V58H495.942C495.362 59.34 493.962 60.2 492.302 60.2C489.402 60.2 487.862 58.16 487.862 54.74C487.862 51.3 489.462 49.36 492.402 49.36C493.942 49.36 495.322 50.14 495.942 51.4H496.062L496.222 49.56ZM496.062 55.42V54.06C496.062 53.12 495.742 52.36 495.102 51.74C494.482 51.12 493.662 50.8 492.682 50.8C490.822 50.8 489.642 51.92 489.642 53.66V55.82C489.642 57.6 490.822 58.74 492.682 58.74C493.662 58.74 494.482 58.44 495.102 57.82C495.742 57.2 496.062 56.4 496.062 55.42ZM508.281 49.56H510.021V60H508.541L508.301 58.06H508.141C507.581 59.36 506.221 60.2 504.601 60.2C502.441 60.2 501.141 58.76 501.141 56.22V49.56H502.861V55.98C502.861 57.82 503.641 58.74 505.181 58.74C507.081 58.74 508.281 57.24 508.281 55.02V49.56ZM517.548 49.36C520.408 49.36 522.188 51.16 522.188 54.06C522.188 54.46 522.168 54.82 522.128 55.14H514.428V55.74C514.428 57.58 515.688 58.8 517.608 58.8C519.068 58.8 520.188 58.04 520.528 56.86H522.248C522.028 57.88 521.508 58.68 520.648 59.3C519.788 59.9 518.768 60.2 517.568 60.2C514.528 60.2 512.648 58.1 512.648 54.74C512.648 51.38 514.528 49.36 517.548 49.36ZM514.428 53.58V53.86H520.468V53.46C520.468 51.84 519.288 50.76 517.548 50.76C515.708 50.76 514.428 51.9 514.428 53.58ZM523.975 56.84H525.695C525.695 58.06 526.695 58.84 528.235 58.84C529.695 58.84 530.575 58.2 530.575 57.1C530.575 56.32 530.115 55.84 529.195 55.66L526.955 55.24C525.095 54.9 524.175 53.98 524.175 52.48C524.175 50.54 525.715 49.36 528.115 49.36C530.595 49.36 532.095 50.62 532.115 52.54H530.395C530.355 51.32 529.595 50.7 528.115 50.7C526.695 50.7 525.915 51.32 525.915 52.3C525.915 52.86 526.155 53.26 526.575 53.48C526.995 53.66 527.175 53.72 527.595 53.8L529.655 54.18C531.475 54.5 532.395 55.44 532.395 57C532.395 59 530.775 60.2 528.235 60.2C525.595 60.2 523.975 58.86 523.975 56.84ZM537.093 51V58.56H539.293V60H536.893C535.873 60 535.373 59.52 535.373 58.54V51H533.473V49.56H535.373V46.1H537.093V49.56H539.273V51H537.093ZM551.515 46.76H548.815V49.56H551.075V51H548.815V60H547.095V51H545.055V49.56H547.095V46.78C547.095 45.82 547.655 45.34 548.755 45.34H551.515V46.76ZM552.335 54.78C552.335 53.1 552.795 51.78 553.715 50.82C554.635 49.84 555.855 49.36 557.355 49.36C558.855 49.36 560.075 49.84 560.975 50.8C561.895 51.76 562.355 53.08 562.355 54.78C562.355 58.08 560.495 60.2 557.355 60.2C555.795 60.2 554.575 59.72 553.675 58.74C552.775 57.76 552.335 56.44 552.335 54.78ZM554.115 54.02V55.64C554.115 57.62 555.515 58.76 557.355 58.76C559.215 58.76 560.595 57.58 560.595 55.64V54.02C560.595 52.1 559.255 50.82 557.355 50.82C556.415 50.82 555.635 51.12 555.015 51.72C554.415 52.3 554.115 53.08 554.115 54.02ZM566.572 49.56H570.192V51H566.732V60H564.992V51.1C564.992 50.08 565.512 49.56 566.572 49.56ZM580.347 60.2C577.627 60.2 576.007 58.24 576.007 54.86C576.007 51.44 577.627 49.5 580.347 49.5C582.107 49.5 583.427 50.26 584.087 51.54H584.207V45.34H585.947V60H584.387L584.207 58.18H584.087C583.367 59.52 582.127 60.2 580.347 60.2ZM580.827 58.76C582.847 58.76 584.207 57.44 584.207 55.5V54.2C584.207 52.26 582.847 50.96 580.827 50.96C578.967 50.96 577.787 52.06 577.787 53.8V55.9C577.787 57.64 578.967 58.76 580.827 58.76ZM588.546 57C588.546 54.94 589.966 53.78 592.346 53.78H595.486V52.98C595.486 51.48 594.706 50.74 593.126 50.74C591.586 50.74 590.746 51.48 590.686 52.68H588.986C589.086 50.6 590.686 49.36 593.226 49.36C594.606 49.36 595.686 49.82 596.226 50.38C596.486 50.66 596.706 50.98 596.866 51.36C597.186 52.1 597.206 52.54 597.206 53.02V58.72H598.746V60H596.966C596.006 60 595.666 59.6 595.606 58.82L595.586 58.28H595.466C595.006 59.46 593.606 60.2 591.906 60.2C589.806 60.2 588.546 58.94 588.546 57ZM590.326 56.56V57.2C590.326 58.24 591.106 58.8 592.306 58.8C594.246 58.8 595.486 57.52 595.486 55.6V55.04H592.506C591.126 55.04 590.326 55.66 590.326 56.56ZM602.952 51V58.56H605.152V60H602.752C601.732 60 601.232 59.52 601.232 58.54V51H599.332V49.56H601.232V46.1H602.952V49.56H605.132V51H602.952ZM606.827 57C606.827 54.94 608.247 53.78 610.627 53.78H613.767V52.98C613.767 51.48 612.987 50.74 611.407 50.74C609.867 50.74 609.027 51.48 608.967 52.68H607.267C607.367 50.6 608.967 49.36 611.507 49.36C612.887 49.36 613.967 49.82 614.507 50.38C614.767 50.66 614.987 50.98 615.147 51.36C615.467 52.1 615.487 52.54 615.487 53.02V58.72H617.027V60H615.247C614.287 60 613.947 59.6 613.887 58.82L613.867 58.28H613.747C613.287 59.46 611.887 60.2 610.187 60.2C608.087 60.2 606.827 58.94 606.827 57ZM608.607 56.56V57.2C608.607 58.24 609.387 58.8 610.587 58.8C612.527 58.8 613.767 57.52 613.767 55.6V55.04H610.787C609.407 55.04 608.607 55.66 608.607 56.56ZM621.511 64.3H617.971V63.22H620.271V45.48H617.971V44.38H621.511V64.3Z" fill="#5D5D5D"/>
<path d="M521.279 394H513.019V373.588H521.279C527.355 373.588 529.847 377.088 529.847 383.808C529.847 390.556 527.327 394 521.279 394ZM515.567 375.912V391.676H521.251C525.283 391.676 527.159 389.828 527.159 385.488V382.128C527.159 377.732 525.199 375.912 521.251 375.912H515.567ZM532.313 389.8C532.313 386.916 534.301 385.292 537.633 385.292H542.029V384.172C542.029 382.072 540.937 381.036 538.725 381.036C536.569 381.036 535.393 382.072 535.309 383.752H532.929C533.069 380.84 535.309 379.104 538.865 379.104C540.797 379.104 542.309 379.748 543.065 380.532C543.429 380.924 543.737 381.372 543.961 381.904C544.409 382.94 544.437 383.556 544.437 384.228V392.208H546.593V394H544.101C542.757 394 542.281 393.44 542.197 392.348L542.169 391.592H542.001C541.357 393.244 539.397 394.28 537.017 394.28C534.077 394.28 532.313 392.516 532.313 389.8ZM534.805 389.184V390.08C534.805 391.536 535.897 392.32 537.577 392.32C540.293 392.32 542.029 390.528 542.029 387.84V387.056H537.857C535.925 387.056 534.805 387.924 534.805 389.184ZM552.483 381.4V391.984H555.563V394H552.203C550.775 394 550.075 393.328 550.075 391.956V381.4H547.415V379.384H550.075V374.54H552.483V379.384H555.535V381.4H552.483ZM557.907 389.8C557.907 386.916 559.895 385.292 563.227 385.292H567.623V384.172C567.623 382.072 566.531 381.036 564.319 381.036C562.163 381.036 560.987 382.072 560.903 383.752H558.523C558.663 380.84 560.903 379.104 564.459 379.104C566.391 379.104 567.903 379.748 568.659 380.532C569.023 380.924 569.331 381.372 569.555 381.904C570.003 382.94 570.031 383.556 570.031 384.228V392.208H572.187V394H569.695C568.351 394 567.875 393.44 567.791 392.348L567.763 391.592H567.595C566.951 393.244 564.991 394.28 562.611 394.28C559.671 394.28 557.907 392.516 557.907 389.8ZM560.399 389.184V390.08C560.399 391.536 561.491 392.32 563.171 392.32C565.887 392.32 567.623 390.528 567.623 387.84V387.056H563.451C561.519 387.056 560.399 387.924 560.399 389.184Z" fill="#313131"/>
<path d="M244.686 147.17C244.393 147.463 244.393 147.938 244.686 148.231L249.459 153.003C249.752 153.296 250.227 153.296 250.519 153.003C250.812 152.711 250.812 152.236 250.519 151.943L246.277 147.7L250.519 143.458C250.812 143.165 250.812 142.69 250.519 142.397C250.227 142.104 249.752 142.104 249.459 142.397L244.686 147.17ZM450.003 146.95C449.589 146.95 449.253 147.286 449.253 147.7C449.253 148.114 449.589 148.45 450.003 148.45V146.95ZM436.791 148.45C437.205 148.45 437.541 148.114 437.541 147.7C437.541 147.286 437.205 146.95 436.791 146.95V148.45ZM423.579 146.95C423.165 146.95 422.829 147.286 422.829 147.7C422.829 148.114 423.165 148.45 423.579 148.45V146.95ZM410.367 148.45C410.781 148.45 411.117 148.114 411.117 147.7C411.117 147.286 410.781 146.95 410.367 146.95V148.45ZM397.155 146.95C396.741 146.95 396.405 147.286 396.405 147.7C396.405 148.114 396.741 148.45 397.155 148.45V146.95ZM383.943 148.45C384.357 148.45 384.693 148.114 384.693 147.7C384.693 147.286 384.357 146.95 383.943 146.95V148.45ZM370.731 146.95C370.317 146.95 369.981 147.286 369.981 147.7C369.981 148.114 370.317 148.45 370.731 148.45V146.95ZM357.519 148.45C357.933 148.45 358.269 148.114 358.269 147.7C358.269 147.286 357.933 146.95 357.519 146.95V148.45ZM344.307 146.95C343.892 146.95 343.557 147.286 343.557 147.7C343.557 148.114 343.892 148.45 344.307 148.45V146.95ZM331.095 148.45C331.509 148.45 331.845 148.114 331.845 147.7C331.845 147.286 331.509 146.95 331.095 146.95V148.45ZM317.883 146.95C317.468 146.95 317.133 147.286 317.133 147.7C317.133 148.114 317.468 148.45 317.883 148.45V146.95ZM304.67 148.45C305.085 148.45 305.42 148.114 305.42 147.7C305.42 147.286 305.085 146.95 304.67 146.95V148.45ZM291.458 146.95C291.044 146.95 290.708 147.286 290.708 147.7C290.708 148.114 291.044 148.45 291.458 148.45V146.95ZM278.246 148.45C278.66 148.45 278.996 148.114 278.996 147.7C278.996 147.286 278.66 146.95 278.246 146.95V148.45ZM265.034 146.95C264.62 146.95 264.284 147.286 264.284 147.7C264.284 148.114 264.62 148.45 265.034 148.45V146.95ZM251.822 148.45C252.236 148.45 252.572 148.114 252.572 147.7C252.572 147.286 252.236 146.95 251.822 146.95V148.45ZM456.609 146.95H450.003V148.45H456.609V146.95ZM436.791 146.95H423.579V148.45H436.791V146.95ZM410.367 146.95H397.155V148.45H410.367V146.95ZM383.943 146.95H370.731V148.45H383.943V146.95ZM357.519 146.95H344.307V148.45H357.519V146.95ZM331.095 146.95H317.883V148.45H331.095V146.95ZM304.67 146.95H291.458V148.45H304.67V146.95ZM278.246 146.95H265.034V148.45H278.246V146.95ZM251.822 146.95H245.216V148.45H251.822V146.95ZM244.155 146.64C243.57 147.225 243.57 148.175 244.155 148.761L253.701 158.307C254.287 158.893 255.237 158.893 255.823 158.307C256.408 157.721 256.408 156.771 255.823 156.185L247.337 147.7L255.823 139.215C256.408 138.629 256.408 137.679 255.823 137.094C255.237 136.508 254.287 136.508 253.701 137.094L244.155 146.64ZM450.003 146.2C449.175 146.2 448.503 146.872 448.503 147.7C448.503 148.529 449.175 149.2 450.003 149.2V146.2ZM436.791 149.2C437.62 149.2 438.291 148.529 438.291 147.7C438.291 146.872 437.62 146.2 436.791 146.2V149.2ZM423.579 146.2C422.751 146.2 422.079 146.872 422.079 147.7C422.079 148.529 422.751 149.2 423.579 149.2V146.2ZM410.367 149.2C411.196 149.2 411.867 148.529 411.867 147.7C411.867 146.872 411.196 146.2 410.367 146.2V149.2ZM397.155 146.2C396.327 146.2 395.655 146.872 395.655 147.7C395.655 148.529 396.327 149.2 397.155 149.2V146.2ZM383.943 149.2C384.771 149.2 385.443 148.529 385.443 147.7C385.443 146.872 384.771 146.2 383.943 146.2V149.2ZM370.731 146.2C369.902 146.2 369.231 146.872 369.231 147.7C369.231 148.529 369.902 149.2 370.731 149.2V146.2ZM357.519 149.2C358.347 149.2 359.019 148.529 359.019 147.7C359.019 146.872 358.347 146.2 357.519 146.2V149.2ZM344.307 146.2C343.478 146.2 342.807 146.872 342.807 147.7C342.807 148.529 343.478 149.2 344.307 149.2V146.2ZM331.095 149.2C331.923 149.2 332.595 148.529 332.595 147.7C332.595 146.872 331.923 146.2 331.095 146.2V149.2ZM317.883 146.2C317.054 146.2 316.383 146.872 316.383 147.7C316.383 148.529 317.054 149.2 317.883 149.2V146.2ZM304.67 149.2C305.499 149.2 306.17 148.529 306.17 147.7C306.17 146.872 305.499 146.2 304.67 146.2V149.2ZM291.458 146.2C290.63 146.2 289.958 146.872 289.958 147.7C289.958 148.529 290.63 149.2 291.458 149.2V146.2ZM278.246 149.2C279.075 149.2 279.746 148.529 279.746 147.7C279.746 146.872 279.075 146.2 278.246 146.2V149.2ZM265.034 146.2C264.206 146.2 263.534 146.872 263.534 147.7C263.534 148.529 264.206 149.2 265.034 149.2V146.2ZM251.822 149.2C252.651 149.2 253.322 148.529 253.322 147.7C253.322 146.872 252.651 146.2 251.822 146.2V149.2ZM456.609 146.2H450.003V149.2H456.609V146.2ZM436.791 146.2H423.579V149.2H436.791V146.2ZM410.367 146.2H397.155V149.2H410.367V146.2ZM383.943 146.2H370.731V149.2H383.943V146.2ZM357.519 146.2H344.307V149.2H357.519V146.2ZM331.095 146.2H317.883V149.2H331.095V146.2ZM304.67 146.2H291.458V149.2H304.67V146.2ZM278.246 146.2H265.034V149.2H278.246V146.2ZM251.822 146.2H245.216V149.2H251.822V146.2Z" fill="#5D5D5D"/>
<path d="M456.609 263.006H245.216" stroke="#5D5D5D" stroke-width="1.5" stroke-dasharray="13 13"/>
<path d="M846.344 147.7L622.651 147.7" stroke="#5D5D5D" stroke-width="1.5" stroke-dasharray="13 13"/>
<path d="M846.874 263.536C847.167 263.243 847.167 262.768 846.874 262.476L842.101 257.703C841.808 257.41 841.333 257.41 841.04 257.703C840.748 257.995 840.748 258.47 841.04 258.763L845.283 263.006L841.04 267.249C840.748 267.541 840.748 268.016 841.04 268.309C841.333 268.602 841.808 268.602 842.101 268.309L846.874 263.536ZM840.13 262.256C839.716 262.256 839.38 262.592 839.38 263.006C839.38 263.42 839.716 263.756 840.13 263.756L840.13 262.256ZM827.703 263.756C828.117 263.756 828.453 263.42 828.453 263.006C828.453 262.592 828.117 262.256 827.703 262.256L827.703 263.756ZM815.275 262.256C814.861 262.256 814.525 262.592 814.525 263.006C814.525 263.42 814.861 263.756 815.275 263.756L815.275 262.256ZM802.848 263.756C803.262 263.756 803.598 263.42 803.598 263.006C803.598 262.592 803.262 262.256 802.848 262.256L802.848 263.756ZM790.421 262.256C790.006 262.256 789.671 262.592 789.671 263.006C789.671 263.42 790.006 263.756 790.421 263.756L790.421 262.256ZM777.993 263.756C778.407 263.756 778.743 263.42 778.743 263.006C778.743 262.592 778.407 262.256 777.993 262.256L777.993 263.756ZM765.566 262.256C765.152 262.256 764.816 262.592 764.816 263.006C764.816 263.42 765.152 263.756 765.566 263.756L765.566 262.256ZM753.139 263.756C753.553 263.756 753.889 263.42 753.889 263.006C753.889 262.592 753.553 262.256 753.139 262.256L753.139 263.756ZM740.711 262.256C740.297 262.256 739.961 262.592 739.961 263.006C739.961 263.42 740.297 263.756 740.711 263.756L740.711 262.256ZM728.284 263.756C728.698 263.756 729.034 263.42 729.034 263.006C729.034 262.592 728.698 262.256 728.284 262.256L728.284 263.756ZM715.856 262.256C715.442 262.256 715.106 262.592 715.106 263.006C715.106 263.42 715.442 263.756 715.856 263.756L715.856 262.256ZM703.429 263.756C703.843 263.756 704.179 263.42 704.179 263.006C704.179 262.592 703.843 262.256 703.429 262.256L703.429 263.756ZM691.002 262.256C690.588 262.256 690.252 262.592 690.252 263.006C690.252 263.42 690.588 263.756 691.002 263.756L691.002 262.256ZM678.574 263.756C678.989 263.756 679.324 263.42 679.324 263.006C679.324 262.592 678.989 262.256 678.574 262.256L678.574 263.756ZM666.147 262.256C665.733 262.256 665.397 262.592 665.397 263.006C665.397 263.42 665.733 263.756 666.147 263.756L666.147 262.256ZM653.72 263.756C654.134 263.756 654.47 263.42 654.47 263.006C654.47 262.592 654.134 262.256 653.72 262.256L653.72 263.756ZM641.292 262.256C640.878 262.256 640.542 262.592 640.542 263.006C640.542 263.42 640.878 263.756 641.292 263.756L641.292 262.256ZM628.865 263.756C629.279 263.756 629.615 263.42 629.615 263.006C629.615 262.592 629.279 262.256 628.865 262.256L628.865 263.756ZM846.344 262.256L840.13 262.256L840.13 263.756L846.344 263.756L846.344 262.256ZM827.703 262.256L815.275 262.256L815.275 263.756L827.703 263.756L827.703 262.256ZM802.848 262.256L790.421 262.256L790.421 263.756L802.848 263.756L802.848 262.256ZM777.993 262.256L765.566 262.256L765.566 263.756L777.993 263.756L777.993 262.256ZM753.139 262.256L740.711 262.256L740.711 263.756L753.139 263.756L753.139 262.256ZM728.284 262.256L715.856 262.256L715.856 263.756L728.284 263.756L728.284 262.256ZM703.429 262.256L691.002 262.256L691.002 263.756L703.429 263.756L703.429 262.256ZM678.574 262.256L666.147 262.256L666.147 263.756L678.574 263.756L678.574 262.256ZM653.72 262.256L641.292 262.256L641.292 263.756L653.72 263.756L653.72 262.256ZM628.865 262.256L622.651 262.256L622.651 263.756L628.865 263.756L628.865 262.256ZM847.404 264.067C847.99 263.481 847.99 262.531 847.404 261.945L837.858 252.399C837.273 251.813 836.323 251.813 835.737 252.399C835.151 252.985 835.151 253.935 835.737 254.521L844.222 263.006L835.737 271.491C835.151 272.077 835.151 273.027 835.737 273.612C836.323 274.198 837.273 274.198 837.858 273.612L847.404 264.067ZM840.13 261.506C839.302 261.506 838.63 262.177 838.63 263.006C838.63 263.834 839.302 264.506 840.13 264.506L840.13 261.506ZM827.703 264.506C828.531 264.506 829.203 263.834 829.203 263.006C829.203 262.177 828.531 261.506 827.703 261.506L827.703 264.506ZM815.275 261.506C814.447 261.506 813.775 262.177 813.775 263.006C813.775 263.834 814.447 264.506 815.275 264.506L815.275 261.506ZM802.848 264.506C803.676 264.506 804.348 263.834 804.348 263.006C804.348 262.177 803.676 261.506 802.848 261.506L802.848 264.506ZM790.421 261.506C789.592 261.506 788.921 262.177 788.921 263.006C788.921 263.834 789.592 264.506 790.421 264.506L790.421 261.506ZM777.993 264.506C778.822 264.506 779.493 263.834 779.493 263.006C779.493 262.177 778.822 261.506 777.993 261.506L777.993 264.506ZM765.566 261.506C764.737 261.506 764.066 262.177 764.066 263.006C764.066 263.834 764.737 264.506 765.566 264.506L765.566 261.506ZM753.139 264.506C753.967 264.506 754.639 263.834 754.639 263.006C754.639 262.177 753.967 261.506 753.139 261.506L753.139 264.506ZM740.711 261.506C739.883 261.506 739.211 262.177 739.211 263.006C739.211 263.834 739.883 264.506 740.711 264.506L740.711 261.506ZM728.284 264.506C729.112 264.506 729.784 263.834 729.784 263.006C729.784 262.177 729.112 261.506 728.284 261.506L728.284 264.506ZM715.856 261.506C715.028 261.506 714.356 262.177 714.356 263.006C714.356 263.834 715.028 264.506 715.856 264.506L715.856 261.506ZM703.429 264.506C704.258 264.506 704.929 263.834 704.929 263.006C704.929 262.177 704.258 261.506 703.429 261.506L703.429 264.506ZM691.002 261.506C690.173 261.506 689.502 262.177 689.502 263.006C689.502 263.834 690.173 264.506 691.002 264.506L691.002 261.506ZM678.574 264.506C679.403 264.506 680.074 263.834 680.074 263.006C680.074 262.177 679.403 261.506 678.574 261.506L678.574 264.506ZM666.147 261.506C665.319 261.506 664.647 262.177 664.647 263.006C664.647 263.834 665.319 264.506 666.147 264.506L666.147 261.506ZM653.72 264.506C654.548 264.506 655.22 263.834 655.22 263.006C655.22 262.177 654.548 261.506 653.72 261.506L653.72 264.506ZM641.292 261.506C640.464 261.506 639.792 262.177 639.792 263.006C639.792 263.834 640.464 264.506 641.292 264.506L641.292 261.506ZM628.865 264.506C629.693 264.506 630.365 263.834 630.365 263.006C630.365 262.177 629.693 261.506 628.865 261.506L628.865 264.506ZM846.344 261.506L840.13 261.506L840.13 264.506L846.344 264.506L846.344 261.506ZM827.703 261.506L815.275 261.506L815.275 264.506L827.703 264.506L827.703 261.506ZM802.848 261.506L790.421 261.506L790.421 264.506L802.848 264.506L802.848 261.506ZM777.993 261.506L765.566 261.506L765.566 264.506L777.993 264.506L777.993 261.506ZM753.139 261.506L740.711 261.506L740.711 264.506L753.139 264.506L753.139 261.506ZM728.284 261.506L715.856 261.506L715.856 264.506L728.284 264.506L728.284 261.506ZM703.429 261.506L691.002 261.506L691.002 264.506L703.429 264.506L703.429 261.506ZM678.574 261.506L666.147 261.506L666.147 264.506L678.574 264.506L678.574 261.506ZM653.72 261.506L641.292 261.506L641.292 264.506L653.72 264.506L653.72 261.506ZM628.865 261.506L622.651 261.506L622.651 264.506L628.865 264.506L628.865 261.506Z" fill="#5D5D5D"/>
<path d="M563.062 227.535L585.936 250.448C585.936 250.448 585.936 319.188 585.773 319.025C585.773 320.825 584.302 322.298 582.505 322.298H510.779C508.982 322.298 507.512 320.825 507.512 319.025V230.808C507.512 229.008 508.982 227.535 510.779 227.535H563.062Z" stroke="#313131" stroke-width="1.63384" stroke-miterlimit="10" stroke-linecap="round" stroke-linejoin="round"/>
<path d="M527.117 284.719H528.677M528.677 284.719C530.929 284.719 532.662 286.696 532.662 288.853V296.581C532.662 299.996 535.262 302.692 538.554 302.692M528.677 284.719C530.929 284.719 532.662 282.742 532.662 280.586V272.858C532.662 269.443 535.262 266.747 538.554 266.747M566.329 284.719H564.77M564.77 284.719C562.517 284.719 560.784 286.696 560.784 288.853V296.581C560.784 299.996 558.185 302.692 554.893 302.692M564.77 284.719C562.517 284.719 560.784 282.742 560.784 280.586V272.858C560.784 269.443 558.185 266.747 554.893 266.747" stroke="#313131" stroke-width="1.63384" stroke-miterlimit="10"/>
<path d="M585.936 250.409H565.983C564.36 250.409 563.062 249.102 563.062 247.468V227.535C570.849 235.214 578.312 242.73 585.936 250.409Z" fill="#00ED64" stroke="#313131" stroke-width="1.63384" stroke-miterlimit="10" stroke-linecap="round" stroke-linejoin="round"/>
<path d="M510.641 322.444C508.84 322.444 507.367 320.971 507.367 319.171V237.338H500.982C499.181 237.338 497.707 238.811 497.707 240.611V328.827C497.707 330.628 499.181 332.101 500.982 332.101H572.857C574.658 332.101 576.132 330.628 576.132 328.827C576.132 328.827 576.132 323.426 576.132 322.281H510.641V322.444Z" stroke="#313131" stroke-width="1.63384" stroke-miterlimit="10" stroke-linecap="round" stroke-linejoin="round"/>
</svg>
