<svg width="1826" height="363" viewBox="0 0 1826 363" fill="none" xmlns="http://www.w3.org/2000/svg">
<rect width="1826" height="363" fill="black"/>
<line y1="54.75" x2="1826" y2="54.75" stroke="white" stroke-width="0.5"/>
<path d="M129 55H217V59C217 60.6569 215.657 62 214 62H132C130.343 62 129 60.6569 129 59V55Z" fill="white"/>
<path d="M499 55H587V59C587 60.6569 585.657 62 584 62H502C500.343 62 499 60.6569 499 59V55Z" fill="white"/>
<path d="M869 55H957V59C957 60.6569 955.657 62 954 62H872C870.343 62 869 60.6569 869 59V55Z" fill="white"/>
<path d="M1239 55H1327V59C1327 60.6569 1325.66 62 1324 62H1242C1240.34 62 1239 60.6569 1239 59V55Z" fill="white"/>
<path d="M1609 55H1697V59C1697 60.6569 1695.66 62 1694 62H1612C1610.34 62 1609 60.6569 1609 59V55Z" fill="white"/>
<path d="M499.146 85.7749H513.172V89.2783H508.155V104H504.127V89.2783H499.146V85.7749ZM511.561 97.2983C511.561 95.1336 512.155 93.4328 513.343 92.1958C514.548 90.967 516.147 90.3525 518.141 90.3525C520.053 90.3525 521.579 90.91 522.718 92.0249C523.882 93.1154 524.464 94.625 524.464 96.5537C524.464 97.0827 524.431 97.6239 524.366 98.1772H515.467V98.8975C515.467 99.6299 515.715 100.224 516.212 100.68C516.708 101.127 517.359 101.351 518.165 101.351C518.824 101.351 519.386 101.213 519.85 100.936C520.322 100.651 520.635 100.273 520.79 99.8008H524.562C524.285 101.144 523.577 102.226 522.438 103.048C521.298 103.845 519.882 104.244 518.189 104.244C516.114 104.244 514.491 103.622 513.319 102.376C512.147 101.131 511.561 99.4386 511.561 97.2983ZM515.467 95.4795V95.6748H520.667V95.4307C520.667 94.7796 520.427 94.2547 519.947 93.856C519.475 93.4491 518.857 93.2456 518.092 93.2456C517.302 93.2456 516.668 93.4531 516.188 93.8682C515.707 94.2751 515.467 94.8122 515.467 95.4795ZM525.917 100.13C525.917 98.8364 526.352 97.8192 527.223 97.0786C528.102 96.3299 529.294 95.9556 530.799 95.9556H534.339V95.1743C534.339 93.9048 533.676 93.27 532.35 93.27C531.69 93.27 531.178 93.4206 530.812 93.7217C530.453 94.0146 530.254 94.4338 530.213 94.979H526.466C526.572 93.4979 527.158 92.3586 528.224 91.561C529.298 90.7554 530.73 90.3525 532.521 90.3525C534.49 90.3525 535.914 90.8286 536.793 91.7808C537.696 92.7329 538.148 93.8885 538.148 95.2476V101.351H539.796V104H536.988C536.223 104 535.662 103.878 535.304 103.634C534.946 103.382 534.718 102.979 534.62 102.425L534.547 101.974H534.364C534.111 102.665 533.607 103.219 532.85 103.634C532.093 104.041 531.214 104.244 530.213 104.244C528.903 104.244 527.857 103.874 527.076 103.133C526.303 102.385 525.917 101.384 525.917 100.13ZM529.774 99.5444V100.045C529.774 100.932 530.372 101.375 531.568 101.375C532.423 101.375 533.098 101.139 533.595 100.667C534.091 100.187 534.339 99.5404 534.339 98.7266V98.2505H531.544C530.364 98.2505 529.774 98.6818 529.774 99.5444ZM545.655 104H541.859V90.5967H545.179L545.631 93.0747H545.887C546.628 91.2599 547.901 90.3525 549.708 90.3525C551.645 90.3525 552.927 91.2681 553.553 93.0991H553.834C554.599 91.2681 555.991 90.3525 558.009 90.3525C559.441 90.3525 560.532 90.8449 561.28 91.8296C562.029 92.8062 562.403 94.1693 562.403 95.9189V104H558.583V96.3462C558.583 94.4175 557.891 93.4531 556.507 93.4531C555.718 93.4531 555.108 93.7298 554.676 94.2832C554.245 94.8285 554.029 95.5771 554.029 96.5293V104H550.208V96.2974C550.208 94.4012 549.517 93.4531 548.133 93.4531C547.376 93.4531 546.774 93.7217 546.327 94.2588C545.879 94.7959 545.655 95.5161 545.655 96.4194V104Z" fill="#FF62CD"/>
<path d="M503.58 141.4H499.96V140.04H500.52C502.38 140.04 503.64 139.08 503.7 137.58H505.32V152H503.58V141.4ZM516.668 152H514.848V137.42H521.188C524.228 137.42 525.748 139.14 525.748 142.02C525.748 144.98 524.148 146.68 521.188 146.68H516.668V152ZM516.668 139.1V145.08H521.108C522.848 145.08 523.828 144.18 523.828 142.74V141.28C523.828 139.9 522.848 139.1 521.328 139.1H516.668ZM529.644 141.56H533.264V143H529.804V152H528.064V143.1C528.064 142.08 528.584 141.56 529.644 141.56ZM533.923 146.78C533.923 145.1 534.383 143.78 535.303 142.82C536.223 141.84 537.443 141.36 538.943 141.36C540.443 141.36 541.663 141.84 542.563 142.8C543.483 143.76 543.943 145.08 543.943 146.78C543.943 150.08 542.083 152.2 538.943 152.2C537.383 152.2 536.163 151.72 535.263 150.74C534.363 149.76 533.923 148.44 533.923 146.78ZM535.703 146.02V147.64C535.703 149.62 537.103 150.76 538.943 150.76C540.803 150.76 542.183 149.58 542.183 147.64V146.02C542.183 144.1 540.843 142.82 538.943 142.82C538.003 142.82 537.223 143.12 536.603 143.72C536.003 144.3 535.703 145.08 535.703 146.02ZM550.255 152.2C547.535 152.2 545.915 150.24 545.915 146.86C545.915 143.44 547.535 141.5 550.255 141.5C552.015 141.5 553.335 142.26 553.995 143.54H554.115V137.34H555.855V152H554.295L554.115 150.18H553.995C553.275 151.52 552.035 152.2 550.255 152.2ZM550.735 150.76C552.755 150.76 554.115 149.44 554.115 147.5V146.2C554.115 144.26 552.755 142.96 550.735 142.96C548.875 142.96 547.695 144.06 547.695 145.8V147.9C547.695 149.64 548.875 150.76 550.735 150.76ZM566.334 141.56H568.074V152H566.594L566.354 150.06H566.194C565.634 151.36 564.274 152.2 562.654 152.2C560.494 152.2 559.194 150.76 559.194 148.22V141.56H560.914V147.98C560.914 149.82 561.694 150.74 563.234 150.74C565.134 150.74 566.334 149.24 566.334 147.02V141.56ZM578.58 148.44H580.3C579.96 150.76 578.2 152.2 575.66 152.2C574.12 152.2 572.9 151.72 572.02 150.74C571.14 149.76 570.7 148.46 570.7 146.8C570.7 145.1 571.16 143.76 572.08 142.8C573 141.84 574.22 141.36 575.72 141.36C578.14 141.36 579.9 142.78 580.24 144.96H578.52C578.18 143.54 577.08 142.82 575.64 142.82C573.78 142.82 572.48 144.16 572.48 146.08V147.66C572.48 149.52 573.74 150.76 575.64 150.76C577.18 150.76 578.32 149.86 578.58 148.44ZM584.989 143V150.56H587.189V152H584.789C583.769 152 583.269 151.52 583.269 150.54V143H581.369V141.56H583.269V138.1H584.989V141.56H587.169V143H584.989ZM596.492 152H594.692V137.42H597.132L601.712 147.96H601.832L606.432 137.42H608.852V152H607.072V144.1L607.232 139.82H607.112L601.772 151.74L596.452 139.82H596.312L596.492 144.12V152ZM611.735 149C611.735 146.94 613.155 145.78 615.535 145.78H618.675V144.98C618.675 143.48 617.895 142.74 616.315 142.74C614.775 142.74 613.935 143.48 613.875 144.68H612.175C612.275 142.6 613.875 141.36 616.415 141.36C617.795 141.36 618.875 141.82 619.415 142.38C619.675 142.66 619.895 142.98 620.055 143.36C620.375 144.1 620.395 144.54 620.395 145.02V150.72H621.935V152H620.155C619.195 152 618.855 151.6 618.795 150.82L618.775 150.28H618.655C618.195 151.46 616.795 152.2 615.095 152.2C612.995 152.2 611.735 150.94 611.735 149ZM613.515 148.56V149.2C613.515 150.24 614.295 150.8 615.495 150.8C617.435 150.8 618.675 149.52 618.675 147.6V147.04H615.695C614.315 147.04 613.515 147.66 613.515 148.56ZM625.859 152H624.119V141.56H625.639L625.859 143.5H625.999C626.639 142.16 627.939 141.36 629.519 141.36C631.779 141.36 633.139 143 633.139 145.58V152H631.399V145.76C631.399 143.86 630.579 142.9 628.939 142.9C627.099 142.9 625.859 144.36 625.859 146.54V152ZM635.602 149C635.602 146.94 637.022 145.78 639.402 145.78H642.542V144.98C642.542 143.48 641.762 142.74 640.182 142.74C638.642 142.74 637.802 143.48 637.742 144.68H636.042C636.142 142.6 637.742 141.36 640.282 141.36C641.662 141.36 642.742 141.82 643.282 142.38C643.542 142.66 643.762 142.98 643.922 143.36C644.242 144.1 644.262 144.54 644.262 145.02V150.72H645.802V152H644.022C643.062 152 642.722 151.6 642.662 150.82L642.642 150.28H642.522C642.062 151.46 640.662 152.2 638.962 152.2C636.862 152.2 635.602 150.94 635.602 149ZM637.382 148.56V149.2C637.382 150.24 638.162 150.8 639.362 150.8C641.302 150.8 642.542 149.52 642.542 147.6V147.04H639.562C638.182 147.04 637.382 147.66 637.382 148.56ZM650.526 149.96H653.286C655.286 149.96 656.466 150.96 656.466 152.58C656.466 154.58 654.586 155.62 651.446 155.62C648.426 155.62 646.966 154.66 646.966 153.12C646.966 152.06 647.506 151.36 648.566 151.02V150.88C647.946 150.66 647.546 150.1 647.546 149.46C647.546 148.66 648.106 147.98 648.926 147.74V147.62C647.906 147 647.406 146.06 647.406 144.82C647.406 143.8 647.766 142.96 648.486 142.32C649.226 141.68 650.166 141.36 651.306 141.36C652.026 141.36 652.646 141.48 653.186 141.7V141.36C653.186 140.52 653.666 140.1 654.626 140.1H656.326V141.52H654.346V142.44C654.986 143.08 655.306 143.9 655.306 144.88C655.306 145.9 654.946 146.72 654.226 147.34C653.526 147.96 652.606 148.28 651.486 148.28C650.946 148.28 650.466 148.22 650.046 148.1C649.466 148.2 649.126 148.6 649.126 149.06C649.126 149.66 649.586 149.96 650.526 149.96ZM649.126 144.48V145.2C649.126 146.3 650.006 147.04 651.366 147.04C652.706 147.04 653.606 146.3 653.606 145.2V144.48C653.606 143.38 652.706 142.62 651.366 142.62C650.026 142.62 649.126 143.36 649.126 144.48ZM651.546 154.32C653.686 154.32 654.746 153.76 654.746 152.66C654.746 151.84 654.206 151.42 653.146 151.42H650.306C649.166 151.42 648.586 151.88 648.586 152.78C648.586 153.8 649.566 154.32 651.546 154.32ZM662.456 141.36C665.316 141.36 667.096 143.16 667.096 146.06C667.096 146.46 667.076 146.82 667.036 147.14H659.336V147.74C659.336 149.58 660.596 150.8 662.516 150.8C663.976 150.8 665.096 150.04 665.436 148.86H667.156C666.936 149.88 666.416 150.68 665.556 151.3C664.696 151.9 663.676 152.2 662.476 152.2C659.436 152.2 657.556 150.1 657.556 146.74C657.556 143.38 659.436 141.36 662.456 141.36ZM659.336 145.58V145.86H665.376V145.46C665.376 143.84 664.196 142.76 662.456 142.76C660.616 142.76 659.336 143.9 659.336 145.58ZM671.363 141.56H674.983V143H671.523V152H669.783V143.1C669.783 142.08 670.303 141.56 671.363 141.56ZM504.88 180.2C503.46 180.2 502.32 179.8 501.46 179.02C500.6 178.24 500.18 177.2 500.18 175.9V175.58H502V175.82C502 177.6 503.02 178.66 504.84 178.66C506.58 178.66 507.76 177.72 507.76 176.34V175.6C507.76 174.1 506.6 173.3 504.76 173.3H503.74V171.82H504.74C506.48 171.82 507.52 170.92 507.52 169.54V169.12C507.52 167.78 506.46 166.96 504.96 166.96C503.26 166.96 502.18 168.08 502.18 169.76V169.96H500.46V169.72C500.46 168.44 500.88 167.4 501.7 166.6C502.52 165.8 503.62 165.4 505 165.4C506.3 165.4 507.34 165.76 508.14 166.46C508.94 167.16 509.34 168.06 509.34 169.2C509.34 170.7 508.64 171.8 507.24 172.46V172.58C508.84 173.14 509.6 174.48 509.6 176.06C509.6 177.3 509.16 178.3 508.3 179.06C507.44 179.82 506.3 180.2 504.88 180.2ZM519.363 180H517.543V165.42H523.883C526.923 165.42 528.443 167.14 528.443 170.02C528.443 172.98 526.843 174.68 523.883 174.68H519.363V180ZM519.363 167.1V173.08H523.803C525.543 173.08 526.523 172.18 526.523 170.74V169.28C526.523 167.9 525.543 167.1 524.023 167.1H519.363ZM532.34 169.56H535.96V171H532.5V180H530.76V171.1C530.76 170.08 531.28 169.56 532.34 169.56ZM536.618 174.78C536.618 173.1 537.078 171.78 537.998 170.82C538.918 169.84 540.138 169.36 541.638 169.36C543.138 169.36 544.358 169.84 545.258 170.8C546.178 171.76 546.638 173.08 546.638 174.78C546.638 178.08 544.778 180.2 541.638 180.2C540.078 180.2 538.858 179.72 537.958 178.74C537.058 177.76 536.618 176.44 536.618 174.78ZM538.398 174.02V175.64C538.398 177.62 539.798 178.76 541.638 178.76C543.498 178.76 544.878 177.58 544.878 175.64V174.02C544.878 172.1 543.538 170.82 541.638 170.82C540.698 170.82 539.918 171.12 539.298 171.72C538.698 172.3 538.398 173.08 538.398 174.02ZM552.95 180.2C550.23 180.2 548.61 178.24 548.61 174.86C548.61 171.44 550.23 169.5 552.95 169.5C554.71 169.5 556.03 170.26 556.69 171.54H556.81V165.34H558.55V180H556.99L556.81 178.18H556.69C555.97 179.52 554.73 180.2 552.95 180.2ZM553.43 178.76C555.45 178.76 556.81 177.44 556.81 175.5V174.2C556.81 172.26 555.45 170.96 553.43 170.96C551.57 170.96 550.39 172.06 550.39 173.8V175.9C550.39 177.64 551.57 178.76 553.43 178.76ZM569.029 169.56H570.769V180H569.289L569.049 178.06H568.889C568.329 179.36 566.969 180.2 565.349 180.2C563.189 180.2 561.889 178.76 561.889 176.22V169.56H563.609V175.98C563.609 177.82 564.389 178.74 565.929 178.74C567.829 178.74 569.029 177.24 569.029 175.02V169.56ZM581.276 176.44H582.996C582.656 178.76 580.896 180.2 578.356 180.2C576.816 180.2 575.596 179.72 574.716 178.74C573.836 177.76 573.396 176.46 573.396 174.8C573.396 173.1 573.856 171.76 574.776 170.8C575.696 169.84 576.916 169.36 578.416 169.36C580.836 169.36 582.596 170.78 582.936 172.96H581.216C580.876 171.54 579.776 170.82 578.336 170.82C576.476 170.82 575.176 172.16 575.176 174.08V175.66C575.176 177.52 576.436 178.76 578.336 178.76C579.876 178.76 581.016 177.86 581.276 176.44ZM587.685 171V178.56H589.885V180H587.485C586.465 180 585.965 179.52 585.965 178.54V171H584.065V169.56H585.965V166.1H587.685V169.56H589.865V171H587.685ZM603.287 180H597.387V165.42H603.287C607.627 165.42 609.407 167.92 609.407 172.72C609.407 177.54 607.607 180 603.287 180ZM599.207 167.08V178.34H603.267C606.147 178.34 607.487 177.02 607.487 173.92V171.52C607.487 168.38 606.087 167.08 603.267 167.08H599.207ZM616.323 169.36C619.183 169.36 620.963 171.16 620.963 174.06C620.963 174.46 620.943 174.82 620.903 175.14H613.203V175.74C613.203 177.58 614.463 178.8 616.383 178.8C617.843 178.8 618.963 178.04 619.303 176.86H621.023C620.803 177.88 620.283 178.68 619.423 179.3C618.563 179.9 617.543 180.2 616.343 180.2C613.303 180.2 611.423 178.1 611.423 174.74C611.423 171.38 613.303 169.36 616.323 169.36ZM613.203 173.58V173.86H619.243V173.46C619.243 171.84 618.063 170.76 616.323 170.76C614.483 170.76 613.203 171.9 613.203 173.58ZM622.75 176.84H624.47C624.47 178.06 625.47 178.84 627.01 178.84C628.47 178.84 629.35 178.2 629.35 177.1C629.35 176.32 628.89 175.84 627.97 175.66L625.73 175.24C623.87 174.9 622.95 173.98 622.95 172.48C622.95 170.54 624.49 169.36 626.89 169.36C629.37 169.36 630.87 170.62 630.89 172.54H629.17C629.13 171.32 628.37 170.7 626.89 170.7C625.47 170.7 624.69 171.32 624.69 172.3C624.69 172.86 624.93 173.26 625.35 173.48C625.77 173.66 625.95 173.72 626.37 173.8L628.43 174.18C630.25 174.5 631.17 175.44 631.17 177C631.17 179 629.55 180.2 627.01 180.2C624.37 180.2 622.75 178.86 622.75 176.84ZM635.448 167.62H633.728V165.34H635.448V167.62ZM635.448 180H633.728V169.56H635.448V180ZM641.464 177.96H644.224C646.224 177.96 647.404 178.96 647.404 180.58C647.404 182.58 645.524 183.62 642.384 183.62C639.364 183.62 637.904 182.66 637.904 181.12C637.904 180.06 638.444 179.36 639.504 179.02V178.88C638.884 178.66 638.484 178.1 638.484 177.46C638.484 176.66 639.044 175.98 639.864 175.74V175.62C638.844 175 638.344 174.06 638.344 172.82C638.344 171.8 638.704 170.96 639.424 170.32C640.164 169.68 641.104 169.36 642.244 169.36C642.964 169.36 643.584 169.48 644.124 169.7V169.36C644.124 168.52 644.604 168.1 645.564 168.1H647.264V169.52H645.284V170.44C645.924 171.08 646.244 171.9 646.244 172.88C646.244 173.9 645.884 174.72 645.164 175.34C644.464 175.96 643.544 176.28 642.424 176.28C641.884 176.28 641.404 176.22 640.984 176.1C640.404 176.2 640.064 176.6 640.064 177.06C640.064 177.66 640.524 177.96 641.464 177.96ZM640.064 172.48V173.2C640.064 174.3 640.944 175.04 642.304 175.04C643.644 175.04 644.544 174.3 644.544 173.2V172.48C644.544 171.38 643.644 170.62 642.304 170.62C640.964 170.62 640.064 171.36 640.064 172.48ZM642.484 182.32C644.624 182.32 645.684 181.76 645.684 180.66C645.684 179.84 645.144 179.42 644.084 179.42H641.244C640.104 179.42 639.524 179.88 639.524 180.78C639.524 181.8 640.504 182.32 642.484 182.32ZM651.289 180H649.549V169.56H651.069L651.289 171.5H651.429C652.069 170.16 653.369 169.36 654.949 169.36C657.209 169.36 658.569 171 658.569 173.58V180H656.829V173.76C656.829 171.86 656.009 170.9 654.369 170.9C652.529 170.9 651.289 172.36 651.289 174.54V180ZM665.952 169.36C668.812 169.36 670.592 171.16 670.592 174.06C670.592 174.46 670.572 174.82 670.532 175.14H662.832V175.74C662.832 177.58 664.092 178.8 666.012 178.8C667.472 178.8 668.592 178.04 668.932 176.86H670.652C670.432 177.88 669.912 178.68 669.052 179.3C668.192 179.9 667.172 180.2 665.972 180.2C662.932 180.2 661.052 178.1 661.052 174.74C661.052 171.38 662.932 169.36 665.952 169.36ZM662.832 173.58V173.86H668.872V173.46C668.872 171.84 667.692 170.76 665.952 170.76C664.112 170.76 662.832 171.9 662.832 173.58ZM674.859 169.56H678.479V171H675.019V180H673.279V171.1C673.279 170.08 673.799 169.56 674.859 169.56ZM679.274 176.84H680.994C680.994 178.06 681.994 178.84 683.534 178.84C684.994 178.84 685.874 178.2 685.874 177.1C685.874 176.32 685.414 175.84 684.494 175.66L682.254 175.24C680.394 174.9 679.474 173.98 679.474 172.48C679.474 170.54 681.014 169.36 683.414 169.36C685.894 169.36 687.394 170.62 687.414 172.54H685.694C685.654 171.32 684.894 170.7 683.414 170.7C681.994 170.7 681.214 171.32 681.214 172.3C681.214 172.86 681.454 173.26 681.874 173.48C682.294 173.66 682.474 173.72 682.894 173.8L684.954 174.18C686.774 174.5 687.694 175.44 687.694 177C687.694 179 686.074 180.2 683.534 180.2C680.894 180.2 679.274 178.86 679.274 176.84ZM504.88 208.2C503.46 208.2 502.32 207.8 501.46 207.02C500.6 206.24 500.18 205.2 500.18 203.9V203.58H502V203.82C502 205.6 503.02 206.66 504.84 206.66C506.58 206.66 507.76 205.72 507.76 204.34V203.6C507.76 202.1 506.6 201.3 504.76 201.3H503.74V199.82H504.74C506.48 199.82 507.52 198.92 507.52 197.54V197.12C507.52 195.78 506.46 194.96 504.96 194.96C503.26 194.96 502.18 196.08 502.18 197.76V197.96H500.46V197.72C500.46 196.44 500.88 195.4 501.7 194.6C502.52 193.8 503.62 193.4 505 193.4C506.3 193.4 507.34 193.76 508.14 194.46C508.94 195.16 509.34 196.06 509.34 197.2C509.34 198.7 508.64 199.8 507.24 200.46V200.58C508.84 201.14 509.6 202.48 509.6 204.06C509.6 205.3 509.16 206.3 508.3 207.06C507.44 207.82 506.3 208.2 504.88 208.2ZM516.483 203.5H518.363C518.383 205.6 519.903 206.72 522.243 206.72C524.423 206.72 525.803 205.7 525.803 204.02C525.803 203.14 525.483 202.52 524.863 202.2C524.243 201.86 524.043 201.8 523.483 201.66L520.923 201.08L519.983 200.86C519.763 200.8 519.423 200.66 518.963 200.46C518.523 200.24 518.163 200.02 517.903 199.78C517.403 199.3 516.883 198.38 516.883 197.26C516.883 196 517.343 195.02 518.283 194.3C519.223 193.58 520.443 193.22 521.983 193.22C523.563 193.22 524.823 193.6 525.783 194.34C526.743 195.08 527.243 196.12 527.263 197.44H525.403C525.303 195.68 524.003 194.7 521.983 194.7C519.983 194.7 518.783 195.64 518.783 197.08C518.783 197.86 519.123 198.44 519.743 198.78C520.383 199.1 520.743 199.2 521.383 199.34L524.123 199.94C526.523 200.46 527.723 201.76 527.723 203.84C527.723 205.22 527.223 206.28 526.203 207.06C525.203 207.82 523.863 208.2 522.183 208.2C520.343 208.2 518.923 207.76 517.943 206.88C516.963 205.98 516.483 204.86 516.483 203.5ZM529.802 202.78C529.802 201.1 530.262 199.78 531.182 198.82C532.102 197.84 533.322 197.36 534.822 197.36C536.322 197.36 537.542 197.84 538.442 198.8C539.362 199.76 539.822 201.08 539.822 202.78C539.822 206.08 537.962 208.2 534.822 208.2C533.262 208.2 532.042 207.72 531.142 206.74C530.242 205.76 529.802 204.44 529.802 202.78ZM531.582 202.02V203.64C531.582 205.62 532.982 206.76 534.822 206.76C536.682 206.76 538.062 205.58 538.062 203.64V202.02C538.062 200.1 536.722 198.82 534.822 198.82C533.882 198.82 533.102 199.12 532.482 199.72C531.882 200.3 531.582 201.08 531.582 202.02ZM551.419 199V206.56H553.639V208H551.239C550.219 208 549.719 207.52 549.719 206.54V199H544.759V208H543.039V199H540.999V197.56H543.039V194.78C543.039 193.82 543.599 193.34 544.699 193.34H547.459V194.76H544.759V197.56H549.719V194.1H551.419V197.56H553.619V199H551.419ZM565.869 203.16L567.309 197.56H569.129L566.209 208H563.949L562.609 202.64L561.929 199.68H561.809L561.169 202.64L559.889 208H557.589L554.649 197.56H556.529L557.989 203.1L558.669 206.28H558.809L560.849 197.56H562.949L565.089 206.24H565.189L565.869 203.16ZM570.153 205C570.153 202.94 571.573 201.78 573.953 201.78H577.093V200.98C577.093 199.48 576.313 198.74 574.733 198.74C573.193 198.74 572.353 199.48 572.293 200.68H570.593C570.693 198.6 572.293 197.36 574.833 197.36C576.213 197.36 577.293 197.82 577.833 198.38C578.093 198.66 578.313 198.98 578.473 199.36C578.793 200.1 578.813 200.54 578.813 201.02V206.72H580.353V208H578.573C577.613 208 577.273 207.6 577.213 206.82L577.193 206.28H577.073C576.613 207.46 575.213 208.2 573.513 208.2C571.413 208.2 570.153 206.94 570.153 205ZM571.933 204.56V205.2C571.933 206.24 572.713 206.8 573.913 206.8C575.853 206.8 577.093 205.52 577.093 203.6V203.04H574.113C572.733 203.04 571.933 203.66 571.933 204.56ZM584.117 197.56H587.737V199H584.277V208H582.537V199.1C582.537 198.08 583.057 197.56 584.117 197.56ZM593.296 197.36C596.156 197.36 597.936 199.16 597.936 202.06C597.936 202.46 597.916 202.82 597.876 203.14H590.176V203.74C590.176 205.58 591.436 206.8 593.356 206.8C594.816 206.8 595.936 206.04 596.276 204.86H597.996C597.776 205.88 597.256 206.68 596.396 207.3C595.536 207.9 594.516 208.2 593.316 208.2C590.276 208.2 588.396 206.1 588.396 202.74C588.396 199.38 590.276 197.36 593.296 197.36ZM590.176 201.58V201.86H596.216V201.46C596.216 199.84 595.036 198.76 593.296 198.76C591.456 198.76 590.176 199.9 590.176 201.58ZM615.271 208H605.571V193.42H615.271V195.08H607.391V199.7H614.291V201.28H607.391V206.34H615.271V208ZM619.609 208H617.869V197.56H619.389L619.609 199.5H619.749C620.389 198.16 621.689 197.36 623.269 197.36C625.529 197.36 626.889 199 626.889 201.58V208H625.149V201.76C625.149 199.86 624.329 198.9 622.689 198.9C620.849 198.9 619.609 200.36 619.609 202.54V208ZM632.772 205.96H635.532C637.532 205.96 638.712 206.96 638.712 208.58C638.712 210.58 636.832 211.62 633.692 211.62C630.672 211.62 629.212 210.66 629.212 209.12C629.212 208.06 629.752 207.36 630.812 207.02V206.88C630.192 206.66 629.792 206.1 629.792 205.46C629.792 204.66 630.352 203.98 631.172 203.74V203.62C630.152 203 629.652 202.06 629.652 200.82C629.652 199.8 630.012 198.96 630.732 198.32C631.472 197.68 632.412 197.36 633.552 197.36C634.272 197.36 634.892 197.48 635.432 197.7V197.36C635.432 196.52 635.912 196.1 636.872 196.1H638.572V197.52H636.592V198.44C637.232 199.08 637.552 199.9 637.552 200.88C637.552 201.9 637.192 202.72 636.472 203.34C635.772 203.96 634.852 204.28 633.732 204.28C633.192 204.28 632.712 204.22 632.292 204.1C631.712 204.2 631.372 204.6 631.372 205.06C631.372 205.66 631.832 205.96 632.772 205.96ZM631.372 200.48V201.2C631.372 202.3 632.252 203.04 633.612 203.04C634.952 203.04 635.852 202.3 635.852 201.2V200.48C635.852 199.38 634.952 198.62 633.612 198.62C632.272 198.62 631.372 199.36 631.372 200.48ZM633.792 210.32C635.932 210.32 636.992 209.76 636.992 208.66C636.992 207.84 636.452 207.42 635.392 207.42H632.552C631.412 207.42 630.832 207.88 630.832 208.78C630.832 209.8 631.812 210.32 633.792 210.32ZM642.577 195.62H640.857V193.34H642.577V195.62ZM642.577 208H640.857V197.56H642.577V208ZM647.793 208H646.053V197.56H647.573L647.793 199.5H647.933C648.573 198.16 649.873 197.36 651.453 197.36C653.713 197.36 655.073 199 655.073 201.58V208H653.333V201.76C653.333 199.86 652.513 198.9 650.873 198.9C649.033 198.9 647.793 200.36 647.793 202.54V208ZM662.456 197.36C665.316 197.36 667.096 199.16 667.096 202.06C667.096 202.46 667.076 202.82 667.036 203.14H659.336V203.74C659.336 205.58 660.596 206.8 662.516 206.8C663.976 206.8 665.096 206.04 665.436 204.86H667.156C666.936 205.88 666.416 206.68 665.556 207.3C664.696 207.9 663.676 208.2 662.476 208.2C659.436 208.2 657.556 206.1 657.556 202.74C657.556 199.38 659.436 197.36 662.456 197.36ZM659.336 201.58V201.86H665.376V201.46C665.376 199.84 664.196 198.76 662.456 198.76C660.616 198.76 659.336 199.9 659.336 201.58ZM674.018 197.36C676.878 197.36 678.658 199.16 678.658 202.06C678.658 202.46 678.638 202.82 678.598 203.14H670.898V203.74C670.898 205.58 672.158 206.8 674.078 206.8C675.538 206.8 676.658 206.04 676.998 204.86H678.718C678.498 205.88 677.978 206.68 677.118 207.3C676.258 207.9 675.238 208.2 674.038 208.2C670.998 208.2 669.118 206.1 669.118 202.74C669.118 199.38 670.998 197.36 674.018 197.36ZM670.898 201.58V201.86H676.938V201.46C676.938 199.84 675.758 198.76 674.018 198.76C672.178 198.76 670.898 199.9 670.898 201.58ZM682.925 197.56H686.545V199H683.085V208H681.345V199.1C681.345 198.08 681.865 197.56 682.925 197.56ZM687.34 204.84H689.06C689.06 206.06 690.06 206.84 691.6 206.84C693.06 206.84 693.94 206.2 693.94 205.1C693.94 204.32 693.48 203.84 692.56 203.66L690.32 203.24C688.46 202.9 687.54 201.98 687.54 200.48C687.54 198.54 689.08 197.36 691.48 197.36C693.96 197.36 695.46 198.62 695.48 200.54H693.76C693.72 199.32 692.96 198.7 691.48 198.7C690.06 198.7 689.28 199.32 689.28 200.3C689.28 200.86 689.52 201.26 689.94 201.48C690.36 201.66 690.54 201.72 690.96 201.8L693.02 202.18C694.84 202.5 695.76 203.44 695.76 205C695.76 207 694.14 208.2 691.6 208.2C688.96 208.2 687.34 206.86 687.34 204.84Z" fill="white"/>
<path d="M878.729 104H870.929V85.7749H878.729C884.206 85.7749 886.944 88.8185 886.944 94.9058C886.944 100.969 884.206 104 878.729 104ZM874.969 89.2539V100.521H878.619C880.108 100.521 881.162 100.204 881.781 99.5688C882.407 98.9259 882.721 97.8883 882.721 96.4561V93.3311C882.721 91.8499 882.391 90.8001 881.732 90.1816C881.081 89.5632 880.043 89.2539 878.619 89.2539H874.969ZM888.641 97.2983C888.641 95.1336 889.235 93.4328 890.423 92.1958C891.628 90.967 893.227 90.3525 895.221 90.3525C897.133 90.3525 898.659 90.91 899.798 92.0249C900.962 93.1154 901.544 94.625 901.544 96.5537C901.544 97.0827 901.511 97.6239 901.446 98.1772H892.547V98.8975C892.547 99.6299 892.796 100.224 893.292 100.68C893.788 101.127 894.439 101.351 895.245 101.351C895.904 101.351 896.466 101.213 896.93 100.936C897.402 100.651 897.715 100.273 897.87 99.8008H901.642C901.365 101.144 900.657 102.226 899.518 103.048C898.378 103.845 896.962 104.244 895.27 104.244C893.194 104.244 891.571 103.622 890.399 102.376C889.227 101.131 888.641 99.4386 888.641 97.2983ZM892.547 95.4795V95.6748H897.748V95.4307C897.748 94.7796 897.507 94.2547 897.027 93.856C896.555 93.4491 895.937 93.2456 895.172 93.2456C894.382 93.2456 893.748 93.4531 893.268 93.8682C892.787 94.2751 892.547 94.8122 892.547 95.4795ZM907.721 104H903.924V85.3965H907.721V104ZM914.63 89.1196H910.833V85.3965H914.63V89.1196ZM914.63 104H910.833V90.5967H914.63V104ZM920.562 104L916.046 90.5967H920.147L921.673 96.1753L922.845 100.704H922.992L924.164 96.1997L925.689 90.5967H929.815L925.287 104H920.562ZM930.194 97.2983C930.194 95.1336 930.788 93.4328 931.976 92.1958C933.181 90.967 934.78 90.3525 936.773 90.3525C938.686 90.3525 940.212 90.91 941.351 92.0249C942.515 93.1154 943.097 94.625 943.097 96.5537C943.097 97.0827 943.064 97.6239 942.999 98.1772H934.1V98.8975C934.1 99.6299 934.348 100.224 934.845 100.68C935.341 101.127 935.992 101.351 936.798 101.351C937.457 101.351 938.019 101.213 938.482 100.936C938.954 100.651 939.268 100.273 939.422 99.8008H943.194C942.918 101.144 942.21 102.226 941.07 103.048C939.931 103.845 938.515 104.244 936.822 104.244C934.747 104.244 933.124 103.622 931.952 102.376C930.78 101.131 930.194 99.4386 930.194 97.2983ZM934.1 95.4795V95.6748H939.3V95.4307C939.3 94.7796 939.06 94.2547 938.58 93.856C938.108 93.4491 937.49 93.2456 936.725 93.2456C935.935 93.2456 935.3 93.4531 934.82 93.8682C934.34 94.2751 934.1 94.8122 934.1 95.4795ZM948.7 90.5967H953.253V93.6729H949.273V104H945.477V93.8193C945.477 93.3636 945.51 92.9811 945.575 92.6719C945.648 92.3545 945.782 92.029 945.978 91.6953C946.401 90.9629 947.308 90.5967 948.7 90.5967ZM953.631 100.13C953.631 98.8364 954.067 97.8192 954.938 97.0786C955.816 96.3299 957.009 95.9556 958.514 95.9556H962.054V95.1743C962.054 93.9048 961.391 93.27 960.064 93.27C959.405 93.27 958.893 93.4206 958.526 93.7217C958.168 94.0146 957.969 94.4338 957.928 94.979H954.181C954.286 93.4979 954.872 92.3586 955.938 91.561C957.013 90.7554 958.445 90.3525 960.235 90.3525C962.205 90.3525 963.629 90.8286 964.508 91.7808C965.411 92.7329 965.863 93.8885 965.863 95.2476V101.351H967.511V104H964.703C963.938 104 963.377 103.878 963.019 103.634C962.66 103.382 962.433 102.979 962.335 102.425L962.262 101.974H962.079C961.826 102.665 961.322 103.219 960.565 103.634C959.808 104.041 958.929 104.244 957.928 104.244C956.618 104.244 955.572 103.874 954.791 103.133C954.018 102.385 953.631 101.384 953.631 100.13ZM957.489 99.5444V100.045C957.489 100.932 958.087 101.375 959.283 101.375C960.138 101.375 960.813 101.139 961.31 100.667C961.806 100.187 962.054 99.5404 962.054 98.7266V98.2505H959.259C958.079 98.2505 957.489 98.6818 957.489 99.5444ZM972.894 104H969.574V85.3965H973.37V93.0503H973.602C973.919 92.2284 974.465 91.5732 975.238 91.085C976.011 90.5967 976.914 90.3525 977.948 90.3525C979.689 90.3525 981.044 90.967 982.013 92.1958C982.989 93.4165 983.478 95.1255 983.478 97.3228C983.478 99.5037 982.997 101.205 982.037 102.425C981.077 103.638 979.738 104.244 978.021 104.244C977.02 104.244 976.129 104.012 975.348 103.548C974.566 103.084 973.985 102.433 973.602 101.595H973.37L972.894 104ZM973.37 96.749V97.8965C973.37 98.8893 973.667 99.6868 974.261 100.289C974.855 100.883 975.653 101.18 976.654 101.18C977.606 101.18 978.334 100.932 978.839 100.436C979.343 99.9391 979.596 99.2596 979.596 98.397V96.2485C979.596 95.3452 979.331 94.6535 978.802 94.1733C978.281 93.6932 977.557 93.4531 976.629 93.4531C975.637 93.4531 974.843 93.7542 974.249 94.3564C973.663 94.9505 973.37 95.748 973.37 96.749ZM989.557 104H985.76V85.3965H989.557V104ZM991.766 97.2983C991.766 95.1336 992.36 93.4328 993.548 92.1958C994.753 90.967 996.352 90.3525 998.346 90.3525C1000.26 90.3525 1001.78 90.91 1002.92 92.0249C1004.09 93.1154 1004.67 94.625 1004.67 96.5537C1004.67 97.0827 1004.64 97.6239 1004.57 98.1772H995.672V98.8975C995.672 99.6299 995.921 100.224 996.417 100.68C996.913 101.127 997.564 101.351 998.37 101.351C999.029 101.351 999.591 101.213 1000.05 100.936C1000.53 100.651 1000.84 100.273 1000.99 99.8008H1004.77C1004.49 101.144 1003.78 102.226 1002.64 103.048C1001.5 103.845 1000.09 104.244 998.395 104.244C996.319 104.244 994.696 103.622 993.524 102.376C992.352 101.131 991.766 99.4386 991.766 97.2983ZM995.672 95.4795V95.6748H1000.87V95.4307C1000.87 94.7796 1000.63 94.2547 1000.15 93.856C999.68 93.4491 999.062 93.2456 998.297 93.2456C997.507 93.2456 996.873 93.4531 996.393 93.8682C995.912 94.2751 995.672 94.8122 995.672 95.4795ZM1006.22 99.8008H1010C1010 100.362 1010.19 100.794 1010.58 101.095C1010.97 101.396 1011.51 101.546 1012.2 101.546C1012.83 101.546 1013.31 101.428 1013.64 101.192C1013.98 100.956 1014.15 100.627 1014.15 100.204C1014.11 99.7642 1013.97 99.459 1013.73 99.2881C1013.49 99.1172 1013.17 99.0033 1012.75 98.9463L1010.37 98.5557C1007.74 98.0755 1006.43 96.7816 1006.43 94.6738C1006.43 93.3229 1006.92 92.265 1007.92 91.5C1008.92 90.735 1010.28 90.3525 1011.99 90.3525C1013.72 90.3525 1015.08 90.735 1016.08 91.5C1017.08 92.2568 1017.6 93.2822 1017.65 94.5762H1013.87C1013.85 93.5589 1013.21 93.0503 1011.97 93.0503C1011.42 93.0503 1011 93.1602 1010.7 93.3799C1010.4 93.5996 1010.25 93.9129 1010.25 94.3198C1010.25 94.6453 1010.36 94.9058 1010.58 95.1011C1010.72 95.2231 1010.86 95.3167 1011 95.3818C1011.15 95.4469 1011.27 95.4917 1011.37 95.5161C1011.48 95.5324 1011.68 95.5609 1011.97 95.6016L1014.28 95.98C1016.77 96.3543 1018.02 97.6361 1018.02 99.8252C1018.02 101.209 1017.5 102.291 1016.45 103.072C1015.41 103.854 1013.98 104.244 1012.18 104.244C1010.33 104.244 1008.87 103.841 1007.81 103.036C1006.75 102.23 1006.22 101.152 1006.22 99.8008Z" fill="#FF62CD"/>
<path d="M872.84 152H871.02V137.42H880.56V139.08H872.84V144.66H879.76V146.24H872.84V152ZM884.687 139.62H882.967V137.34H884.687V139.62ZM884.687 152H882.967V141.56H884.687V152ZM890.702 149.96H893.462C895.462 149.96 896.642 150.96 896.642 152.58C896.642 154.58 894.762 155.62 891.622 155.62C888.602 155.62 887.142 154.66 887.142 153.12C887.142 152.06 887.682 151.36 888.742 151.02V150.88C888.122 150.66 887.722 150.1 887.722 149.46C887.722 148.66 888.282 147.98 889.102 147.74V147.62C888.082 147 887.582 146.06 887.582 144.82C887.582 143.8 887.942 142.96 888.662 142.32C889.402 141.68 890.342 141.36 891.482 141.36C892.202 141.36 892.822 141.48 893.362 141.7V141.36C893.362 140.52 893.842 140.1 894.802 140.1H896.502V141.52H894.522V142.44C895.162 143.08 895.482 143.9 895.482 144.88C895.482 145.9 895.122 146.72 894.402 147.34C893.702 147.96 892.782 148.28 891.662 148.28C891.122 148.28 890.642 148.22 890.222 148.1C889.642 148.2 889.302 148.6 889.302 149.06C889.302 149.66 889.762 149.96 890.702 149.96ZM889.302 144.48V145.2C889.302 146.3 890.182 147.04 891.542 147.04C892.882 147.04 893.782 146.3 893.782 145.2V144.48C893.782 143.38 892.882 142.62 891.542 142.62C890.202 142.62 889.302 143.36 889.302 144.48ZM891.722 154.32C893.862 154.32 894.922 153.76 894.922 152.66C894.922 151.84 894.382 151.42 893.322 151.42H890.482C889.342 151.42 888.762 151.88 888.762 152.78C888.762 153.8 889.742 154.32 891.722 154.32ZM900.527 152H898.787V141.56H900.287L900.507 143.5H900.667C901.287 142.08 902.347 141.36 903.887 141.36C905.427 141.36 906.547 142.28 906.947 143.64H907.107C907.727 142.12 908.947 141.36 910.527 141.36C912.707 141.36 914.007 142.86 914.007 145.48V152H912.267V145.7C912.267 143.78 911.507 142.82 909.987 142.82C908.247 142.82 907.267 144.24 907.267 146.46V152H905.547V145.74C905.547 143.8 904.787 142.82 903.287 142.82C901.607 142.82 900.527 144.28 900.527 146.44V152ZM916.442 149C916.442 146.94 917.862 145.78 920.242 145.78H923.382V144.98C923.382 143.48 922.602 142.74 921.022 142.74C919.482 142.74 918.642 143.48 918.582 144.68H916.882C916.982 142.6 918.582 141.36 921.122 141.36C922.502 141.36 923.582 141.82 924.122 142.38C924.382 142.66 924.602 142.98 924.762 143.36C925.082 144.1 925.102 144.54 925.102 145.02V150.72H926.642V152H924.862C923.902 152 923.562 151.6 923.502 150.82L923.482 150.28H923.362C922.902 151.46 921.502 152.2 919.802 152.2C917.702 152.2 916.442 150.94 916.442 149ZM918.222 148.56V149.2C918.222 150.24 919.002 150.8 920.202 150.8C922.142 150.8 923.382 149.52 923.382 147.6V147.04H920.402C919.022 147.04 918.222 147.66 918.222 148.56ZM935.594 152H933.774V137.42H940.114C943.154 137.42 944.674 139.14 944.674 142.02C944.674 144.98 943.074 146.68 940.114 146.68H935.594V152ZM935.594 139.1V145.08H940.034C941.774 145.08 942.754 144.18 942.754 142.74V141.28C942.754 139.9 941.774 139.1 940.254 139.1H935.594ZM948.57 141.56H952.19V143H948.73V152H946.99V143.1C946.99 142.08 947.51 141.56 948.57 141.56ZM952.849 146.78C952.849 145.1 953.309 143.78 954.229 142.82C955.149 141.84 956.369 141.36 957.869 141.36C959.369 141.36 960.589 141.84 961.489 142.8C962.409 143.76 962.869 145.08 962.869 146.78C962.869 150.08 961.009 152.2 957.869 152.2C956.309 152.2 955.089 151.72 954.189 150.74C953.289 149.76 952.849 148.44 952.849 146.78ZM954.629 146.02V147.64C954.629 149.62 956.029 150.76 957.869 150.76C959.729 150.76 961.109 149.58 961.109 147.64V146.02C961.109 144.1 959.769 142.82 957.869 142.82C956.929 142.82 956.149 143.12 955.529 143.72C954.929 144.3 954.629 145.08 954.629 146.02ZM967.646 143V150.56H969.846V152H967.446C966.426 152 965.926 151.52 965.926 150.54V143H964.026V141.56H965.926V138.1H967.646V141.56H969.826V143H967.646ZM971.423 146.78C971.423 145.1 971.883 143.78 972.803 142.82C973.723 141.84 974.943 141.36 976.443 141.36C977.943 141.36 979.163 141.84 980.063 142.8C980.983 143.76 981.443 145.08 981.443 146.78C981.443 150.08 979.583 152.2 976.443 152.2C974.883 152.2 973.663 151.72 972.763 150.74C971.863 149.76 971.423 148.44 971.423 146.78ZM973.203 146.02V147.64C973.203 149.62 974.603 150.76 976.443 150.76C978.303 150.76 979.683 149.58 979.683 147.64V146.02C979.683 144.1 978.343 142.82 976.443 142.82C975.503 142.82 974.723 143.12 974.103 143.72C973.503 144.3 973.203 145.08 973.203 146.02ZM986.22 143V150.56H988.42V152H986.02C985 152 984.5 151.52 984.5 150.54V143H982.6V141.56H984.5V138.1H986.22V141.56H988.4V143H986.22ZM993.554 150.76L989.214 141.56H991.114L992.634 144.98L994.334 148.98H994.454L997.714 141.56H999.614L995.274 150.78V153.8C995.274 154.82 994.774 155.34 993.754 155.34H991.094V153.92H993.554V150.76ZM1003.07 155.34H1001.33V141.56H1002.89L1003.07 143.4H1003.19C1003.89 142.1 1005.23 141.36 1006.93 141.36C1009.65 141.36 1011.27 143.32 1011.27 146.7C1011.27 150.12 1009.65 152.06 1006.93 152.06C1005.17 152.06 1003.85 151.3 1003.19 150.02H1003.07V155.34ZM1006.45 150.6C1008.31 150.6 1009.49 149.5 1009.49 147.76V145.66C1009.49 143.92 1008.31 142.8 1006.45 142.8C1004.43 142.8 1003.07 144.12 1003.07 146.06V147.36C1003.07 149.3 1004.43 150.6 1006.45 150.6ZM1018.12 141.36C1020.98 141.36 1022.76 143.16 1022.76 146.06C1022.76 146.46 1022.74 146.82 1022.7 147.14H1015V147.74C1015 149.58 1016.26 150.8 1018.18 150.8C1019.64 150.8 1020.76 150.04 1021.1 148.86H1022.82C1022.6 149.88 1022.08 150.68 1021.22 151.3C1020.36 151.9 1019.34 152.2 1018.14 152.2C1015.1 152.2 1013.22 150.1 1013.22 146.74C1013.22 143.38 1015.1 141.36 1018.12 141.36ZM1015 145.58V145.86H1021.04V145.46C1021.04 143.84 1019.86 142.76 1018.12 142.76C1016.28 142.76 1015 143.9 1015 145.58ZM876.92 180H871.02V165.42H876.92C881.26 165.42 883.04 167.92 883.04 172.72C883.04 177.54 881.24 180 876.92 180ZM872.84 167.08V178.34H876.9C879.78 178.34 881.12 177.02 881.12 173.92V171.52C881.12 168.38 879.72 167.08 876.9 167.08H872.84ZM889.956 169.36C892.816 169.36 894.596 171.16 894.596 174.06C894.596 174.46 894.576 174.82 894.536 175.14H886.836V175.74C886.836 177.58 888.096 178.8 890.016 178.8C891.476 178.8 892.596 178.04 892.936 176.86H894.656C894.436 177.88 893.916 178.68 893.056 179.3C892.196 179.9 891.176 180.2 889.976 180.2C886.936 180.2 885.056 178.1 885.056 174.74C885.056 171.38 886.936 169.36 889.956 169.36ZM886.836 173.58V173.86H892.876V173.46C892.876 171.84 891.696 170.76 889.956 170.76C888.116 170.76 886.836 171.9 886.836 173.58ZM896.383 176.84H898.103C898.103 178.06 899.103 178.84 900.643 178.84C902.103 178.84 902.983 178.2 902.983 177.1C902.983 176.32 902.523 175.84 901.603 175.66L899.363 175.24C897.503 174.9 896.583 173.98 896.583 172.48C896.583 170.54 898.123 169.36 900.523 169.36C903.003 169.36 904.503 170.62 904.523 172.54H902.803C902.763 171.32 902.003 170.7 900.523 170.7C899.103 170.7 898.323 171.32 898.323 172.3C898.323 172.86 898.563 173.26 898.983 173.48C899.403 173.66 899.583 173.72 900.003 173.8L902.063 174.18C903.883 174.5 904.803 175.44 904.803 177C904.803 179 903.183 180.2 900.643 180.2C898.003 180.2 896.383 178.86 896.383 176.84ZM909.081 167.62H907.361V165.34H909.081V167.62ZM909.081 180H907.361V169.56H909.081V180ZM915.096 177.96H917.856C919.856 177.96 921.036 178.96 921.036 180.58C921.036 182.58 919.156 183.62 916.016 183.62C912.996 183.62 911.536 182.66 911.536 181.12C911.536 180.06 912.076 179.36 913.136 179.02V178.88C912.516 178.66 912.116 178.1 912.116 177.46C912.116 176.66 912.676 175.98 913.496 175.74V175.62C912.476 175 911.976 174.06 911.976 172.82C911.976 171.8 912.336 170.96 913.056 170.32C913.796 169.68 914.736 169.36 915.876 169.36C916.596 169.36 917.216 169.48 917.756 169.7V169.36C917.756 168.52 918.236 168.1 919.196 168.1H920.896V169.52H918.916V170.44C919.556 171.08 919.876 171.9 919.876 172.88C919.876 173.9 919.516 174.72 918.796 175.34C918.096 175.96 917.176 176.28 916.056 176.28C915.516 176.28 915.036 176.22 914.616 176.1C914.036 176.2 913.696 176.6 913.696 177.06C913.696 177.66 914.156 177.96 915.096 177.96ZM913.696 172.48V173.2C913.696 174.3 914.576 175.04 915.936 175.04C917.276 175.04 918.176 174.3 918.176 173.2V172.48C918.176 171.38 917.276 170.62 915.936 170.62C914.596 170.62 913.696 171.36 913.696 172.48ZM916.116 182.32C918.256 182.32 919.316 181.76 919.316 180.66C919.316 179.84 918.776 179.42 917.716 179.42H914.876C913.736 179.42 913.156 179.88 913.156 180.78C913.156 181.8 914.136 182.32 916.116 182.32ZM924.921 180H923.181V169.56H924.701L924.921 171.5H925.061C925.701 170.16 927.001 169.36 928.581 169.36C930.841 169.36 932.201 171 932.201 173.58V180H930.461V173.76C930.461 171.86 929.641 170.9 928.001 170.9C926.161 170.9 924.921 172.36 924.921 174.54V180ZM939.433 175.5H941.313C941.333 177.6 942.853 178.72 945.193 178.72C947.373 178.72 948.753 177.7 948.753 176.02C948.753 175.14 948.433 174.52 947.813 174.2C947.193 173.86 946.993 173.8 946.433 173.66L943.873 173.08L942.933 172.86C942.713 172.8 942.373 172.66 941.913 172.46C941.473 172.24 941.113 172.02 940.853 171.78C940.353 171.3 939.833 170.38 939.833 169.26C939.833 168 940.293 167.02 941.233 166.3C942.173 165.58 943.393 165.22 944.933 165.22C946.513 165.22 947.773 165.6 948.733 166.34C949.693 167.08 950.193 168.12 950.213 169.44H948.353C948.253 167.68 946.953 166.7 944.933 166.7C942.933 166.7 941.733 167.64 941.733 169.08C941.733 169.86 942.073 170.44 942.693 170.78C943.333 171.1 943.693 171.2 944.333 171.34L947.073 171.94C949.473 172.46 950.673 173.76 950.673 175.84C950.673 177.22 950.173 178.28 949.153 179.06C948.153 179.82 946.813 180.2 945.133 180.2C943.293 180.2 941.873 179.76 940.893 178.88C939.913 177.98 939.433 176.86 939.433 175.5ZM956.191 178.76L951.851 169.56H953.751L955.271 172.98L956.971 176.98H957.091L960.351 169.56H962.251L957.911 178.78V181.8C957.911 182.82 957.411 183.34 956.391 183.34H953.731V181.92H956.191V178.76ZM962.828 176.84H964.548C964.548 178.06 965.548 178.84 967.088 178.84C968.548 178.84 969.428 178.2 969.428 177.1C969.428 176.32 968.968 175.84 968.048 175.66L965.808 175.24C963.948 174.9 963.028 173.98 963.028 172.48C963.028 170.54 964.568 169.36 966.968 169.36C969.448 169.36 970.948 170.62 970.968 172.54H969.248C969.208 171.32 968.448 170.7 966.968 170.7C965.548 170.7 964.768 171.32 964.768 172.3C964.768 172.86 965.008 173.26 965.428 173.48C965.848 173.66 966.028 173.72 966.448 173.8L968.508 174.18C970.328 174.5 971.248 175.44 971.248 177C971.248 179 969.628 180.2 967.088 180.2C964.448 180.2 962.828 178.86 962.828 176.84ZM975.946 171V178.56H978.146V180H975.746C974.726 180 974.226 179.52 974.226 178.54V171H972.326V169.56H974.226V166.1H975.946V169.56H978.126V171H975.946ZM984.624 169.36C987.484 169.36 989.264 171.16 989.264 174.06C989.264 174.46 989.244 174.82 989.204 175.14H981.504V175.74C981.504 177.58 982.764 178.8 984.684 178.8C986.144 178.8 987.264 178.04 987.604 176.86H989.324C989.104 177.88 988.584 178.68 987.724 179.3C986.864 179.9 985.844 180.2 984.644 180.2C981.604 180.2 979.724 178.1 979.724 174.74C979.724 171.38 981.604 169.36 984.624 169.36ZM981.504 173.58V173.86H987.544V173.46C987.544 171.84 986.364 170.76 984.624 170.76C982.784 170.76 981.504 171.9 981.504 173.58ZM993.691 180H991.951V169.56H993.451L993.671 171.5H993.831C994.451 170.08 995.511 169.36 997.051 169.36C998.591 169.36 999.711 170.28 1000.11 171.64H1000.27C1000.89 170.12 1002.11 169.36 1003.69 169.36C1005.87 169.36 1007.17 170.86 1007.17 173.48V180H1005.43V173.7C1005.43 171.78 1004.67 170.82 1003.15 170.82C1001.41 170.82 1000.43 172.24 1000.43 174.46V180H998.711V173.74C998.711 171.8 997.951 170.82 996.451 170.82C994.771 170.82 993.691 172.28 993.691 174.44V180ZM879.72 208H871.02V193.42H872.84V206.34H879.72V208ZM880.993 202.78C880.993 201.1 881.453 199.78 882.373 198.82C883.293 197.84 884.513 197.36 886.013 197.36C887.513 197.36 888.733 197.84 889.633 198.8C890.553 199.76 891.013 201.08 891.013 202.78C891.013 206.08 889.153 208.2 886.013 208.2C884.453 208.2 883.233 207.72 882.333 206.74C881.433 205.76 880.993 204.44 880.993 202.78ZM882.773 202.02V203.64C882.773 205.62 884.173 206.76 886.013 206.76C887.873 206.76 889.253 205.58 889.253 203.64V202.02C889.253 200.1 887.913 198.82 886.013 198.82C885.073 198.82 884.293 199.12 883.673 199.72C883.073 200.3 882.773 201.08 882.773 202.02ZM896.19 205.96H898.95C900.95 205.96 902.13 206.96 902.13 208.58C902.13 210.58 900.25 211.62 897.11 211.62C894.09 211.62 892.63 210.66 892.63 209.12C892.63 208.06 893.17 207.36 894.23 207.02V206.88C893.61 206.66 893.21 206.1 893.21 205.46C893.21 204.66 893.77 203.98 894.59 203.74V203.62C893.57 203 893.07 202.06 893.07 200.82C893.07 199.8 893.43 198.96 894.15 198.32C894.89 197.68 895.83 197.36 896.97 197.36C897.69 197.36 898.31 197.48 898.85 197.7V197.36C898.85 196.52 899.33 196.1 900.29 196.1H901.99V197.52H900.01V198.44C900.65 199.08 900.97 199.9 900.97 200.88C900.97 201.9 900.61 202.72 899.89 203.34C899.19 203.96 898.27 204.28 897.15 204.28C896.61 204.28 896.13 204.22 895.71 204.1C895.13 204.2 894.79 204.6 894.79 205.06C894.79 205.66 895.25 205.96 896.19 205.96ZM894.79 200.48V201.2C894.79 202.3 895.67 203.04 897.03 203.04C898.37 203.04 899.27 202.3 899.27 201.2V200.48C899.27 199.38 898.37 198.62 897.03 198.62C895.69 198.62 894.79 199.36 894.79 200.48ZM897.21 210.32C899.35 210.32 900.41 209.76 900.41 208.66C900.41 207.84 899.87 207.42 898.81 207.42H895.97C894.83 207.42 894.25 207.88 894.25 208.78C894.25 209.8 895.23 210.32 897.21 210.32ZM903.22 202.78C903.22 201.1 903.68 199.78 904.6 198.82C905.52 197.84 906.74 197.36 908.24 197.36C909.74 197.36 910.96 197.84 911.86 198.8C912.78 199.76 913.24 201.08 913.24 202.78C913.24 206.08 911.38 208.2 908.24 208.2C906.68 208.2 905.46 207.72 904.56 206.74C903.66 205.76 903.22 204.44 903.22 202.78ZM905 202.02V203.64C905 205.62 906.4 206.76 908.24 206.76C910.1 206.76 911.48 205.58 911.48 203.64V202.02C911.48 200.1 910.14 198.82 908.24 198.82C907.3 198.82 906.52 199.12 905.9 199.72C905.3 200.3 905 201.08 905 202.02ZM931.365 208H924.505C921.225 208 919.725 206.54 919.725 204.12C919.725 202.3 920.665 200.96 922.105 200.48V200.32C920.745 199.82 919.985 198.62 919.985 197.12C919.985 194.66 921.725 193.26 924.425 193.26C925.085 193.26 925.645 193.32 926.105 193.42V194.9C925.725 194.76 925.225 194.7 924.625 194.7C922.725 194.7 921.765 195.54 921.765 196.9V197.58C921.765 199 922.945 199.64 924.445 199.64H927.505V197.32H929.205V199.64H931.365V201.12H929.205V206.48H931.365V208ZM924.425 206.48H927.505V201.12H924.225C922.445 201.12 921.505 202 921.505 203.5V204.28C921.505 205.74 922.485 206.48 924.425 206.48ZM945.221 208H938.481V193.42H945.381C947.961 193.42 949.321 194.82 949.321 197.12C949.321 198.66 948.581 199.9 947.241 200.4V200.56C948.881 200.98 949.701 202.18 949.701 204.14C949.701 206.48 948.021 208 945.221 208ZM940.281 194.96V199.82H945.261C946.621 199.82 947.461 199.08 947.461 197.88V196.86C947.461 195.68 946.661 194.96 945.241 194.96H940.281ZM940.281 201.34V206.46H945.101C946.721 206.46 947.781 205.68 947.781 204.46V203.4C947.781 202.1 946.861 201.34 945.401 201.34H940.281ZM954.058 197.56H957.678V199H954.218V208H952.478V199.1C952.478 198.08 952.998 197.56 954.058 197.56ZM958.278 205C958.278 202.94 959.698 201.78 962.078 201.78H965.218V200.98C965.218 199.48 964.438 198.74 962.858 198.74C961.318 198.74 960.478 199.48 960.418 200.68H958.718C958.818 198.6 960.418 197.36 962.958 197.36C964.338 197.36 965.418 197.82 965.958 198.38C966.218 198.66 966.438 198.98 966.598 199.36C966.918 200.1 966.938 200.54 966.938 201.02V206.72H968.478V208H966.698C965.738 208 965.398 207.6 965.338 206.82L965.318 206.28H965.198C964.738 207.46 963.338 208.2 961.638 208.2C959.538 208.2 958.278 206.94 958.278 205ZM960.058 204.56V205.2C960.058 206.24 960.838 206.8 962.038 206.8C963.978 206.8 965.218 205.52 965.218 203.6V203.04H962.238C960.858 203.04 960.058 203.66 960.058 204.56ZM972.402 208H970.662V197.56H972.182L972.402 199.5H972.542C973.182 198.16 974.482 197.36 976.062 197.36C978.322 197.36 979.682 199 979.682 201.58V208H977.942V201.76C977.942 199.86 977.122 198.9 975.482 198.9C973.642 198.9 972.402 200.36 972.402 202.54V208ZM986.505 208.2C983.785 208.2 982.165 206.24 982.165 202.86C982.165 199.44 983.785 197.5 986.505 197.5C988.265 197.5 989.585 198.26 990.245 199.54H990.365V193.34H992.105V208H990.545L990.365 206.18H990.245C989.525 207.52 988.285 208.2 986.505 208.2ZM986.985 206.76C989.005 206.76 990.365 205.44 990.365 203.5V202.2C990.365 200.26 989.005 198.96 986.985 198.96C985.125 198.96 983.945 200.06 983.945 201.8V203.9C983.945 205.64 985.125 206.76 986.985 206.76ZM997.304 195.62H995.584V193.34H997.304V195.62ZM997.304 208H995.584V197.56H997.304V208ZM1002.52 208H1000.78V197.56H1002.3L1002.52 199.5H1002.66C1003.3 198.16 1004.6 197.36 1006.18 197.36C1008.44 197.36 1009.8 199 1009.8 201.58V208H1008.06V201.76C1008.06 199.86 1007.24 198.9 1005.6 198.9C1003.76 198.9 1002.52 200.36 1002.52 202.54V208ZM1015.68 205.96H1018.44C1020.44 205.96 1021.62 206.96 1021.62 208.58C1021.62 210.58 1019.74 211.62 1016.6 211.62C1013.58 211.62 1012.12 210.66 1012.12 209.12C1012.12 208.06 1012.66 207.36 1013.72 207.02V206.88C1013.1 206.66 1012.7 206.1 1012.7 205.46C1012.7 204.66 1013.26 203.98 1014.08 203.74V203.62C1013.06 203 1012.56 202.06 1012.56 200.82C1012.56 199.8 1012.92 198.96 1013.64 198.32C1014.38 197.68 1015.32 197.36 1016.46 197.36C1017.18 197.36 1017.8 197.48 1018.34 197.7V197.36C1018.34 196.52 1018.82 196.1 1019.78 196.1H1021.48V197.52H1019.5V198.44C1020.14 199.08 1020.46 199.9 1020.46 200.88C1020.46 201.9 1020.1 202.72 1019.38 203.34C1018.68 203.96 1017.76 204.28 1016.64 204.28C1016.1 204.28 1015.62 204.22 1015.2 204.1C1014.62 204.2 1014.28 204.6 1014.28 205.06C1014.28 205.66 1014.74 205.96 1015.68 205.96ZM1014.28 200.48V201.2C1014.28 202.3 1015.16 203.04 1016.52 203.04C1017.86 203.04 1018.76 202.3 1018.76 201.2V200.48C1018.76 199.38 1017.86 198.62 1016.52 198.62C1015.18 198.62 1014.28 199.36 1014.28 200.48ZM1016.7 210.32C1018.84 210.32 1019.9 209.76 1019.9 208.66C1019.9 207.84 1019.36 207.42 1018.3 207.42H1015.46C1014.32 207.42 1013.74 207.88 1013.74 208.78C1013.74 209.8 1014.72 210.32 1016.7 210.32Z" fill="white"/>
<path d="M1239.74 98.2749H1243.92C1243.93 99.1538 1244.25 99.8374 1244.9 100.326C1245.55 100.806 1246.42 101.046 1247.52 101.046C1248.47 101.046 1249.22 100.855 1249.75 100.472C1250.3 100.082 1250.57 99.5404 1250.57 98.8486C1250.57 98.1162 1250.27 97.6076 1249.67 97.3228C1249.4 97.1844 1249.19 97.0949 1249.05 97.0542C1248.9 97.0054 1248.65 96.9443 1248.3 96.8711L1245.47 96.2729L1244.63 96.1021L1243.7 95.7969C1243.33 95.6748 1242.98 95.5324 1242.65 95.3696C1241.78 94.8407 1241.19 94.3442 1240.88 93.8804C1240.38 93.0991 1240.12 92.1958 1240.12 91.1704C1240.12 89.4858 1240.77 88.1227 1242.05 87.0811C1243.31 86.0638 1245.01 85.5552 1247.15 85.5552C1249.27 85.5552 1250.98 86.0435 1252.27 87.02C1253.58 88.0129 1254.25 89.3231 1254.27 90.9507H1250.1C1250.05 90.2508 1249.75 89.7015 1249.19 89.3027C1248.64 88.904 1247.92 88.7046 1247.04 88.7046C1246.2 88.7046 1245.54 88.8755 1245.07 89.2173C1244.6 89.5509 1244.37 90.0107 1244.37 90.5967C1244.37 90.8652 1244.43 91.1134 1244.54 91.3413C1244.66 91.561 1244.81 91.7319 1244.97 91.854C1245.08 91.9435 1245.3 92.0575 1245.65 92.1958L1246.28 92.3789L1246.92 92.501L1249.93 93.1235C1253.22 93.7664 1254.87 95.508 1254.87 98.3481C1254.87 100.22 1254.19 101.673 1252.83 102.706C1251.47 103.731 1249.65 104.244 1247.37 104.244C1245.03 104.244 1243.17 103.695 1241.8 102.596C1240.43 101.481 1239.74 100.041 1239.74 98.2749ZM1270.85 104H1266.49L1262.95 98.519L1261.22 100.326V104H1257.37V85.3965H1261.22V95.5771L1265.87 90.5967H1270.57L1265.55 95.8213L1270.85 104ZM1275.96 89.1196H1272.17V85.3965H1275.96V89.1196ZM1275.96 104H1272.17V90.5967H1275.96V104ZM1282.87 104H1279.08V85.3965H1282.87V104ZM1289.78 104H1285.98V85.3965H1289.78V104ZM1292.06 99.8008H1295.85C1295.85 100.362 1296.04 100.794 1296.42 101.095C1296.81 101.396 1297.35 101.546 1298.05 101.546C1298.67 101.546 1299.15 101.428 1299.49 101.192C1299.83 100.956 1300 100.627 1300 100.204C1299.96 99.7642 1299.82 99.459 1299.57 99.2881C1299.34 99.1172 1299.01 99.0033 1298.59 98.9463L1296.21 98.5557C1293.59 98.0755 1292.27 96.7816 1292.27 94.6738C1292.27 93.3229 1292.77 92.265 1293.76 91.5C1294.76 90.735 1296.12 90.3525 1297.84 90.3525C1299.56 90.3525 1300.93 90.735 1301.93 91.5C1302.93 92.2568 1303.45 93.2822 1303.49 94.5762H1299.72C1299.69 93.5589 1299.06 93.0503 1297.81 93.0503C1297.27 93.0503 1296.85 93.1602 1296.54 93.3799C1296.24 93.5996 1296.09 93.9129 1296.09 94.3198C1296.09 94.6453 1296.2 94.9058 1296.42 95.1011C1296.56 95.2231 1296.7 95.3167 1296.85 95.3818C1297 95.4469 1297.12 95.4917 1297.22 95.5161C1297.32 95.5324 1297.52 95.5609 1297.81 95.6016L1300.12 95.98C1302.62 96.3543 1303.87 97.6361 1303.87 99.8252C1303.87 101.209 1303.34 102.291 1302.29 103.072C1301.25 103.854 1299.83 104.244 1298.02 104.244C1296.17 104.244 1294.72 103.841 1293.65 103.036C1292.59 102.23 1292.06 101.152 1292.06 99.8008Z" fill="#FF62CD"/>
<path d="M1240.9 146.6V137.42H1242.7V146.44C1242.7 149 1244.26 150.52 1246.74 150.52C1249.22 150.52 1250.8 149 1250.8 146.44V137.42H1252.58V146.6C1252.58 148.3 1252.06 149.66 1251.02 150.68C1249.98 151.7 1248.56 152.2 1246.74 152.2C1244.9 152.2 1243.46 151.7 1242.44 150.68C1241.42 149.66 1240.9 148.3 1240.9 146.6ZM1256.26 152H1254.18L1258.82 144.62L1254.34 137.42H1256.42L1258.32 140.48L1260.08 143.52H1260.2L1262.12 140.34L1263.9 137.42H1265.98L1261.4 144.7L1265.98 152H1263.88L1262.14 149.26L1260.16 145.96H1260.04L1257.92 149.42L1256.26 152ZM1274.73 152H1272.91V137.42H1279.89C1282.71 137.42 1284.13 139.02 1284.13 141.76C1284.13 143.46 1283.31 144.76 1282.03 145.24V145.36H1282.81C1283.83 145.36 1284.17 145.86 1284.17 146.82V152H1282.35V146.38H1274.73V152ZM1274.73 139.04V144.8H1279.55C1281.23 144.8 1282.21 143.92 1282.21 142.56V141.26C1282.21 139.8 1281.21 139.04 1279.55 139.04H1274.73ZM1291.34 141.36C1294.2 141.36 1295.98 143.16 1295.98 146.06C1295.98 146.46 1295.96 146.82 1295.92 147.14H1288.22V147.74C1288.22 149.58 1289.48 150.8 1291.4 150.8C1292.86 150.8 1293.98 150.04 1294.32 148.86H1296.04C1295.82 149.88 1295.3 150.68 1294.44 151.3C1293.58 151.9 1292.56 152.2 1291.36 152.2C1288.32 152.2 1286.44 150.1 1286.44 146.74C1286.44 143.38 1288.32 141.36 1291.34 141.36ZM1288.22 145.58V145.86H1294.26V145.46C1294.26 143.84 1293.08 142.76 1291.34 142.76C1289.5 142.76 1288.22 143.9 1288.22 145.58ZM1297.77 148.84H1299.49C1299.49 150.06 1300.49 150.84 1302.03 150.84C1303.49 150.84 1304.37 150.2 1304.37 149.1C1304.37 148.32 1303.91 147.84 1302.99 147.66L1300.75 147.24C1298.89 146.9 1297.97 145.98 1297.97 144.48C1297.97 142.54 1299.51 141.36 1301.91 141.36C1304.39 141.36 1305.89 142.62 1305.91 144.54H1304.19C1304.15 143.32 1303.39 142.7 1301.91 142.7C1300.49 142.7 1299.71 143.32 1299.71 144.3C1299.71 144.86 1299.95 145.26 1300.37 145.48C1300.79 145.66 1300.97 145.72 1301.39 145.8L1303.45 146.18C1305.27 146.5 1306.19 147.44 1306.19 149C1306.19 151 1304.57 152.2 1302.03 152.2C1299.39 152.2 1297.77 150.86 1297.77 148.84ZM1312.94 141.36C1315.8 141.36 1317.58 143.16 1317.58 146.06C1317.58 146.46 1317.56 146.82 1317.52 147.14H1309.82V147.74C1309.82 149.58 1311.08 150.8 1313 150.8C1314.46 150.8 1315.58 150.04 1315.92 148.86H1317.64C1317.42 149.88 1316.9 150.68 1316.04 151.3C1315.18 151.9 1314.16 152.2 1312.96 152.2C1309.92 152.2 1308.04 150.1 1308.04 146.74C1308.04 143.38 1309.92 141.36 1312.94 141.36ZM1309.82 145.58V145.86H1315.86V145.46C1315.86 143.84 1314.68 142.76 1312.94 142.76C1311.1 142.76 1309.82 143.9 1309.82 145.58ZM1319.39 149C1319.39 146.94 1320.81 145.78 1323.19 145.78H1326.33V144.98C1326.33 143.48 1325.55 142.74 1323.97 142.74C1322.43 142.74 1321.59 143.48 1321.53 144.68H1319.83C1319.93 142.6 1321.53 141.36 1324.07 141.36C1325.45 141.36 1326.53 141.82 1327.07 142.38C1327.33 142.66 1327.55 142.98 1327.71 143.36C1328.03 144.1 1328.05 144.54 1328.05 145.02V150.72H1329.59V152H1327.81C1326.85 152 1326.51 151.6 1326.45 150.82L1326.43 150.28H1326.31C1325.85 151.46 1324.45 152.2 1322.75 152.2C1320.65 152.2 1319.39 150.94 1319.39 149ZM1321.17 148.56V149.2C1321.17 150.24 1321.95 150.8 1323.15 150.8C1325.09 150.8 1326.33 149.52 1326.33 147.6V147.04H1323.35C1321.97 147.04 1321.17 147.66 1321.17 148.56ZM1333.36 141.56H1336.98V143H1333.52V152H1331.78V143.1C1331.78 142.08 1332.3 141.56 1333.36 141.56ZM1345.51 148.44H1347.23C1346.89 150.76 1345.13 152.2 1342.59 152.2C1341.05 152.2 1339.83 151.72 1338.95 150.74C1338.07 149.76 1337.63 148.46 1337.63 146.8C1337.63 145.1 1338.09 143.76 1339.01 142.8C1339.93 141.84 1341.15 141.36 1342.65 141.36C1345.07 141.36 1346.83 142.78 1347.17 144.96H1345.45C1345.11 143.54 1344.01 142.82 1342.57 142.82C1340.71 142.82 1339.41 144.16 1339.41 146.08V147.66C1339.41 149.52 1340.67 150.76 1342.57 150.76C1344.11 150.76 1345.25 149.86 1345.51 148.44ZM1351.52 152H1349.78V137.34H1351.52V143.46H1351.64C1352.28 142.16 1353.62 141.36 1355.16 141.36C1357.42 141.36 1358.78 142.98 1358.78 145.56V152H1357.06V145.74C1357.06 143.8 1356.24 142.82 1354.58 142.82C1352.74 142.82 1351.52 144.26 1351.52 146.48V152ZM1239.96 175.5H1241.84C1241.86 177.6 1243.38 178.72 1245.72 178.72C1247.9 178.72 1249.28 177.7 1249.28 176.02C1249.28 175.14 1248.96 174.52 1248.34 174.2C1247.72 173.86 1247.52 173.8 1246.96 173.66L1244.4 173.08L1243.46 172.86C1243.24 172.8 1242.9 172.66 1242.44 172.46C1242 172.24 1241.64 172.02 1241.38 171.78C1240.88 171.3 1240.36 170.38 1240.36 169.26C1240.36 168 1240.82 167.02 1241.76 166.3C1242.7 165.58 1243.92 165.22 1245.46 165.22C1247.04 165.22 1248.3 165.6 1249.26 166.34C1250.22 167.08 1250.72 168.12 1250.74 169.44H1248.88C1248.78 167.68 1247.48 166.7 1245.46 166.7C1243.46 166.7 1242.26 167.64 1242.26 169.08C1242.26 169.86 1242.6 170.44 1243.22 170.78C1243.86 171.1 1244.22 171.2 1244.86 171.34L1247.6 171.94C1250 172.46 1251.2 173.76 1251.2 175.84C1251.2 177.22 1250.7 178.28 1249.68 179.06C1248.68 179.82 1247.34 180.2 1245.66 180.2C1243.82 180.2 1242.4 179.76 1241.42 178.88C1240.44 177.98 1239.96 176.86 1239.96 175.5ZM1263.12 180H1261.14L1257.7 174.84L1255.88 176.68V180H1254.14V165.34H1255.88V174.52L1260.7 169.56H1262.92L1258.9 173.64L1263.12 180ZM1268.84 169.36C1271.7 169.36 1273.48 171.16 1273.48 174.06C1273.48 174.46 1273.46 174.82 1273.42 175.14H1265.72V175.74C1265.72 177.58 1266.98 178.8 1268.9 178.8C1270.36 178.8 1271.48 178.04 1271.82 176.86H1273.54C1273.32 177.88 1272.8 178.68 1271.94 179.3C1271.08 179.9 1270.06 180.2 1268.86 180.2C1265.82 180.2 1263.94 178.1 1263.94 174.74C1263.94 171.38 1265.82 169.36 1268.84 169.36ZM1265.72 173.58V173.86H1271.76V173.46C1271.76 171.84 1270.58 170.76 1268.84 170.76C1267 170.76 1265.72 171.9 1265.72 173.58ZM1278.31 171V178.56H1280.51V180H1278.11C1277.09 180 1276.59 179.52 1276.59 178.54V171H1274.69V169.56H1276.59V166.1H1278.31V169.56H1280.49V171H1278.31ZM1289.97 176.44H1291.69C1291.35 178.76 1289.59 180.2 1287.05 180.2C1285.51 180.2 1284.29 179.72 1283.41 178.74C1282.53 177.76 1282.09 176.46 1282.09 174.8C1282.09 173.1 1282.55 171.76 1283.47 170.8C1284.39 169.84 1285.61 169.36 1287.11 169.36C1289.53 169.36 1291.29 170.78 1291.63 172.96H1289.91C1289.57 171.54 1288.47 170.82 1287.03 170.82C1285.17 170.82 1283.87 172.16 1283.87 174.08V175.66C1283.87 177.52 1285.13 178.76 1287.03 178.76C1288.57 178.76 1289.71 177.86 1289.97 176.44ZM1295.98 180H1294.24V165.34H1295.98V171.46H1296.1C1296.74 170.16 1298.08 169.36 1299.62 169.36C1301.88 169.36 1303.24 170.98 1303.24 173.56V180H1301.52V173.74C1301.52 171.8 1300.7 170.82 1299.04 170.82C1297.2 170.82 1295.98 172.26 1295.98 174.48V180ZM1308.3 167.62H1306.58V165.34H1308.3V167.62ZM1308.3 180H1306.58V169.56H1308.3V180ZM1313.52 180H1311.78V169.56H1313.3L1313.52 171.5H1313.66C1314.3 170.16 1315.6 169.36 1317.18 169.36C1319.44 169.36 1320.8 171 1320.8 173.58V180H1319.06V173.76C1319.06 171.86 1318.24 170.9 1316.6 170.9C1314.76 170.9 1313.52 172.36 1313.52 174.54V180ZM1326.68 177.96H1329.44C1331.44 177.96 1332.62 178.96 1332.62 180.58C1332.62 182.58 1330.74 183.62 1327.6 183.62C1324.58 183.62 1323.12 182.66 1323.12 181.12C1323.12 180.06 1323.66 179.36 1324.72 179.02V178.88C1324.1 178.66 1323.7 178.1 1323.7 177.46C1323.7 176.66 1324.26 175.98 1325.08 175.74V175.62C1324.06 175 1323.56 174.06 1323.56 172.82C1323.56 171.8 1323.92 170.96 1324.64 170.32C1325.38 169.68 1326.32 169.36 1327.46 169.36C1328.18 169.36 1328.8 169.48 1329.34 169.7V169.36C1329.34 168.52 1329.82 168.1 1330.78 168.1H1332.48V169.52H1330.5V170.44C1331.14 171.08 1331.46 171.9 1331.46 172.88C1331.46 173.9 1331.1 174.72 1330.38 175.34C1329.68 175.96 1328.76 176.28 1327.64 176.28C1327.1 176.28 1326.62 176.22 1326.2 176.1C1325.62 176.2 1325.28 176.6 1325.28 177.06C1325.28 177.66 1325.74 177.96 1326.68 177.96ZM1325.28 172.48V173.2C1325.28 174.3 1326.16 175.04 1327.52 175.04C1328.86 175.04 1329.76 174.3 1329.76 173.2V172.48C1329.76 171.38 1328.86 170.62 1327.52 170.62C1326.18 170.62 1325.28 171.36 1325.28 172.48ZM1327.7 182.32C1329.84 182.32 1330.9 181.76 1330.9 180.66C1330.9 179.84 1330.36 179.42 1329.3 179.42H1326.46C1325.32 179.42 1324.74 179.88 1324.74 180.78C1324.74 181.8 1325.72 182.32 1327.7 182.32ZM1242.2 208L1239.24 193.42H1241.16L1242.86 202.1L1243.52 206H1243.66L1247.04 193.42H1249.5L1252.9 206H1253.02L1253.68 202.12L1255.36 193.42H1257.3L1254.32 208H1251.8L1248.32 195.4H1248.22L1244.74 208H1242.2ZM1261 195.62H1259.28V193.34H1261V195.62ZM1261 208H1259.28V197.56H1261V208ZM1266.05 197.56H1269.67V199H1266.21V208H1264.47V199.1C1264.47 198.08 1264.99 197.56 1266.05 197.56ZM1275.23 197.36C1278.09 197.36 1279.87 199.16 1279.87 202.06C1279.87 202.46 1279.85 202.82 1279.81 203.14H1272.11V203.74C1272.11 205.58 1273.37 206.8 1275.29 206.8C1276.75 206.8 1277.87 206.04 1278.21 204.86H1279.93C1279.71 205.88 1279.19 206.68 1278.33 207.3C1277.47 207.9 1276.45 208.2 1275.25 208.2C1272.21 208.2 1270.33 206.1 1270.33 202.74C1270.33 199.38 1272.21 197.36 1275.23 197.36ZM1272.11 201.58V201.86H1278.15V201.46C1278.15 199.84 1276.97 198.76 1275.23 198.76C1273.39 198.76 1272.11 199.9 1272.11 201.58ZM1287.56 194.76H1284.86V197.56H1287.12V199H1284.86V208H1283.14V199H1281.1V197.56H1283.14V194.78C1283.14 193.82 1283.7 193.34 1284.8 193.34H1287.56V194.76ZM1291.07 197.56H1294.69V199H1291.23V208H1289.49V199.1C1289.49 198.08 1290.01 197.56 1291.07 197.56ZM1295.29 205C1295.29 202.94 1296.71 201.78 1299.09 201.78H1302.23V200.98C1302.23 199.48 1301.45 198.74 1299.87 198.74C1298.33 198.74 1297.49 199.48 1297.43 200.68H1295.73C1295.83 198.6 1297.43 197.36 1299.97 197.36C1301.35 197.36 1302.43 197.82 1302.97 198.38C1303.23 198.66 1303.45 198.98 1303.61 199.36C1303.93 200.1 1303.95 200.54 1303.95 201.02V206.72H1305.49V208H1303.71C1302.75 208 1302.41 207.6 1302.35 206.82L1302.33 206.28H1302.21C1301.75 207.46 1300.35 208.2 1298.65 208.2C1296.55 208.2 1295.29 206.94 1295.29 205ZM1297.07 204.56V205.2C1297.07 206.24 1297.85 206.8 1299.05 206.8C1300.99 206.8 1302.23 205.52 1302.23 203.6V203.04H1299.25C1297.87 203.04 1297.07 203.66 1297.07 204.56ZM1309.41 208H1307.67V197.56H1309.17L1309.39 199.5H1309.55C1310.17 198.08 1311.23 197.36 1312.77 197.36C1314.31 197.36 1315.43 198.28 1315.83 199.64H1315.99C1316.61 198.12 1317.83 197.36 1319.41 197.36C1321.59 197.36 1322.89 198.86 1322.89 201.48V208H1321.15V201.7C1321.15 199.78 1320.39 198.82 1318.87 198.82C1317.13 198.82 1316.15 200.24 1316.15 202.46V208H1314.43V201.74C1314.43 199.8 1313.67 198.82 1312.17 198.82C1310.49 198.82 1309.41 200.28 1309.41 202.44V208ZM1330.25 197.36C1333.11 197.36 1334.89 199.16 1334.89 202.06C1334.89 202.46 1334.87 202.82 1334.83 203.14H1327.13V203.74C1327.13 205.58 1328.39 206.8 1330.31 206.8C1331.77 206.8 1332.89 206.04 1333.23 204.86H1334.95C1334.73 205.88 1334.21 206.68 1333.35 207.3C1332.49 207.9 1331.47 208.2 1330.27 208.2C1327.23 208.2 1325.35 206.1 1325.35 202.74C1325.35 199.38 1327.23 197.36 1330.25 197.36ZM1327.13 201.58V201.86H1333.17V201.46C1333.17 199.84 1331.99 198.76 1330.25 198.76C1328.41 198.76 1327.13 199.9 1327.13 201.58ZM1336.68 204.84H1338.4C1338.4 206.06 1339.4 206.84 1340.94 206.84C1342.4 206.84 1343.28 206.2 1343.28 205.1C1343.28 204.32 1342.82 203.84 1341.9 203.66L1339.66 203.24C1337.8 202.9 1336.88 201.98 1336.88 200.48C1336.88 198.54 1338.42 197.36 1340.82 197.36C1343.3 197.36 1344.8 198.62 1344.82 200.54H1343.1C1343.06 199.32 1342.3 198.7 1340.82 198.7C1339.4 198.7 1338.62 199.32 1338.62 200.3C1338.62 200.86 1338.86 201.26 1339.28 201.48C1339.7 201.66 1339.88 201.72 1340.3 201.8L1342.36 202.18C1344.18 202.5 1345.1 203.44 1345.1 205C1345.1 207 1343.48 208.2 1340.94 208.2C1338.3 208.2 1336.68 206.86 1336.68 204.84ZM1242.84 236H1241.02V221.42H1247.36C1250.4 221.42 1251.92 223.14 1251.92 226.02C1251.92 228.98 1250.32 230.68 1247.36 230.68H1242.84V236ZM1242.84 223.1V229.08H1247.28C1249.02 229.08 1250 228.18 1250 226.74V225.28C1250 223.9 1249.02 223.1 1247.5 223.1H1242.84ZM1255.82 225.56H1259.44V227H1255.98V236H1254.24V227.1C1254.24 226.08 1254.76 225.56 1255.82 225.56ZM1260.09 230.78C1260.09 229.1 1260.55 227.78 1261.47 226.82C1262.39 225.84 1263.61 225.36 1265.11 225.36C1266.61 225.36 1267.83 225.84 1268.73 226.8C1269.65 227.76 1270.11 229.08 1270.11 230.78C1270.11 234.08 1268.25 236.2 1265.11 236.2C1263.55 236.2 1262.33 235.72 1261.43 234.74C1260.53 233.76 1260.09 232.44 1260.09 230.78ZM1261.87 230.02V231.64C1261.87 233.62 1263.27 234.76 1265.11 234.76C1266.97 234.76 1268.35 233.58 1268.35 231.64V230.02C1268.35 228.1 1267.01 226.82 1265.11 226.82C1264.17 226.82 1263.39 227.12 1262.77 227.72C1262.17 228.3 1261.87 229.08 1261.87 230.02ZM1274.89 227V234.56H1277.09V236H1274.69C1273.67 236 1273.17 235.52 1273.17 234.54V227H1271.27V225.56H1273.17V222.1H1274.89V225.56H1277.07V227H1274.89ZM1278.67 230.78C1278.67 229.1 1279.13 227.78 1280.05 226.82C1280.97 225.84 1282.19 225.36 1283.69 225.36C1285.19 225.36 1286.41 225.84 1287.31 226.8C1288.23 227.76 1288.69 229.08 1288.69 230.78C1288.69 234.08 1286.83 236.2 1283.69 236.2C1282.13 236.2 1280.91 235.72 1280.01 234.74C1279.11 233.76 1278.67 232.44 1278.67 230.78ZM1280.45 230.02V231.64C1280.45 233.62 1281.85 234.76 1283.69 234.76C1285.55 234.76 1286.93 233.58 1286.93 231.64V230.02C1286.93 228.1 1285.59 226.82 1283.69 226.82C1282.75 226.82 1281.97 227.12 1281.35 227.72C1280.75 228.3 1280.45 229.08 1280.45 230.02ZM1293.47 227V234.56H1295.67V236H1293.27C1292.25 236 1291.75 235.52 1291.75 234.54V227H1289.85V225.56H1291.75V222.1H1293.47V225.56H1295.65V227H1293.47ZM1300.8 234.76L1296.46 225.56H1298.36L1299.88 228.98L1301.58 232.98H1301.7L1304.96 225.56H1306.86L1302.52 234.78V237.8C1302.52 238.82 1302.02 239.34 1301 239.34H1298.34V237.92H1300.8V234.76ZM1310.31 239.34H1308.57V225.56H1310.13L1310.31 227.4H1310.43C1311.13 226.1 1312.47 225.36 1314.17 225.36C1316.89 225.36 1318.51 227.32 1318.51 230.7C1318.51 234.12 1316.89 236.06 1314.17 236.06C1312.41 236.06 1311.09 235.3 1310.43 234.02H1310.31V239.34ZM1313.69 234.6C1315.55 234.6 1316.73 233.5 1316.73 231.76V229.66C1316.73 227.92 1315.55 226.8 1313.69 226.8C1311.67 226.8 1310.31 228.12 1310.31 230.06V231.36C1310.31 233.3 1311.67 234.6 1313.69 234.6ZM1322.85 223.62H1321.13V221.34H1322.85V223.62ZM1322.85 236H1321.13V225.56H1322.85V236ZM1328.07 236H1326.33V225.56H1327.85L1328.07 227.5H1328.21C1328.85 226.16 1330.15 225.36 1331.73 225.36C1333.99 225.36 1335.35 227 1335.35 229.58V236H1333.61V229.76C1333.61 227.86 1332.79 226.9 1331.15 226.9C1329.31 226.9 1328.07 228.36 1328.07 230.54V236ZM1341.23 233.96H1343.99C1345.99 233.96 1347.17 234.96 1347.17 236.58C1347.17 238.58 1345.29 239.62 1342.15 239.62C1339.13 239.62 1337.67 238.66 1337.67 237.12C1337.67 236.06 1338.21 235.36 1339.27 235.02V234.88C1338.65 234.66 1338.25 234.1 1338.25 233.46C1338.25 232.66 1338.81 231.98 1339.63 231.74V231.62C1338.61 231 1338.11 230.06 1338.11 228.82C1338.11 227.8 1338.47 226.96 1339.19 226.32C1339.93 225.68 1340.87 225.36 1342.01 225.36C1342.73 225.36 1343.35 225.48 1343.89 225.7V225.36C1343.89 224.52 1344.37 224.1 1345.33 224.1H1347.03V225.52H1345.05V226.44C1345.69 227.08 1346.01 227.9 1346.01 228.88C1346.01 229.9 1345.65 230.72 1344.93 231.34C1344.23 231.96 1343.31 232.28 1342.19 232.28C1341.65 232.28 1341.17 232.22 1340.75 232.1C1340.17 232.2 1339.83 232.6 1339.83 233.06C1339.83 233.66 1340.29 233.96 1341.23 233.96ZM1339.83 228.48V229.2C1339.83 230.3 1340.71 231.04 1342.07 231.04C1343.41 231.04 1344.31 230.3 1344.31 229.2V228.48C1344.31 227.38 1343.41 226.62 1342.07 226.62C1340.73 226.62 1339.83 227.36 1339.83 228.48ZM1342.25 238.32C1344.39 238.32 1345.45 237.76 1345.45 236.66C1345.45 235.84 1344.91 235.42 1343.85 235.42H1341.01C1339.87 235.42 1339.29 235.88 1339.29 236.78C1339.29 237.8 1340.27 238.32 1342.25 238.32ZM1240.9 258.6V249.42H1242.7V258.44C1242.7 261 1244.26 262.52 1246.74 262.52C1249.22 262.52 1250.8 261 1250.8 258.44V249.42H1252.58V258.6C1252.58 260.3 1252.06 261.66 1251.02 262.68C1249.98 263.7 1248.56 264.2 1246.74 264.2C1244.9 264.2 1243.46 263.7 1242.44 262.68C1241.42 261.66 1240.9 260.3 1240.9 258.6ZM1255.35 260.84H1257.07C1257.07 262.06 1258.07 262.84 1259.61 262.84C1261.07 262.84 1261.95 262.2 1261.95 261.1C1261.95 260.32 1261.49 259.84 1260.57 259.66L1258.33 259.24C1256.47 258.9 1255.55 257.98 1255.55 256.48C1255.55 254.54 1257.09 253.36 1259.49 253.36C1261.97 253.36 1263.47 254.62 1263.49 256.54H1261.77C1261.73 255.32 1260.97 254.7 1259.49 254.7C1258.07 254.7 1257.29 255.32 1257.29 256.3C1257.29 256.86 1257.53 257.26 1257.95 257.48C1258.37 257.66 1258.55 257.72 1258.97 257.8L1261.03 258.18C1262.85 258.5 1263.77 259.44 1263.77 261C1263.77 263 1262.15 264.2 1259.61 264.2C1256.97 264.2 1255.35 262.86 1255.35 260.84ZM1270.52 253.36C1273.38 253.36 1275.16 255.16 1275.16 258.06C1275.16 258.46 1275.14 258.82 1275.1 259.14H1267.4V259.74C1267.4 261.58 1268.66 262.8 1270.58 262.8C1272.04 262.8 1273.16 262.04 1273.5 260.86H1275.22C1275 261.88 1274.48 262.68 1273.62 263.3C1272.76 263.9 1271.74 264.2 1270.54 264.2C1267.5 264.2 1265.62 262.1 1265.62 258.74C1265.62 255.38 1267.5 253.36 1270.52 253.36ZM1267.4 257.58V257.86H1273.44V257.46C1273.44 255.84 1272.26 254.76 1270.52 254.76C1268.68 254.76 1267.4 255.9 1267.4 257.58ZM1279.43 253.56H1283.05V255H1279.59V264H1277.85V255.1C1277.85 254.08 1278.37 253.56 1279.43 253.56ZM1288.08 249.42H1298.96V251.06H1294.44V264H1292.64V251.06H1288.08V249.42ZM1302.87 253.36C1305.73 253.36 1307.51 255.16 1307.51 258.06C1307.51 258.46 1307.49 258.82 1307.45 259.14H1299.75V259.74C1299.75 261.58 1301.01 262.8 1302.93 262.8C1304.39 262.8 1305.51 262.04 1305.85 260.86H1307.57C1307.35 261.88 1306.83 262.68 1305.97 263.3C1305.11 263.9 1304.09 264.2 1302.89 264.2C1299.85 264.2 1297.97 262.1 1297.97 258.74C1297.97 255.38 1299.85 253.36 1302.87 253.36ZM1299.75 257.58V257.86H1305.79V257.46C1305.79 255.84 1304.61 254.76 1302.87 254.76C1301.03 254.76 1299.75 255.9 1299.75 257.58ZM1309.29 260.84H1311.01C1311.01 262.06 1312.01 262.84 1313.55 262.84C1315.01 262.84 1315.89 262.2 1315.89 261.1C1315.89 260.32 1315.43 259.84 1314.51 259.66L1312.27 259.24C1310.41 258.9 1309.49 257.98 1309.49 256.48C1309.49 254.54 1311.03 253.36 1313.43 253.36C1315.91 253.36 1317.41 254.62 1317.43 256.54H1315.71C1315.67 255.32 1314.91 254.7 1313.43 254.7C1312.01 254.7 1311.23 255.32 1311.23 256.3C1311.23 256.86 1311.47 257.26 1311.89 257.48C1312.31 257.66 1312.49 257.72 1312.91 257.8L1314.97 258.18C1316.79 258.5 1317.71 259.44 1317.71 261C1317.71 263 1316.09 264.2 1313.55 264.2C1310.91 264.2 1309.29 262.86 1309.29 260.84ZM1327.05 251.8V249.52H1328.77V251.8H1327.05ZM1322.41 253.56H1328.77V264H1327.05V255H1322.41V262.56H1324.57V264H1322.29C1321.17 264 1320.73 263.48 1320.71 262.46V255H1318.79V253.56H1320.71V250.1H1322.41V253.56ZM1333.98 264H1332.24V253.56H1333.76L1333.98 255.5H1334.12C1334.76 254.16 1336.06 253.36 1337.64 253.36C1339.9 253.36 1341.26 255 1341.26 257.58V264H1339.52V257.76C1339.52 255.86 1338.7 254.9 1337.06 254.9C1335.22 254.9 1333.98 256.36 1333.98 258.54V264ZM1347.15 261.96H1349.91C1351.91 261.96 1353.09 262.96 1353.09 264.58C1353.09 266.58 1351.21 267.62 1348.07 267.62C1345.05 267.62 1343.59 266.66 1343.59 265.12C1343.59 264.06 1344.13 263.36 1345.19 263.02V262.88C1344.57 262.66 1344.17 262.1 1344.17 261.46C1344.17 260.66 1344.73 259.98 1345.55 259.74V259.62C1344.53 259 1344.03 258.06 1344.03 256.82C1344.03 255.8 1344.39 254.96 1345.11 254.32C1345.85 253.68 1346.79 253.36 1347.93 253.36C1348.65 253.36 1349.27 253.48 1349.81 253.7V253.36C1349.81 252.52 1350.29 252.1 1351.25 252.1H1352.95V253.52H1350.97V254.44C1351.61 255.08 1351.93 255.9 1351.93 256.88C1351.93 257.9 1351.57 258.72 1350.85 259.34C1350.15 259.96 1349.23 260.28 1348.11 260.28C1347.57 260.28 1347.09 260.22 1346.67 260.1C1346.09 260.2 1345.75 260.6 1345.75 261.06C1345.75 261.66 1346.21 261.96 1347.15 261.96ZM1345.75 256.48V257.2C1345.75 258.3 1346.63 259.04 1347.99 259.04C1349.33 259.04 1350.23 258.3 1350.23 257.2V256.48C1350.23 255.38 1349.33 254.62 1347.99 254.62C1346.65 254.62 1345.75 255.36 1345.75 256.48ZM1348.17 266.32C1350.31 266.32 1351.37 265.76 1351.37 264.66C1351.37 263.84 1350.83 263.42 1349.77 263.42H1346.93C1345.79 263.42 1345.21 263.88 1345.21 264.78C1345.21 265.8 1346.19 266.32 1348.17 266.32ZM1246.92 292H1241.02V277.42H1246.92C1251.26 277.42 1253.04 279.92 1253.04 284.72C1253.04 289.54 1251.24 292 1246.92 292ZM1242.84 279.08V290.34H1246.9C1249.78 290.34 1251.12 289.02 1251.12 285.92V283.52C1251.12 280.38 1249.72 279.08 1246.9 279.08H1242.84ZM1259.96 281.36C1262.82 281.36 1264.6 283.16 1264.6 286.06C1264.6 286.46 1264.58 286.82 1264.54 287.14H1256.84V287.74C1256.84 289.58 1258.1 290.8 1260.02 290.8C1261.48 290.8 1262.6 290.04 1262.94 288.86H1264.66C1264.44 289.88 1263.92 290.68 1263.06 291.3C1262.2 291.9 1261.18 292.2 1259.98 292.2C1256.94 292.2 1255.06 290.1 1255.06 286.74C1255.06 283.38 1256.94 281.36 1259.96 281.36ZM1256.84 285.58V285.86H1262.88V285.46C1262.88 283.84 1261.7 282.76 1259.96 282.76C1258.12 282.76 1256.84 283.9 1256.84 285.58ZM1266.38 288.84H1268.1C1268.1 290.06 1269.1 290.84 1270.64 290.84C1272.1 290.84 1272.98 290.2 1272.98 289.1C1272.98 288.32 1272.52 287.84 1271.6 287.66L1269.36 287.24C1267.5 286.9 1266.58 285.98 1266.58 284.48C1266.58 282.54 1268.12 281.36 1270.52 281.36C1273 281.36 1274.5 282.62 1274.52 284.54H1272.8C1272.76 283.32 1272 282.7 1270.52 282.7C1269.1 282.7 1268.32 283.32 1268.32 284.3C1268.32 284.86 1268.56 285.26 1268.98 285.48C1269.4 285.66 1269.58 285.72 1270 285.8L1272.06 286.18C1273.88 286.5 1274.8 287.44 1274.8 289C1274.8 291 1273.18 292.2 1270.64 292.2C1268 292.2 1266.38 290.86 1266.38 288.84ZM1279.08 279.62H1277.36V277.34H1279.08V279.62ZM1279.08 292H1277.36V281.56H1279.08V292ZM1285.1 289.96H1287.86C1289.86 289.96 1291.04 290.96 1291.04 292.58C1291.04 294.58 1289.16 295.62 1286.02 295.62C1283 295.62 1281.54 294.66 1281.54 293.12C1281.54 292.06 1282.08 291.36 1283.14 291.02V290.88C1282.52 290.66 1282.12 290.1 1282.12 289.46C1282.12 288.66 1282.68 287.98 1283.5 287.74V287.62C1282.48 287 1281.98 286.06 1281.98 284.82C1281.98 283.8 1282.34 282.96 1283.06 282.32C1283.8 281.68 1284.74 281.36 1285.88 281.36C1286.6 281.36 1287.22 281.48 1287.76 281.7V281.36C1287.76 280.52 1288.24 280.1 1289.2 280.1H1290.9V281.52H1288.92V282.44C1289.56 283.08 1289.88 283.9 1289.88 284.88C1289.88 285.9 1289.52 286.72 1288.8 287.34C1288.1 287.96 1287.18 288.28 1286.06 288.28C1285.52 288.28 1285.04 288.22 1284.62 288.1C1284.04 288.2 1283.7 288.6 1283.7 289.06C1283.7 289.66 1284.16 289.96 1285.1 289.96ZM1283.7 284.48V285.2C1283.7 286.3 1284.58 287.04 1285.94 287.04C1287.28 287.04 1288.18 286.3 1288.18 285.2V284.48C1288.18 283.38 1287.28 282.62 1285.94 282.62C1284.6 282.62 1283.7 283.36 1283.7 284.48ZM1286.12 294.32C1288.26 294.32 1289.32 293.76 1289.32 292.66C1289.32 291.84 1288.78 291.42 1287.72 291.42H1284.88C1283.74 291.42 1283.16 291.88 1283.16 292.78C1283.16 293.8 1284.14 294.32 1286.12 294.32ZM1294.92 292H1293.18V281.56H1294.7L1294.92 283.5H1295.06C1295.7 282.16 1297 281.36 1298.58 281.36C1300.84 281.36 1302.2 283 1302.2 285.58V292H1300.46V285.76C1300.46 283.86 1299.64 282.9 1298 282.9C1296.16 282.9 1294.92 284.36 1294.92 286.54V292ZM1309.43 287.5H1311.31C1311.33 289.6 1312.85 290.72 1315.19 290.72C1317.37 290.72 1318.75 289.7 1318.75 288.02C1318.75 287.14 1318.43 286.52 1317.81 286.2C1317.19 285.86 1316.99 285.8 1316.43 285.66L1313.87 285.08L1312.93 284.86C1312.71 284.8 1312.37 284.66 1311.91 284.46C1311.47 284.24 1311.11 284.02 1310.85 283.78C1310.35 283.3 1309.83 282.38 1309.83 281.26C1309.83 280 1310.29 279.02 1311.23 278.3C1312.17 277.58 1313.39 277.22 1314.93 277.22C1316.51 277.22 1317.77 277.6 1318.73 278.34C1319.69 279.08 1320.19 280.12 1320.21 281.44H1318.35C1318.25 279.68 1316.95 278.7 1314.93 278.7C1312.93 278.7 1311.73 279.64 1311.73 281.08C1311.73 281.86 1312.07 282.44 1312.69 282.78C1313.33 283.1 1313.69 283.2 1314.33 283.34L1317.07 283.94C1319.47 284.46 1320.67 285.76 1320.67 287.84C1320.67 289.22 1320.17 290.28 1319.15 291.06C1318.15 291.82 1316.81 292.2 1315.13 292.2C1313.29 292.2 1311.87 291.76 1310.89 290.88C1309.91 289.98 1309.43 288.86 1309.43 287.5ZM1326.19 290.76L1321.85 281.56H1323.75L1325.27 284.98L1326.97 288.98H1327.09L1330.35 281.56H1332.25L1327.91 290.78V293.8C1327.91 294.82 1327.41 295.34 1326.39 295.34H1323.73V293.92H1326.19V290.76ZM1332.83 288.84H1334.55C1334.55 290.06 1335.55 290.84 1337.09 290.84C1338.55 290.84 1339.43 290.2 1339.43 289.1C1339.43 288.32 1338.97 287.84 1338.05 287.66L1335.81 287.24C1333.95 286.9 1333.03 285.98 1333.03 284.48C1333.03 282.54 1334.57 281.36 1336.97 281.36C1339.45 281.36 1340.95 282.62 1340.97 284.54H1339.25C1339.21 283.32 1338.45 282.7 1336.97 282.7C1335.55 282.7 1334.77 283.32 1334.77 284.3C1334.77 284.86 1335.01 285.26 1335.43 285.48C1335.85 285.66 1336.03 285.72 1336.45 285.8L1338.51 286.18C1340.33 286.5 1341.25 287.44 1341.25 289C1341.25 291 1339.63 292.2 1337.09 292.2C1334.45 292.2 1332.83 290.86 1332.83 288.84ZM1345.95 283V290.56H1348.15V292H1345.75C1344.73 292 1344.23 291.52 1344.23 290.54V283H1342.33V281.56H1344.23V278.1H1345.95V281.56H1348.13V283H1345.95ZM1354.62 281.36C1357.48 281.36 1359.26 283.16 1359.26 286.06C1359.26 286.46 1359.24 286.82 1359.2 287.14H1351.5V287.74C1351.5 289.58 1352.76 290.8 1354.68 290.8C1356.14 290.8 1357.26 290.04 1357.6 288.86H1359.32C1359.1 289.88 1358.58 290.68 1357.72 291.3C1356.86 291.9 1355.84 292.2 1354.64 292.2C1351.6 292.2 1349.72 290.1 1349.72 286.74C1349.72 283.38 1351.6 281.36 1354.62 281.36ZM1351.5 285.58V285.86H1357.54V285.46C1357.54 283.84 1356.36 282.76 1354.62 282.76C1352.78 282.76 1351.5 283.9 1351.5 285.58ZM1363.69 292H1361.95V281.56H1363.45L1363.67 283.5H1363.83C1364.45 282.08 1365.51 281.36 1367.05 281.36C1368.59 281.36 1369.71 282.28 1370.11 283.64H1370.27C1370.89 282.12 1372.11 281.36 1373.69 281.36C1375.87 281.36 1377.17 282.86 1377.17 285.48V292H1375.43V285.7C1375.43 283.78 1374.67 282.82 1373.15 282.82C1371.41 282.82 1370.43 284.24 1370.43 286.46V292H1368.71V285.74C1368.71 283.8 1367.95 282.82 1366.45 282.82C1364.77 282.82 1363.69 284.28 1363.69 286.44V292ZM1379.59 288.84H1381.31C1381.31 290.06 1382.31 290.84 1383.85 290.84C1385.31 290.84 1386.19 290.2 1386.19 289.1C1386.19 288.32 1385.73 287.84 1384.81 287.66L1382.57 287.24C1380.71 286.9 1379.79 285.98 1379.79 284.48C1379.79 282.54 1381.33 281.36 1383.73 281.36C1386.21 281.36 1387.71 282.62 1387.73 284.54H1386.01C1385.97 283.32 1385.21 282.7 1383.73 282.7C1382.31 282.7 1381.53 283.32 1381.53 284.3C1381.53 284.86 1381.77 285.26 1382.19 285.48C1382.61 285.66 1382.79 285.72 1383.21 285.8L1385.27 286.18C1387.09 286.5 1388.01 287.44 1388.01 289C1388.01 291 1386.39 292.2 1383.85 292.2C1381.21 292.2 1379.59 290.86 1379.59 288.84Z" fill="white"/>
<path d="M1609.15 85.7749H1623.17V89.2783H1618.16V104H1614.13V89.2783H1609.15V85.7749ZM1628.7 89.1196H1624.91V85.3965H1628.7V89.1196ZM1628.7 104H1624.91V90.5967H1628.7V104ZM1635.61 104H1631.81V90.5967H1635.14L1635.59 93.0747H1635.84C1636.58 91.2599 1637.86 90.3525 1639.66 90.3525C1641.6 90.3525 1642.88 91.2681 1643.51 93.0991H1643.79C1644.56 91.2681 1645.95 90.3525 1647.96 90.3525C1649.4 90.3525 1650.49 90.8449 1651.24 91.8296C1651.99 92.8062 1652.36 94.1693 1652.36 95.9189V104H1648.54V96.3462C1648.54 94.4175 1647.85 93.4531 1646.46 93.4531C1645.67 93.4531 1645.06 93.7298 1644.63 94.2832C1644.2 94.8285 1643.99 95.5771 1643.99 96.5293V104H1640.16V96.2974C1640.16 94.4012 1639.47 93.4531 1638.09 93.4531C1637.33 93.4531 1636.73 93.7217 1636.28 94.2588C1635.84 94.7959 1635.61 95.5161 1635.61 96.4194V104ZM1654.5 97.2983C1654.5 95.1336 1655.09 93.4328 1656.28 92.1958C1657.48 90.967 1659.08 90.3525 1661.08 90.3525C1662.99 90.3525 1664.51 90.91 1665.65 92.0249C1666.82 93.1154 1667.4 94.625 1667.4 96.5537C1667.4 97.0827 1667.37 97.6239 1667.3 98.1772H1658.4V98.8975C1658.4 99.6299 1658.65 100.224 1659.15 100.68C1659.64 101.127 1660.29 101.351 1661.1 101.351C1661.76 101.351 1662.32 101.213 1662.78 100.936C1663.26 100.651 1663.57 100.273 1663.72 99.8008H1667.5C1667.22 101.144 1666.51 102.226 1665.37 103.048C1664.23 103.845 1662.82 104.244 1661.12 104.244C1659.05 104.244 1657.43 103.622 1656.25 102.376C1655.08 101.131 1654.5 99.4386 1654.5 97.2983ZM1658.4 95.4795V95.6748H1663.6V95.4307C1663.6 94.7796 1663.36 94.2547 1662.88 93.856C1662.41 93.4491 1661.79 93.2456 1661.03 93.2456C1660.24 93.2456 1659.6 93.4531 1659.12 93.8682C1658.64 94.2751 1658.4 94.8122 1658.4 95.4795ZM1673.58 104H1669.78V85.3965H1673.58V104ZM1680.48 89.1196H1676.69V85.3965H1680.48V89.1196ZM1680.48 104H1676.69V90.5967H1680.48V104ZM1687.39 104H1683.6V90.5967H1686.94L1687.39 93.0747H1687.63C1688.47 91.2599 1689.94 90.3525 1692.02 90.3525C1693.51 90.3525 1694.65 90.849 1695.44 91.8418C1696.23 92.8346 1696.62 94.214 1696.62 95.98V104H1692.8V96.3706C1692.8 94.4582 1691.98 93.502 1690.35 93.502C1689.44 93.502 1688.72 93.8112 1688.19 94.4297C1687.66 95.0482 1687.39 95.8783 1687.39 96.9199V104ZM1698.73 97.2983C1698.73 95.1336 1699.33 93.4328 1700.52 92.1958C1701.72 90.967 1703.32 90.3525 1705.31 90.3525C1707.23 90.3525 1708.75 90.91 1709.89 92.0249C1711.05 93.1154 1711.64 94.625 1711.64 96.5537C1711.64 97.0827 1711.6 97.6239 1711.54 98.1772H1702.64V98.8975C1702.64 99.6299 1702.89 100.224 1703.38 100.68C1703.88 101.127 1704.53 101.351 1705.34 101.351C1706 101.351 1706.56 101.213 1707.02 100.936C1707.49 100.651 1707.81 100.273 1707.96 99.8008H1711.73C1711.46 101.144 1710.75 102.226 1709.61 103.048C1708.47 103.845 1707.06 104.244 1705.36 104.244C1703.29 104.244 1701.66 103.622 1700.49 102.376C1699.32 101.131 1698.73 99.4386 1698.73 97.2983ZM1702.64 95.4795V95.6748H1707.84V95.4307C1707.84 94.7796 1707.6 94.2547 1707.12 93.856C1706.65 93.4491 1706.03 93.2456 1705.26 93.2456C1704.48 93.2456 1703.84 93.4531 1703.36 93.8682C1702.88 94.2751 1702.64 94.8122 1702.64 95.4795Z" fill="#FF62CD"/>
<path d="M1613.58 141.4H1609.96V140.04H1610.52C1612.38 140.04 1613.64 139.08 1613.7 137.58H1615.32V152H1613.58V141.4ZM1624.44 137.4C1627.78 137.4 1629.4 139.82 1629.4 144.8C1629.4 149.78 1627.78 152.2 1624.44 152.2C1621.12 152.2 1619.46 149.74 1619.46 144.8C1619.46 139.86 1621.12 137.4 1624.44 137.4ZM1621.4 142.64V146.96C1621.4 149.36 1622.56 150.64 1624.42 150.64C1626.26 150.64 1627.46 149.38 1627.46 146.96V142.64C1627.46 140.22 1626.26 138.96 1624.42 138.96C1622.56 138.96 1621.4 140.24 1621.4 142.64ZM1646.79 147.16L1648.23 141.56H1650.05L1647.13 152H1644.87L1643.53 146.64L1642.85 143.68H1642.73L1642.09 146.64L1640.81 152H1638.51L1635.57 141.56H1637.45L1638.91 147.1L1639.59 150.28H1639.73L1641.77 141.56H1643.87L1646.01 150.24H1646.11L1646.79 147.16ZM1655.99 141.36C1658.85 141.36 1660.63 143.16 1660.63 146.06C1660.63 146.46 1660.61 146.82 1660.57 147.14H1652.87V147.74C1652.87 149.58 1654.13 150.8 1656.05 150.8C1657.51 150.8 1658.63 150.04 1658.97 148.86H1660.69C1660.47 149.88 1659.95 150.68 1659.09 151.3C1658.23 151.9 1657.21 152.2 1656.01 152.2C1652.97 152.2 1651.09 150.1 1651.09 146.74C1651.09 143.38 1652.97 141.36 1655.99 141.36ZM1652.87 145.58V145.86H1658.91V145.46C1658.91 143.84 1657.73 142.76 1655.99 142.76C1654.15 142.76 1652.87 143.9 1652.87 145.58ZM1667.55 141.36C1670.41 141.36 1672.19 143.16 1672.19 146.06C1672.19 146.46 1672.17 146.82 1672.13 147.14H1664.43V147.74C1664.43 149.58 1665.69 150.8 1667.61 150.8C1669.07 150.8 1670.19 150.04 1670.53 148.86H1672.25C1672.03 149.88 1671.51 150.68 1670.65 151.3C1669.79 151.9 1668.77 152.2 1667.57 152.2C1664.53 152.2 1662.65 150.1 1662.65 146.74C1662.65 143.38 1664.53 141.36 1667.55 141.36ZM1664.43 145.58V145.86H1670.47V145.46C1670.47 143.84 1669.29 142.76 1667.55 142.76C1665.71 142.76 1664.43 143.9 1664.43 145.58ZM1683.86 152H1681.88L1678.44 146.84L1676.62 148.68V152H1674.88V137.34H1676.62V146.52L1681.44 141.56H1683.66L1679.64 145.64L1683.86 152ZM1684.59 148.84H1686.31C1686.31 150.06 1687.31 150.84 1688.85 150.84C1690.31 150.84 1691.19 150.2 1691.19 149.1C1691.19 148.32 1690.73 147.84 1689.81 147.66L1687.57 147.24C1685.71 146.9 1684.79 145.98 1684.79 144.48C1684.79 142.54 1686.33 141.36 1688.73 141.36C1691.21 141.36 1692.71 142.62 1692.73 144.54H1691.01C1690.97 143.32 1690.21 142.7 1688.73 142.7C1687.31 142.7 1686.53 143.32 1686.53 144.3C1686.53 144.86 1686.77 145.26 1687.19 145.48C1687.61 145.66 1687.79 145.72 1688.21 145.8L1690.27 146.18C1692.09 146.5 1693.01 147.44 1693.01 149C1693.01 151 1691.39 152.2 1688.85 152.2C1686.21 152.2 1684.59 150.86 1684.59 148.84Z" fill="white"/>
<path d="M138.497 104.244C135.779 104.244 133.663 103.414 132.149 101.754C130.619 100.077 129.854 97.8029 129.854 94.9302C129.854 92.0005 130.636 89.7056 132.198 88.0454C133.761 86.3853 135.93 85.5552 138.705 85.5552C141.065 85.5552 142.989 86.1615 144.479 87.374C145.992 88.5866 146.834 90.2101 147.005 92.2446H142.794C142.599 91.2599 142.135 90.4868 141.402 89.9253C140.67 89.3556 139.718 89.0708 138.546 89.0708C137.203 89.0708 136.129 89.4655 135.323 90.2549C134.526 91.0361 134.127 92.1022 134.127 93.4531V96.4805C134.127 97.75 134.522 98.7754 135.311 99.5566C136.109 100.338 137.179 100.729 138.521 100.729C139.62 100.729 140.552 100.444 141.317 99.874C142.09 99.2962 142.582 98.5068 142.794 97.5059H147.005C146.786 99.5485 145.89 101.188 144.32 102.425C142.806 103.638 140.865 104.244 138.497 104.244ZM148.568 97.2983C148.568 95.1662 149.17 93.4735 150.375 92.2202C151.571 90.9751 153.202 90.3525 155.27 90.3525C157.296 90.3525 158.924 90.967 160.152 92.1958C161.381 93.4246 161.996 95.1255 161.996 97.2983C161.996 99.4142 161.397 101.107 160.201 102.376C159.005 103.622 157.361 104.244 155.27 104.244C153.251 104.244 151.628 103.63 150.399 102.401C149.178 101.156 148.568 99.4549 148.568 97.2983ZM152.45 96.2729V98.3726C152.45 99.2515 152.702 99.9351 153.207 100.423C153.719 100.912 154.407 101.156 155.27 101.156C156.165 101.156 156.865 100.916 157.369 100.436C157.874 99.9473 158.126 99.2596 158.126 98.3726V96.2729C158.126 95.3778 157.87 94.686 157.357 94.1978C156.852 93.7013 156.157 93.4531 155.27 93.4531C154.382 93.4531 153.691 93.7013 153.194 94.1978C152.698 94.6942 152.45 95.3859 152.45 96.2729ZM168.062 104H164.266V90.5967H167.611L168.062 93.0747H168.294C169.141 91.2599 170.606 90.3525 172.689 90.3525C174.178 90.3525 175.318 90.849 176.107 91.8418C176.896 92.8346 177.291 94.214 177.291 95.98V104H173.47V96.3706C173.47 94.4582 172.652 93.502 171.017 93.502C170.105 93.502 169.385 93.8112 168.856 94.4297C168.327 95.0482 168.062 95.8783 168.062 96.9199V104ZM187.557 93.6729H184.908V100.997H187.557V104H184.115C182.113 104 181.112 103.015 181.112 101.046V93.6729H178.731V90.5967H181.112V86.3975H184.908V90.5967H187.557V93.6729ZM188.851 97.2983C188.851 95.1336 189.445 93.4328 190.633 92.1958C191.838 90.967 193.437 90.3525 195.431 90.3525C197.343 90.3525 198.869 90.91 200.008 92.0249C201.172 93.1154 201.754 94.625 201.754 96.5537C201.754 97.0827 201.721 97.6239 201.656 98.1772H192.757V98.8975C192.757 99.6299 193.006 100.224 193.502 100.68C193.998 101.127 194.649 101.351 195.455 101.351C196.114 101.351 196.676 101.213 197.14 100.936C197.612 100.651 197.925 100.273 198.08 99.8008H201.852C201.575 101.144 200.867 102.226 199.728 103.048C198.588 103.845 197.172 104.244 195.479 104.244C193.404 104.244 191.781 103.622 190.609 102.376C189.437 101.131 188.851 99.4386 188.851 97.2983ZM192.757 95.4795V95.6748H197.958V95.4307C197.958 94.7796 197.717 94.2547 197.237 93.856C196.765 93.4491 196.147 93.2456 195.382 93.2456C194.592 93.2456 193.958 93.4531 193.478 93.8682C192.997 94.2751 192.757 94.8122 192.757 95.4795ZM206.075 104H202.071L206.075 97.3228L201.998 90.5967H206.026L208.602 95.1011H208.797L211.275 90.5967H215.267L211.324 97.2251L215.426 104H211.373L208.797 99.4712H208.602L206.075 104ZM224.422 93.6729H221.773V100.997H224.422V104H220.98C218.978 104 217.977 103.015 217.977 101.046V93.6729H215.597V90.5967H217.977V86.3975H221.773V90.5967H224.422V93.6729Z" fill="#FF62CD"/>
<path d="M132.84 152H131.02V137.42H137.36C140.4 137.42 141.92 139.14 141.92 142.02C141.92 144.98 140.32 146.68 137.36 146.68H132.84V152ZM132.84 139.1V145.08H137.28C139.02 145.08 140 144.18 140 142.74V141.28C140 139.9 139.02 139.1 137.5 139.1H132.84ZM145.816 141.56H149.436V143H145.976V152H144.236V143.1C144.236 142.08 144.756 141.56 145.816 141.56ZM150.095 146.78C150.095 145.1 150.555 143.78 151.475 142.82C152.395 141.84 153.615 141.36 155.115 141.36C156.615 141.36 157.835 141.84 158.735 142.8C159.655 143.76 160.115 145.08 160.115 146.78C160.115 150.08 158.255 152.2 155.115 152.2C153.555 152.2 152.335 151.72 151.435 150.74C150.535 149.76 150.095 148.44 150.095 146.78ZM151.875 146.02V147.64C151.875 149.62 153.275 150.76 155.115 150.76C156.975 150.76 158.355 149.58 158.355 147.64V146.02C158.355 144.1 157.015 142.82 155.115 142.82C154.175 142.82 153.395 143.12 152.775 143.72C152.175 144.3 151.875 145.08 151.875 146.02ZM166.427 152.2C163.707 152.2 162.087 150.24 162.087 146.86C162.087 143.44 163.707 141.5 166.427 141.5C168.187 141.5 169.507 142.26 170.167 143.54H170.287V137.34H172.027V152H170.467L170.287 150.18H170.167C169.447 151.52 168.207 152.2 166.427 152.2ZM166.907 150.76C168.927 150.76 170.287 149.44 170.287 147.5V146.2C170.287 144.26 168.927 142.96 166.907 142.96C165.047 142.96 163.867 144.06 163.867 145.8V147.9C163.867 149.64 165.047 150.76 166.907 150.76ZM182.506 141.56H184.246V152H182.766L182.526 150.06H182.366C181.806 151.36 180.446 152.2 178.826 152.2C176.666 152.2 175.366 150.76 175.366 148.22V141.56H177.086V147.98C177.086 149.82 177.866 150.74 179.406 150.74C181.306 150.74 182.506 149.24 182.506 147.02V141.56ZM194.752 148.44H196.472C196.132 150.76 194.372 152.2 191.832 152.2C190.292 152.2 189.072 151.72 188.192 150.74C187.312 149.76 186.872 148.46 186.872 146.8C186.872 145.1 187.332 143.76 188.252 142.8C189.172 141.84 190.392 141.36 191.892 141.36C194.312 141.36 196.072 142.78 196.412 144.96H194.692C194.352 143.54 193.252 142.82 191.812 142.82C189.952 142.82 188.652 144.16 188.652 146.08V147.66C188.652 149.52 189.912 150.76 191.812 150.76C193.352 150.76 194.492 149.86 194.752 148.44ZM201.161 143V150.56H203.361V152H200.961C199.941 152 199.441 151.52 199.441 150.54V143H197.541V141.56H199.441V138.1H201.161V141.56H203.341V143H201.161ZM216.764 152H210.864V137.42H216.764C221.104 137.42 222.884 139.92 222.884 144.72C222.884 149.54 221.084 152 216.764 152ZM212.684 139.08V150.34H216.744C219.624 150.34 220.964 149.02 220.964 145.92V143.52C220.964 140.38 219.564 139.08 216.744 139.08H212.684ZM229.8 141.36C232.66 141.36 234.44 143.16 234.44 146.06C234.44 146.46 234.42 146.82 234.38 147.14H226.68V147.74C226.68 149.58 227.94 150.8 229.86 150.8C231.32 150.8 232.44 150.04 232.78 148.86H234.5C234.28 149.88 233.76 150.68 232.9 151.3C232.04 151.9 231.02 152.2 229.82 152.2C226.78 152.2 224.9 150.1 224.9 146.74C224.9 143.38 226.78 141.36 229.8 141.36ZM226.68 145.58V145.86H232.72V145.46C232.72 143.84 231.54 142.76 229.8 142.76C227.96 142.76 226.68 143.9 226.68 145.58ZM236.227 148.84H237.947C237.947 150.06 238.947 150.84 240.487 150.84C241.947 150.84 242.827 150.2 242.827 149.1C242.827 148.32 242.367 147.84 241.447 147.66L239.207 147.24C237.347 146.9 236.427 145.98 236.427 144.48C236.427 142.54 237.967 141.36 240.367 141.36C242.847 141.36 244.347 142.62 244.367 144.54H242.647C242.607 143.32 241.847 142.7 240.367 142.7C238.947 142.7 238.167 143.32 238.167 144.3C238.167 144.86 238.407 145.26 238.827 145.48C239.247 145.66 239.427 145.72 239.847 145.8L241.907 146.18C243.727 146.5 244.647 147.44 244.647 149C244.647 151 243.027 152.2 240.487 152.2C237.847 152.2 236.227 150.86 236.227 148.84ZM248.925 139.62H247.205V137.34H248.925V139.62ZM248.925 152H247.205V141.56H248.925V152ZM254.94 149.96H257.7C259.7 149.96 260.88 150.96 260.88 152.58C260.88 154.58 259 155.62 255.86 155.62C252.84 155.62 251.38 154.66 251.38 153.12C251.38 152.06 251.92 151.36 252.98 151.02V150.88C252.36 150.66 251.96 150.1 251.96 149.46C251.96 148.66 252.52 147.98 253.34 147.74V147.62C252.32 147 251.82 146.06 251.82 144.82C251.82 143.8 252.18 142.96 252.9 142.32C253.64 141.68 254.58 141.36 255.72 141.36C256.44 141.36 257.06 141.48 257.6 141.7V141.36C257.6 140.52 258.08 140.1 259.04 140.1H260.74V141.52H258.76V142.44C259.4 143.08 259.72 143.9 259.72 144.88C259.72 145.9 259.36 146.72 258.64 147.34C257.94 147.96 257.02 148.28 255.9 148.28C255.36 148.28 254.88 148.22 254.46 148.1C253.88 148.2 253.54 148.6 253.54 149.06C253.54 149.66 254 149.96 254.94 149.96ZM253.54 144.48V145.2C253.54 146.3 254.42 147.04 255.78 147.04C257.12 147.04 258.02 146.3 258.02 145.2V144.48C258.02 143.38 257.12 142.62 255.78 142.62C254.44 142.62 253.54 143.36 253.54 144.48ZM255.96 154.32C258.1 154.32 259.16 153.76 259.16 152.66C259.16 151.84 258.62 151.42 257.56 151.42H254.72C253.58 151.42 253 151.88 253 152.78C253 153.8 253.98 154.32 255.96 154.32ZM264.765 152H263.025V141.56H264.545L264.765 143.5H264.905C265.545 142.16 266.845 141.36 268.425 141.36C270.685 141.36 272.045 143 272.045 145.58V152H270.305V145.76C270.305 143.86 269.485 142.9 267.845 142.9C266.005 142.9 264.765 144.36 264.765 146.54V152ZM279.428 141.36C282.288 141.36 284.068 143.16 284.068 146.06C284.068 146.46 284.048 146.82 284.008 147.14H276.308V147.74C276.308 149.58 277.568 150.8 279.488 150.8C280.948 150.8 282.068 150.04 282.408 148.86H284.128C283.908 149.88 283.388 150.68 282.528 151.3C281.668 151.9 280.648 152.2 279.448 152.2C276.408 152.2 274.528 150.1 274.528 146.74C274.528 143.38 276.408 141.36 279.428 141.36ZM276.308 145.58V145.86H282.348V145.46C282.348 143.84 281.168 142.76 279.428 142.76C277.588 142.76 276.308 143.9 276.308 145.58ZM288.336 141.56H291.956V143H288.496V152H286.756V143.1C286.756 142.08 287.276 141.56 288.336 141.56ZM312.591 152.96H299.571V139.7H312.591V149.5H309.091C308.211 149.5 307.711 149.04 307.651 148.38V148.22H307.531C307.211 148.92 306.411 149.38 305.351 149.38C303.671 149.38 302.751 148.18 302.751 146.24C302.751 144.22 303.711 143.14 305.471 143.14C306.551 143.14 307.271 143.54 307.651 144.32H307.711V143.26H308.851V148.22H311.171V141.1H301.051V151.56H312.591V152.96ZM305.791 148.14C306.731 148.14 307.271 147.56 307.271 146.66V145.86C307.271 144.96 306.691 144.38 305.751 144.38C304.811 144.38 304.271 144.94 304.271 145.84V146.66C304.271 147.6 304.831 148.14 305.791 148.14ZM327.877 152H321.977V137.42H327.877C332.217 137.42 333.997 139.92 333.997 144.72C333.997 149.54 332.197 152 327.877 152ZM323.797 139.08V150.34H327.857C330.737 150.34 332.077 149.02 332.077 145.92V143.52C332.077 140.38 330.677 139.08 327.857 139.08H323.797ZM347.747 152H345.787L344.507 148.56H337.807L336.527 152H334.627L340.127 137.42H342.207L347.747 152ZM339.287 144.56L338.367 147.06H343.947L343.027 144.56L341.227 139.26H341.127L339.287 144.56ZM358.177 152H349.477V137.42H351.297V150.34H358.177V152ZM362.723 137.42V152H360.903V137.42H362.723ZM380.13 152H371.43V137.42H373.25V150.34H380.13V152ZM381.891 149C381.891 146.94 383.311 145.78 385.691 145.78H388.831V144.98C388.831 143.48 388.051 142.74 386.471 142.74C384.931 142.74 384.091 143.48 384.031 144.68H382.331C382.431 142.6 384.031 141.36 386.571 141.36C387.951 141.36 389.031 141.82 389.571 142.38C389.831 142.66 390.051 142.98 390.211 143.36C390.531 144.1 390.551 144.54 390.551 145.02V150.72H392.091V152H390.311C389.351 152 389.011 151.6 388.951 150.82L388.931 150.28H388.811C388.351 151.46 386.951 152.2 385.251 152.2C383.151 152.2 381.891 150.94 381.891 149ZM383.671 148.56V149.2C383.671 150.24 384.451 150.8 385.651 150.8C387.591 150.8 388.831 149.52 388.831 147.6V147.04H385.851C384.471 147.04 383.671 147.66 383.671 148.56ZM395.855 152H394.275V137.34H396.015V143.56H396.135C396.695 142.22 398.115 141.36 399.775 141.36C402.675 141.36 404.195 143.4 404.195 146.82C404.195 150.26 402.575 152.2 399.675 152.2C398.135 152.2 396.755 151.44 396.135 150.18H396.015L395.855 152ZM396.015 146.14V147.5C396.015 148.44 396.335 149.22 396.955 149.84C397.595 150.46 398.415 150.76 399.395 150.76C401.255 150.76 402.435 149.64 402.435 147.9V145.74C402.435 143.96 401.255 142.82 399.395 142.82C398.415 142.82 397.595 143.14 396.955 143.76C396.335 144.38 396.015 145.16 396.015 146.14Z" fill="white"/>
</svg>
